SplineFontDB: 3.2
FontName: NKL_MadaniArabicVariable
FullName: NKL Madani Arabic Variable
FamilyName: NKL MadaniArabicVariable
Weight: Book
Copyright: Copyright (c) 2020 by Namela. All rights reserved.\n\n2021 - Modified by Niskala5570 for Jawi (Malay Arabic) script support.\nAdded: Nga, Ga, Nya, Va,Hamza Three Quarter Workaround, Reversed Tilde, Reversed Semicolon, Reversed Comma.
Version: 2.727_Jawi
ItalicAngle: 0
UnderlinePosition: -75
UnderlineWidth: 50
Ascent: 776
Descent: 224
InvalidEm: 0
sfntRevision: 0x00010000
LayerCount: 2
Layer: 0 1 "Back" 1
Layer: 1 1 "Fore" 0
XUID: [1021 250 -1551560589 28210]
StyleMap: 0x0040
FSType: 4
OS2Version: 4
OS2_WeightWidthSlopeOnly: 0
OS2_UseTypoMetrics: 0
CreationTime: 1586413859
ModificationTime: 1630335628
PfmFamily: 81
TTFWeight: 400
TTFWidth: 5
LineGap: 470
VLineGap: 0
Panose: 0 0 5 0 0 0 0 0 0 0
OS2TypoAscent: 776
OS2TypoAOffset: 0
OS2TypoDescent: -224
OS2TypoDOffset: 0
OS2TypoLinegap: 470
OS2WinAscent: 1194
OS2WinAOffset: 0
OS2WinDescent: 276
OS2WinDOffset: 0
HheadAscent: 776
HheadAOffset: 0
HheadDescent: -224
HheadDOffset: 0
OS2SubXSize: 650
OS2SubYSize: 600
OS2SubXOff: 0
OS2SubYOff: 75
OS2SupXSize: 650
OS2SupYSize: 600
OS2SupXOff: 0
OS2SupYOff: 350
OS2StrikeYSize: 50
OS2StrikeYPos: 330
OS2CapHeight: 730
OS2XHeight: 550
OS2Vendor: 'UKWN'
OS2CodePages: 200001d3.00000000
OS2UnicodeRanges: 20002007.00000000.00000008.00000000
Lookup: 1 0 0 "'aalt' Access All Alternates lookup 0" { "'aalt' Access All Alternates lookup 0 subtable"  } ['aalt' ('DFLT' <'dflt' > 'arab' <'URD ' 'dflt' > 'latn' <'AZE ' 'CAT ' 'CRT ' 'KAZ ' 'MOL ' 'NLD ' 'ROM ' 'TAT ' 'TRK ' 'dflt' > ) ]
Lookup: 3 0 0 "'aalt' Access All Alternates lookup 1" { "'aalt' Access All Alternates lookup 1 subtable"  } ['aalt' ('DFLT' <'dflt' > 'arab' <'URD ' 'dflt' > 'latn' <'AZE ' 'CAT ' 'CRT ' 'KAZ ' 'MOL ' 'NLD ' 'ROM ' 'TAT ' 'TRK ' 'dflt' > ) ]
Lookup: 1 0 0 "Single Substitution lookup 2" { "Single Substitution lookup 2 subtable"  } []

StartChar: exclam
Encoding: 4 33 4
Width: 225
GlyphClass: 2
Flags: W
LayerCount: 2
Fore
SplineSet
131 730 m 1,0,-1
 129 132 l 1,1,-1
 97 132 l 1,2,-1
 95 730 l 1,3,-1
 131 730 l 1,0,-1
90 57 m 0,4,5
 100 66 100 66 113 66 c 256,6,7
 126 66 126 66 135.5 56 c 128,-1,8
 145 46 145 46 145 33 c 256,9,10
 145 20 145 20 135.5 10 c 128,-1,11
 126 0 126 0 113 0 c 256,12,13
 100 0 100 0 90 10 c 128,-1,14
 80 20 80 20 80 33 c 0,15,16
 80 47 80 47 90 57 c 0,4,5
EndSplineSet
Validated: 1
EndChar

StartChar: quotedbl
Encoding: 5 34 5
Width: 270
GlyphClass: 2
Flags: W
LayerCount: 2
Fore
SplineSet
175 730 m 1,0,-1
 210 730 l 1,1,-1
 208 550 l 1,2,-1
 177 550 l 1,3,-1
 175 730 l 1,0,-1
60 730 m 1,4,-1
 95 730 l 1,5,-1
 93 550 l 1,6,-1
 62 550 l 1,7,-1
 60 730 l 1,4,-1
EndSplineSet
Validated: 1
EndChar

StartChar: numbersign
Encoding: 6 35 6
Width: 762
GlyphClass: 2
Flags: W
LayerCount: 2
Fore
SplineSet
67 258 m 1,0,-1
 214 258 l 1,1,-1
 259 472 l 1,2,-1
 111 472 l 1,3,-1
 118 505 l 1,4,-1
 265 505 l 1,5,-1
 295 649 l 1,6,-1
 329 649 l 1,7,-1
 299 505 l 1,8,-1
 521 505 l 1,9,-1
 550 649 l 1,10,-1
 585 649 l 1,11,-1
 556 505 l 1,12,-1
 702 505 l 1,13,-1
 695 472 l 1,14,-1
 549 472 l 1,15,-1
 505 258 l 1,16,-1
 651 258 l 1,17,-1
 644 225 l 1,18,-1
 498 225 l 1,19,-1
 469 81 l 1,20,-1
 434 81 l 1,21,-1
 463 225 l 1,22,-1
 242 225 l 1,23,-1
 212 81 l 1,24,-1
 178 81 l 1,25,-1
 208 225 l 1,26,-1
 60 225 l 1,27,-1
 67 258 l 1,0,-1
248 258 m 1,28,-1
 470 258 l 1,29,-1
 514 472 l 1,30,-1
 293 472 l 1,31,-1
 248 258 l 1,28,-1
EndSplineSet
Validated: 1
EndChar

StartChar: dollar
Encoding: 7 36 7
Width: 644
GlyphClass: 2
Flags: W
LayerCount: 2
Fore
SplineSet
79 123 m 1,0,1
 176 31 176 31 310 24 c 1,2,-1
 310 379 l 1,3,4
 236 402 236 402 189 423.5 c 128,-1,5
 142 445 142 445 111 482.5 c 128,-1,6
 80 520 80 520 80 577 c 0,7,8
 80 622 80 622 106.5 659.5 c 128,-1,9
 133 697 133 697 185 720 c 128,-1,10
 237 743 237 743 310 744 c 1,11,-1
 310 809 l 1,12,-1
 343 809 l 1,13,-1
 343 743 l 1,14,15
 404 738 404 738 464.5 709.5 c 128,-1,16
 525 681 525 681 566 628 c 1,17,-1
 538 609 l 1,18,19
 503 651 503 651 452.5 677.5 c 128,-1,20
 402 704 402 704 343 709 c 1,21,-1
 343 404 l 1,22,23
 422 379 422 379 472 356 c 128,-1,24
 522 333 522 333 555.5 291.5 c 128,-1,25
 589 250 589 250 589 185 c 0,26,27
 589 125 589 125 556.5 81.5 c 128,-1,28
 524 38 524 38 468.5 14.5 c 128,-1,29
 413 -9 413 -9 343 -11 c 1,30,-1
 343 -78 l 1,31,-1
 310 -78 l 1,32,-1
 310 -10 l 1,33,34
 240 -7 240 -7 176 19 c 128,-1,35
 112 45 112 45 55 99 c 1,36,-1
 79 123 l 1,0,1
343 23 m 1,37,38
 437 25 437 25 496 68.5 c 128,-1,39
 555 112 555 112 555 185 c 0,40,41
 555 237 555 237 527 271.5 c 128,-1,42
 499 306 499 306 455.5 326.5 c 128,-1,43
 412 347 412 347 343 369 c 1,44,-1
 343 23 l 1,37,38
140 502 m 0,45,46
 166 471 166 471 206.5 452.5 c 128,-1,47
 247 434 247 434 310 414 c 1,48,-1
 310 710 l 1,49,50
 221 709 221 709 167.5 671.5 c 128,-1,51
 114 634 114 634 114 577 c 0,52,53
 114 532 114 532 140 502 c 0,45,46
EndSplineSet
Validated: 1
EndChar

StartChar: percent
Encoding: 8 37 8
Width: 776
GlyphClass: 2
Flags: W
LayerCount: 2
Fore
SplineSet
441 289 m 0,0,1
 460 332 460 332 496 356 c 128,-1,2
 532 380 532 380 580 380 c 256,3,4
 628 380 628 380 663 356 c 128,-1,5
 698 332 698 332 717 288.5 c 128,-1,6
 736 245 736 245 736 187 c 0,7,8
 736 128 736 128 717 83.5 c 128,-1,9
 698 39 698 39 663 14.5 c 128,-1,10
 628 -10 628 -10 580 -10 c 256,11,12
 532 -10 532 -10 496 14.5 c 128,-1,13
 460 39 460 39 441 83.5 c 128,-1,14
 422 128 422 128 422 187 c 0,15,16
 422 245 422 245 441 289 c 0,0,1
59 689 m 0,17,18
 78 732 78 732 114 756 c 128,-1,19
 150 780 150 780 198 780 c 256,20,21
 246 780 246 780 281 756 c 128,-1,22
 316 732 316 732 335 688.5 c 128,-1,23
 354 645 354 645 354 587 c 0,24,25
 354 528 354 528 335 483.5 c 128,-1,26
 316 439 316 439 281 414.5 c 128,-1,27
 246 390 246 390 198 390 c 256,28,29
 150 390 150 390 114 414.5 c 128,-1,30
 78 439 78 439 59 483.5 c 128,-1,31
 40 528 40 528 40 587 c 0,32,33
 40 645 40 645 59 689 c 0,17,18
455 188 m 0,34,35
 455 103 455 103 491 63 c 128,-1,36
 527 23 527 23 579 23 c 0,37,38
 632 23 632 23 667.5 63 c 128,-1,39
 703 103 703 103 703 188 c 0,40,41
 703 270 703 270 667.5 308.5 c 128,-1,42
 632 347 632 347 579 347 c 0,43,44
 527 347 527 347 491 308 c 128,-1,45
 455 269 455 269 455 188 c 0,34,35
109 463 m 256,46,47
 145 423 145 423 197 423 c 0,48,49
 250 423 250 423 285.5 463 c 128,-1,50
 321 503 321 503 321 588 c 0,51,52
 321 670 321 670 285.5 708.5 c 128,-1,53
 250 747 250 747 197 747 c 0,54,55
 145 747 145 747 109 708 c 128,-1,56
 73 669 73 669 73 588 c 0,57,58
 73 503 73 503 109 463 c 256,46,47
572 781 m 1,59,-1
 609 781 l 1,60,-1
 205 0 l 1,61,-1
 168 0 l 1,62,-1
 572 781 l 1,59,-1
EndSplineSet
Validated: 1
EndChar

StartChar: ampersand
Encoding: 9 38 9
Width: 688
GlyphClass: 2
Flags: W
LayerCount: 2
Fore
SplineSet
105 304 m 0,0,1
 149 347 149 347 229 380 c 1,2,3
 184 432 184 432 159.5 475 c 128,-1,4
 135 518 135 518 135 580 c 0,5,6
 135 629 135 629 162 666.5 c 128,-1,7
 189 704 189 704 234.5 724.5 c 128,-1,8
 280 745 280 745 334 745 c 0,9,10
 389 745 389 745 435 723.5 c 128,-1,11
 481 702 481 702 507.5 664 c 128,-1,12
 534 626 534 626 534 579 c 0,13,14
 534 526 534 526 502.5 489 c 128,-1,15
 471 452 471 452 425.5 428.5 c 128,-1,16
 380 405 380 405 305 376 c 2,17,-1
 285 368 l 1,18,-1
 552 98 l 1,19,20
 601 146 601 146 613.5 199 c 128,-1,21
 626 252 626 252 626 288 c 0,22,23
 626 320 626 320 619 351 c 1,24,-1
 650 363 l 1,25,26
 658 323 658 323 658 285 c 0,27,28
 658 242 658 242 643 184 c 128,-1,29
 628 126 628 126 575 74 c 1,30,-1
 648 0 l 1,31,-1
 602 0 l 1,32,-1
 550 53 l 1,33,34
 467 -9 467 -9 340 -9 c 0,35,36
 255 -9 255 -9 192 15.5 c 128,-1,37
 129 40 129 40 94.5 86 c 128,-1,38
 60 132 60 132 60 194 c 0,39,40
 60 261 60 261 105 304 c 0,0,1
163 68 m 0,41,42
 233 24 233 24 341 24 c 0,43,44
 455 24 455 24 526 77 c 1,45,-1
 252 354 l 1,46,47
 176 322 176 322 134.5 286 c 128,-1,48
 93 250 93 250 93 194 c 0,49,50
 93 111 93 111 163 68 c 0,41,42
193 482 m 0,51,52
 217 440 217 440 260 394 c 1,53,54
 268 397 268 397 276.5 400.5 c 128,-1,55
 285 404 285 404 293 407 c 0,56,57
 364 434 364 434 404.5 454.5 c 128,-1,58
 445 475 445 475 473 505.5 c 128,-1,59
 501 536 501 536 501 579 c 0,60,61
 501 624 501 624 476.5 654 c 128,-1,62
 452 684 452 684 413.5 698 c 128,-1,63
 375 712 375 712 335 712 c 0,64,65
 292 712 292 712 254 697 c 128,-1,66
 216 682 216 682 192 652 c 128,-1,67
 168 622 168 622 168 579 c 0,68,69
 168 523 168 523 193 482 c 0,51,52
EndSplineSet
Validated: 1
Substitution2: "'ss02' Style Set 2 lookup 28 subtable" ampersand.ss02
Substitution2: "'ss01' Style Set 1 lookup 27 subtable" ampersand.ss01
Substitution2: "'salt' Stylistic Alternatives lookup 26 subtable" ampersand.ss01
AlternateSubs2: "'aalt' Access All Alternates lookup 1 subtable" ampersand.ss01 ampersand.ss02
EndChar

StartChar: quotesingle
Encoding: 10 39 10
Width: 155
GlyphClass: 2
Flags: W
LayerCount: 2
Fore
SplineSet
62 550 m 1,0,-1
 60 730 l 1,1,-1
 95 730 l 1,2,-1
 93 550 l 1,3,-1
 62 550 l 1,0,-1
EndSplineSet
Validated: 1
EndChar

StartChar: parenleft
Encoding: 11 40 11
Width: 290
GlyphClass: 2
Flags: W
LayerCount: 2
Fore
SplineSet
106 593 m 0,0,1
 151 715 151 715 226 780 c 1,2,-1
 270 780 l 1,3,4
 219 740 219 740 178.5 670 c 128,-1,5
 138 600 138 600 115.5 512.5 c 128,-1,6
 93 425 93 425 93 334 c 0,7,8
 93 244 93 244 115.5 156.5 c 128,-1,9
 138 69 138 69 178.5 -1 c 128,-1,10
 219 -71 219 -71 270 -110 c 1,11,-1
 226 -110 l 1,12,13
 151 -46 151 -46 105.5 76 c 128,-1,14
 60 198 60 198 60 335 c 0,15,16
 60 471 60 471 106 593 c 0,0,1
EndSplineSet
Validated: 1
EndChar

StartChar: parenright
Encoding: 12 41 12
Width: 290
GlyphClass: 2
Flags: W
LayerCount: 2
Fore
SplineSet
64 780 m 1,0,1
 139 715 139 715 184.5 593 c 128,-1,2
 230 471 230 471 230 335 c 0,3,4
 230 198 230 198 184.5 76 c 128,-1,5
 139 -46 139 -46 64 -110 c 1,6,-1
 20 -110 l 1,7,8
 71 -71 71 -71 111.5 -1 c 128,-1,9
 152 69 152 69 174.5 156.5 c 128,-1,10
 197 244 197 244 197 334 c 0,11,12
 197 425 197 425 174.5 512.5 c 128,-1,13
 152 600 152 600 111.5 670 c 128,-1,14
 71 740 71 740 20 780 c 1,15,-1
 64 780 l 1,0,1
EndSplineSet
Validated: 1
EndChar

StartChar: asterisk
Encoding: 13 42 13
Width: 395
GlyphClass: 2
Flags: W
LayerCount: 2
Fore
SplineSet
104 392 m 1,0,-1
 78 411 l 1,1,-1
 171 540 l 1,2,-1
 20 589 l 1,3,-1
 30 620 l 1,4,-1
 181 571 l 1,5,-1
 181 730 l 1,6,-1
 214 730 l 1,7,-1
 214 572 l 1,8,-1
 365 620 l 1,9,-1
 375 589 l 1,10,-1
 224 540 l 1,11,-1
 317 411 l 1,12,-1
 291 392 l 1,13,-1
 198 521 l 1,14,-1
 104 392 l 1,0,-1
EndSplineSet
Validated: 1
EndChar

StartChar: plus
Encoding: 14 43 14
Width: 540
GlyphClass: 2
Flags: W
LayerCount: 2
Fore
SplineSet
253 382 m 1,0,-1
 253 575 l 1,1,-1
 286 575 l 1,2,-1
 286 382 l 1,3,-1
 480 382 l 1,4,-1
 480 349 l 1,5,-1
 286 349 l 1,6,-1
 286 155 l 1,7,-1
 253 155 l 1,8,-1
 253 349 l 1,9,-1
 60 349 l 1,10,-1
 60 382 l 1,11,-1
 253 382 l 1,0,-1
EndSplineSet
Validated: 1
EndChar

StartChar: comma
Encoding: 15 44 15
Width: 140
GlyphClass: 2
Flags: W
LayerCount: 2
Fore
SplineSet
40 -140 m 1,0,-1
 65 58 l 1,1,-1
 100 58 l 1,2,-1
 70 -140 l 1,3,-1
 40 -140 l 1,0,-1
EndSplineSet
Validated: 1
EndChar

StartChar: hyphen
Encoding: 16 45 16
Width: 480
GlyphClass: 2
Flags: W
LayerCount: 2
Fore
SplineSet
60 349 m 1,0,-1
 60 382 l 1,1,-1
 420 382 l 1,2,-1
 420 349 l 1,3,-1
 60 349 l 1,0,-1
EndSplineSet
Validated: 1
EndChar

StartChar: period
Encoding: 17 46 17
Width: 145
GlyphClass: 2
Flags: W
LayerCount: 2
Fore
SplineSet
50 57 m 0,0,1
 60 66 60 66 73 66 c 256,2,3
 86 66 86 66 95.5 56 c 128,-1,4
 105 46 105 46 105 33 c 256,5,6
 105 20 105 20 95.5 10 c 128,-1,7
 86 0 86 0 73 0 c 256,8,9
 60 0 60 0 50 10 c 128,-1,10
 40 20 40 20 40 33 c 0,11,12
 40 47 40 47 50 57 c 0,0,1
EndSplineSet
Validated: 1
EndChar

StartChar: slash
Encoding: 18 47 18
Width: 450
GlyphClass: 2
Flags: W
LayerCount: 2
Fore
SplineSet
30 -110 m 1,0,-1
 384 781 l 1,1,-1
 420 781 l 1,2,-1
 66 -110 l 1,3,-1
 30 -110 l 1,0,-1
EndSplineSet
Validated: 1
EndChar

StartChar: zero
Encoding: 19 48 19
Width: 683
GlyphClass: 2
Flags: W
LayerCount: 2
Fore
SplineSet
60 365 m 0,0,1
 60 481 60 481 96 566 c 128,-1,2
 132 651 132 651 196 696 c 128,-1,3
 260 741 260 741 342 741 c 256,4,5
 424 741 424 741 487.5 696 c 128,-1,6
 551 651 551 651 587 566 c 128,-1,7
 623 481 623 481 623 365 c 0,8,9
 623 250 623 250 587 164.5 c 128,-1,10
 551 79 551 79 487 33 c 128,-1,11
 423 -13 423 -13 342 -13 c 0,12,13
 260 -13 260 -13 196 33 c 128,-1,14
 132 79 132 79 96 164.5 c 128,-1,15
 60 250 60 250 60 365 c 0,0,1
126 178 m 0,16,17
 159 99 159 99 216 59.5 c 128,-1,18
 273 20 273 20 343 20 c 0,19,20
 412 20 412 20 468 59.5 c 128,-1,21
 524 99 524 99 557 177.5 c 128,-1,22
 590 256 590 256 590 368 c 0,23,24
 590 476 590 476 557 552.5 c 128,-1,25
 524 629 524 629 467.5 668.5 c 128,-1,26
 411 708 411 708 343 708 c 0,27,28
 273 708 273 708 216.5 668.5 c 128,-1,29
 160 629 160 629 126.5 552.5 c 128,-1,30
 93 476 93 476 93 368 c 0,31,32
 93 256 93 256 126 178 c 0,16,17
EndSplineSet
Validated: 1
Substitution2: "'tnum' Tabular Numbers lookup 20 subtable" zero.tf
Substitution2: "'aalt' Access All Alternates lookup 0 subtable" zero.tf
EndChar

StartChar: one
Encoding: 20 49 20
Width: 293
GlyphClass: 2
Flags: W
LayerCount: 2
Fore
SplineSet
140 0 m 1,0,-1
 140 697 l 1,1,-1
 40 697 l 1,2,-1
 40 730 l 1,3,-1
 173 730 l 1,4,-1
 173 0 l 1,5,-1
 140 0 l 1,0,-1
EndSplineSet
Validated: 1
Substitution2: "'tnum' Tabular Numbers lookup 20 subtable" one.tf
Substitution2: "'sups' Superscript lookup 12 subtable" onesuperior
AlternateSubs2: "'aalt' Access All Alternates lookup 1 subtable" onesuperior one.tf
EndChar

StartChar: two
Encoding: 21 50 21
Width: 598
GlyphClass: 2
Flags: W
LayerCount: 2
Fore
SplineSet
371 314 m 2,0,1
 424 357 424 357 454.5 407 c 128,-1,2
 485 457 485 457 485 512 c 0,3,4
 485 572 485 572 459 617.5 c 128,-1,5
 433 663 433 663 388 687 c 128,-1,6
 343 711 343 711 288 711 c 0,7,8
 213 711 213 711 155.5 668 c 128,-1,9
 98 625 98 625 77 564 c 1,10,-1
 46 576 l 1,11,12
 61 622 61 622 97 660.5 c 128,-1,13
 133 699 133 699 182 721.5 c 128,-1,14
 231 744 231 744 285 744 c 0,15,16
 350 744 350 744 403.5 715.5 c 128,-1,17
 457 687 457 687 487.5 634.5 c 128,-1,18
 518 582 518 582 518 514 c 0,19,20
 518 450 518 450 485.5 394.5 c 128,-1,21
 453 339 453 339 395 291 c 2,22,-1
 86 33 l 1,23,-1
 538 33 l 1,24,-1
 538 0 l 1,25,-1
 35 0 l 1,26,-1
 35 34 l 1,27,-1
 371 314 l 2,0,1
EndSplineSet
Validated: 1
Substitution2: "'tnum' Tabular Numbers lookup 20 subtable" two.tf
Substitution2: "'sups' Superscript lookup 12 subtable" twosuperior
AlternateSubs2: "'aalt' Access All Alternates lookup 1 subtable" twosuperior two.tf
EndChar

StartChar: three
Encoding: 22 51 22
Width: 596
GlyphClass: 2
Flags: W
LayerCount: 2
Fore
SplineSet
67 138 m 1,0,1
 91 87 91 87 152.5 53 c 128,-1,2
 214 19 214 19 289 19 c 0,3,4
 350 19 350 19 399 42 c 128,-1,5
 448 65 448 65 475.5 106.5 c 128,-1,6
 503 148 503 148 503 200 c 256,7,8
 503 252 503 252 472.5 292 c 128,-1,9
 442 332 442 332 392 354 c 128,-1,10
 342 376 342 376 285 376 c 2,11,-1
 253 376 l 1,12,-1
 253 409 l 1,13,-1
 285 409 l 2,14,15
 337 409 337 409 380 428.5 c 128,-1,16
 423 448 423 448 448.5 482 c 128,-1,17
 474 516 474 516 474 558 c 0,18,19
 474 602 474 602 449.5 637.5 c 128,-1,20
 425 673 425 673 381 692.5 c 128,-1,21
 337 712 337 712 283 712 c 0,22,23
 227 712 227 712 180 689 c 128,-1,24
 133 666 133 666 110 630 c 1,25,-1
 80 644 l 1,26,27
 109 689 109 689 163.5 717 c 128,-1,28
 218 745 218 745 281 745 c 256,29,30
 344 745 344 745 395.5 722 c 128,-1,31
 447 699 447 699 477 656.5 c 128,-1,32
 507 614 507 614 507 559 c 0,33,34
 507 503 507 503 473 459 c 128,-1,35
 439 415 439 415 383 393 c 1,36,37
 452 370 452 370 494 318.5 c 128,-1,38
 536 267 536 267 536 199 c 0,39,40
 536 136 536 136 503 87.5 c 128,-1,41
 470 39 470 39 413.5 12.5 c 128,-1,42
 357 -14 357 -14 288 -14 c 0,43,44
 202 -14 202 -14 134.5 25.5 c 128,-1,45
 67 65 67 65 35 126 c 1,46,-1
 67 138 l 1,0,1
EndSplineSet
Validated: 1
Substitution2: "'tnum' Tabular Numbers lookup 20 subtable" three.tf
Substitution2: "'sups' Superscript lookup 12 subtable" threesuperior
AlternateSubs2: "'aalt' Access All Alternates lookup 1 subtable" threesuperior three.tf
EndChar

StartChar: four
Encoding: 23 52 23
Width: 564
GlyphClass: 2
Flags: W
LayerCount: 2
Fore
SplineSet
30 235 m 1,0,-1
 457 730 l 1,1,-1
 484 730 l 1,2,-1
 484 235 l 1,3,-1
 544 235 l 1,4,-1
 544 202 l 1,5,-1
 484 202 l 1,6,-1
 484 0 l 1,7,-1
 451 0 l 1,8,-1
 451 202 l 1,9,-1
 30 202 l 1,10,-1
 30 235 l 1,0,-1
451 235 m 1,11,-1
 451 672 l 1,12,-1
 74 235 l 1,13,-1
 451 235 l 1,11,-1
EndSplineSet
Validated: 1
Substitution2: "'tnum' Tabular Numbers lookup 20 subtable" four.tf
Substitution2: "'aalt' Access All Alternates lookup 0 subtable" four.tf
EndChar

StartChar: five
Encoding: 24 53 24
Width: 589
GlyphClass: 2
Flags: W
LayerCount: 2
Fore
SplineSet
71 169 m 1,0,1
 95 104 95 104 153 63.5 c 128,-1,2
 211 23 211 23 283 23 c 0,3,4
 345 23 345 23 397.5 53.5 c 128,-1,5
 450 84 450 84 480.5 136 c 128,-1,6
 511 188 511 188 511 250 c 256,7,8
 511 312 511 312 480.5 364.5 c 128,-1,9
 450 417 450 417 397.5 447.5 c 128,-1,10
 345 478 345 478 283 478 c 256,11,12
 221 478 221 478 165.5 447 c 128,-1,13
 110 416 110 416 81 366 c 1,14,-1
 48 366 l 1,15,-1
 73 730 l 1,16,-1
 525 730 l 1,17,-1
 525 697 l 1,18,-1
 104 697 l 1,19,-1
 85 426 l 1,20,21
 122 466 122 466 174.5 488.5 c 128,-1,22
 227 511 227 511 283 511 c 0,23,24
 354 511 354 511 414 476 c 128,-1,25
 474 441 474 441 509 381 c 128,-1,26
 544 321 544 321 544 250 c 0,27,28
 544 180 544 180 509 120 c 128,-1,29
 474 60 474 60 414 25 c 128,-1,30
 354 -10 354 -10 283 -10 c 0,31,32
 201 -10 201 -10 134.5 36.5 c 128,-1,33
 68 83 68 83 40 158 c 1,34,-1
 71 169 l 1,0,1
EndSplineSet
Validated: 1
Substitution2: "'tnum' Tabular Numbers lookup 20 subtable" five.tf
Substitution2: "'aalt' Access All Alternates lookup 0 subtable" five.tf
EndChar

StartChar: six
Encoding: 25 54 25
Width: 621
GlyphClass: 2
Flags: W
LayerCount: 2
Fore
SplineSet
50 250 m 0,0,1
 50 300 50 300 68 346 c 128,-1,2
 86 392 86 392 119 427 c 2,3,-1
 387 730 l 1,4,-1
 431 730 l 1,5,-1
 224 496 l 1,6,7
 267 512 267 512 311 512 c 0,8,9
 348 512 348 512 407.5 493 c 128,-1,10
 467 474 467 474 519 406 c 128,-1,11
 571 338 571 338 571 250 c 0,12,13
 571 180 571 180 536 120 c 128,-1,14
 501 60 501 60 441 25 c 128,-1,15
 381 -10 381 -10 310 -10 c 0,16,17
 240 -10 240 -10 180 25 c 128,-1,18
 120 60 120 60 85 120 c 128,-1,19
 50 180 50 180 50 250 c 0,0,1
114 137 m 0,20,21
 144 84 144 84 196.5 53.5 c 128,-1,22
 249 23 249 23 310 23 c 0,23,24
 372 23 372 23 424.5 53.5 c 128,-1,25
 477 84 477 84 507.5 136 c 128,-1,26
 538 188 538 188 538 250 c 256,27,28
 538 312 538 312 507.5 364.5 c 128,-1,29
 477 417 477 417 424.5 447.5 c 128,-1,30
 372 478 372 478 310 478 c 256,31,32
 248 478 248 478 196 447.5 c 128,-1,33
 144 417 144 417 113.5 364.5 c 128,-1,34
 83 312 83 312 83 250 c 0,35,36
 83 189 83 189 114 137 c 0,20,21
EndSplineSet
Validated: 1
Substitution2: "'tnum' Tabular Numbers lookup 20 subtable" six.tf
Substitution2: "'aalt' Access All Alternates lookup 0 subtable" six.tf
EndChar

StartChar: seven
Encoding: 26 55 26
Width: 581
GlyphClass: 2
Flags: W
LayerCount: 2
Fore
SplineSet
166 0 m 1,0,-1
 494 697 l 1,1,-1
 30 697 l 1,2,-1
 30 730 l 1,3,-1
 531 730 l 1,4,-1
 531 697 l 1,5,-1
 203 0 l 1,6,-1
 166 0 l 1,0,-1
EndSplineSet
Validated: 1
Substitution2: "'tnum' Tabular Numbers lookup 20 subtable" seven.tf
Substitution2: "'aalt' Access All Alternates lookup 0 subtable" seven.tf
EndChar

StartChar: eight
Encoding: 27 56 27
Width: 631
GlyphClass: 2
Flags: W
LayerCount: 2
Fore
SplineSet
106 329 m 0,0,1
 151 384 151 384 223 408 c 1,2,3
 169 430 169 430 136.5 473.5 c 128,-1,4
 104 517 104 517 104 571 c 0,5,6
 104 621 104 621 132.5 661.5 c 128,-1,7
 161 702 161 702 209.5 725.5 c 128,-1,8
 258 749 258 749 316 749 c 256,9,10
 374 749 374 749 422.5 725.5 c 128,-1,11
 471 702 471 702 499.5 661.5 c 128,-1,12
 528 621 528 621 528 571 c 0,13,14
 528 517 528 517 495.5 473.5 c 128,-1,15
 463 430 463 430 409 408 c 1,16,17
 481 384 481 384 526 328.5 c 128,-1,18
 571 273 571 273 571 204 c 0,19,20
 571 141 571 141 539 90 c 128,-1,21
 507 39 507 39 449 9.5 c 128,-1,22
 391 -20 391 -20 316 -20 c 256,23,24
 241 -20 241 -20 182.5 9.5 c 128,-1,25
 124 39 124 39 92 90 c 128,-1,26
 60 141 60 141 60 204 c 0,27,28
 60 273 60 273 106 329 c 0,0,1
121 107 m 0,29,30
 149 63 149 63 200 38 c 128,-1,31
 251 13 251 13 316 13 c 256,32,33
 381 13 381 13 431.5 38 c 128,-1,34
 482 63 482 63 510 106.5 c 128,-1,35
 538 150 538 150 538 203 c 0,36,37
 538 254 538 254 508 297 c 128,-1,38
 478 340 478 340 427 365 c 128,-1,39
 376 390 376 390 316 390 c 0,40,41
 255 390 255 390 204 365 c 128,-1,42
 153 340 153 340 123 297 c 128,-1,43
 93 254 93 254 93 203 c 0,44,45
 93 150 93 150 121 107 c 0,29,30
137 570 m 0,46,47
 137 530 137 530 160.5 496.5 c 128,-1,48
 184 463 184 463 225 443 c 128,-1,49
 266 423 266 423 315 423 c 256,50,51
 364 423 364 423 405.5 442.5 c 128,-1,52
 447 462 447 462 471 496 c 128,-1,53
 495 530 495 530 495 570 c 0,54,55
 495 612 495 612 471 645 c 128,-1,56
 447 678 447 678 406 697 c 128,-1,57
 365 716 365 716 315 716 c 256,58,59
 265 716 265 716 224.5 697.5 c 128,-1,60
 184 679 184 679 160.5 645.5 c 128,-1,61
 137 612 137 612 137 570 c 0,46,47
EndSplineSet
Validated: 1
Substitution2: "'tnum' Tabular Numbers lookup 20 subtable" eight.tf
Substitution2: "'aalt' Access All Alternates lookup 0 subtable" eight.tf
EndChar

StartChar: nine
Encoding: 28 57 28
Width: 621
GlyphClass: 2
Flags: W
LayerCount: 2
Fore
SplineSet
50 480 m 0,0,1
 50 550 50 550 85 610 c 128,-1,2
 120 670 120 670 180 705 c 128,-1,3
 240 740 240 740 311 740 c 0,4,5
 381 740 381 740 441 705 c 128,-1,6
 501 670 501 670 536 610 c 128,-1,7
 571 550 571 550 571 480 c 0,8,9
 571 430 571 430 553 384 c 128,-1,10
 535 338 535 338 502 303 c 2,11,-1
 234 0 l 1,12,-1
 190 0 l 1,13,-1
 397 234 l 1,14,15
 354 218 354 218 310 218 c 0,16,17
 273 218 273 218 213.5 237 c 128,-1,18
 154 256 154 256 102 324 c 128,-1,19
 50 392 50 392 50 480 c 0,0,1
114 366 m 0,20,21
 144 313 144 313 196.5 282.5 c 128,-1,22
 249 252 249 252 311 252 c 256,23,24
 373 252 373 252 425 282.5 c 128,-1,25
 477 313 477 313 507.5 365.5 c 128,-1,26
 538 418 538 418 538 480 c 0,27,28
 538 541 538 541 507.5 593.5 c 128,-1,29
 477 646 477 646 424.5 676.5 c 128,-1,30
 372 707 372 707 311 707 c 0,31,32
 249 707 249 707 196.5 676.5 c 128,-1,33
 144 646 144 646 113.5 594 c 128,-1,34
 83 542 83 542 83 480 c 256,35,36
 83 418 83 418 114 366 c 0,20,21
EndSplineSet
Validated: 1
Substitution2: "'tnum' Tabular Numbers lookup 20 subtable" nine.tf
Substitution2: "'aalt' Access All Alternates lookup 0 subtable" nine.tf
EndChar

StartChar: colon
Encoding: 29 58 29
Width: 185
GlyphClass: 2
Flags: W
LayerCount: 2
Fore
SplineSet
70 77 m 0,0,1
 80 86 80 86 93 86 c 256,2,3
 106 86 106 86 115.5 76 c 128,-1,4
 125 66 125 66 125 53 c 256,5,6
 125 40 125 40 115.5 30 c 128,-1,7
 106 20 106 20 93 20 c 256,8,9
 80 20 80 20 70 30 c 128,-1,10
 60 40 60 40 60 53 c 0,11,12
 60 67 60 67 70 77 c 0,0,1
70 521 m 0,13,14
 80 530 80 530 93 530 c 256,15,16
 106 530 106 530 115.5 520 c 128,-1,17
 125 510 125 510 125 497 c 256,18,19
 125 484 125 484 115.5 474 c 128,-1,20
 106 464 106 464 93 464 c 256,21,22
 80 464 80 464 70 474 c 128,-1,23
 60 484 60 484 60 497 c 0,24,25
 60 511 60 511 70 521 c 0,13,14
EndSplineSet
Validated: 1
EndChar

StartChar: semicolon
Encoding: 30 59 30
Width: 193
GlyphClass: 2
Flags: W
LayerCount: 2
Fore
SplineSet
85 58 m 1,0,-1
 120 58 l 1,1,-1
 90 -140 l 1,2,-1
 60 -140 l 1,3,-1
 85 58 l 1,0,-1
78 521 m 0,4,5
 88 530 88 530 101 530 c 256,6,7
 114 530 114 530 123.5 520 c 128,-1,8
 133 510 133 510 133 497 c 256,9,10
 133 484 133 484 123.5 474 c 128,-1,11
 114 464 114 464 101 464 c 256,12,13
 88 464 88 464 78 474 c 128,-1,14
 68 484 68 484 68 497 c 0,15,16
 68 511 68 511 78 521 c 0,4,5
EndSplineSet
Validated: 1
EndChar

StartChar: less
Encoding: 31 60 31
Width: 570
GlyphClass: 2
Flags: W
LayerCount: 2
Fore
SplineSet
60 391 m 1,0,-1
 510 589 l 1,1,-1
 510 553 l 1,2,-1
 101 373 l 1,3,-1
 510 193 l 1,4,-1
 510 157 l 1,5,-1
 60 355 l 1,6,-1
 60 391 l 1,0,-1
EndSplineSet
Validated: 1
EndChar

StartChar: equal
Encoding: 32 61 32
Width: 540
GlyphClass: 2
Flags: W
LayerCount: 2
Fore
SplineSet
60 434 m 1,0,-1
 60 467 l 1,1,-1
 480 467 l 1,2,-1
 480 434 l 1,3,-1
 60 434 l 1,0,-1
480 288 m 1,4,-1
 480 255 l 1,5,-1
 60 255 l 1,6,-1
 60 288 l 1,7,-1
 480 288 l 1,4,-1
EndSplineSet
Validated: 1
EndChar

StartChar: greater
Encoding: 33 62 33
Width: 570
GlyphClass: 2
Flags: W
LayerCount: 2
Fore
SplineSet
510 391 m 1,0,-1
 510 355 l 1,1,-1
 60 157 l 1,2,-1
 60 193 l 1,3,-1
 469 373 l 1,4,-1
 60 553 l 1,5,-1
 60 589 l 1,6,-1
 510 391 l 1,0,-1
EndSplineSet
Validated: 1
EndChar

StartChar: question
Encoding: 34 63 34
Width: 558
GlyphClass: 2
Flags: W
LayerCount: 2
Fore
SplineSet
109 660 m 0,0,1
 141 699 141 699 186 721.5 c 128,-1,2
 231 744 231 744 282 744 c 0,3,4
 341 744 341 744 390.5 717.5 c 128,-1,5
 440 691 440 691 469 644.5 c 128,-1,6
 498 598 498 598 498 539 c 0,7,8
 498 462 498 462 463 407 c 128,-1,9
 428 352 428 352 350 287 c 0,10,11
 320 261 320 261 304.5 233.5 c 128,-1,12
 289 206 289 206 289 162 c 2,13,-1
 289 121 l 1,14,-1
 256 121 l 1,15,-1
 256 162 l 2,16,17
 256 205 256 205 272.5 242.5 c 128,-1,18
 289 280 289 280 329 312 c 0,19,20
 406 373 406 373 435.5 426 c 128,-1,21
 465 479 465 479 465 537 c 0,22,23
 465 586 465 586 441.5 626 c 128,-1,24
 418 666 418 666 376 688.5 c 128,-1,25
 334 711 334 711 282 711 c 0,26,27
 213 711 213 711 161.5 666.5 c 128,-1,28
 110 622 110 622 91 560 c 1,29,-1
 60 571 l 1,30,31
 76 621 76 621 109 660 c 0,0,1
250 57 m 0,32,33
 260 66 260 66 273 66 c 256,34,35
 286 66 286 66 295.5 56 c 128,-1,36
 305 46 305 46 305 33 c 256,37,38
 305 20 305 20 295.5 10 c 128,-1,39
 286 0 286 0 273 0 c 256,40,41
 260 0 260 0 250 10 c 128,-1,42
 240 20 240 20 240 33 c 0,43,44
 240 47 240 47 250 57 c 0,32,33
EndSplineSet
Validated: 1
EndChar

StartChar: at
Encoding: 35 64 35
Width: 853
GlyphClass: 2
Flags: W
LayerCount: 2
Fore
SplineSet
50 365 m 0,0,1
 50 467 50 467 100.5 553.5 c 128,-1,2
 151 640 151 640 237.5 690.5 c 128,-1,3
 324 741 324 741 427 741 c 0,4,5
 529 741 529 741 615.5 690.5 c 128,-1,6
 702 640 702 640 752.5 553.5 c 128,-1,7
 803 467 803 467 803 365 c 0,8,9
 803 316 803 316 786 266 c 128,-1,10
 769 216 769 216 736 184.5 c 128,-1,11
 703 153 703 153 657 153 c 0,12,13
 654 153 654 153 651 153 c 0,14,15
 610 155 610 155 583 184.5 c 128,-1,16
 556 214 556 214 555 265 c 1,17,18
 530 230 530 230 491 209 c 128,-1,19
 452 188 452 188 408 188 c 0,20,21
 359 188 359 188 317.5 212.5 c 128,-1,22
 276 237 276 237 252 278.5 c 128,-1,23
 228 320 228 320 228 368 c 0,24,25
 228 417 228 417 252 458.5 c 128,-1,26
 276 500 276 500 317.5 524 c 128,-1,27
 359 548 359 548 408 548 c 0,28,29
 452 548 452 548 491 527.5 c 128,-1,30
 530 507 530 507 555 472 c 1,31,-1
 555 549 l 1,32,-1
 588 549 l 1,33,-1
 588 272 l 2,34,35
 588 233 588 233 605.5 209.5 c 128,-1,36
 623 186 623 186 650 185 c 0,37,38
 651 185 651 185 653 185 c 0,39,40
 693 185 693 185 719.5 214.5 c 128,-1,41
 746 244 746 244 758 286.5 c 128,-1,42
 770 329 770 329 770 366 c 0,43,44
 770 457 770 457 724 536 c 128,-1,45
 678 615 678 615 599.5 661.5 c 128,-1,46
 521 708 521 708 427 708 c 0,47,48
 332 708 332 708 253 661.5 c 128,-1,49
 174 615 174 615 128.5 536.5 c 128,-1,50
 83 458 83 458 83 366 c 0,51,52
 83 271 83 271 129.5 191.5 c 128,-1,53
 176 112 176 112 255.5 66 c 128,-1,54
 335 20 335 20 427 20 c 0,55,56
 475 20 475 20 525 35 c 1,57,-1
 534 3 l 1,58,59
 485 -13 485 -13 427 -13 c 0,60,61
 324 -13 324 -13 237.5 38 c 128,-1,62
 151 89 151 89 100.5 175.5 c 128,-1,63
 50 262 50 262 50 365 c 0,0,1
281 295 m 0,64,65
 300 261 300 261 334 241 c 128,-1,66
 368 221 368 221 408 221 c 0,67,68
 447 221 447 221 481 241 c 128,-1,69
 515 261 515 261 535 295 c 128,-1,70
 555 329 555 329 555 368 c 0,71,72
 555 408 555 408 535 442 c 128,-1,73
 515 476 515 476 481 495.5 c 128,-1,74
 447 515 447 515 408 515 c 0,75,76
 368 515 368 515 334 495.5 c 128,-1,77
 300 476 300 476 280.5 442 c 128,-1,78
 261 408 261 408 261 368 c 0,79,80
 261 329 261 329 281 295 c 0,64,65
EndSplineSet
Validated: 1
EndChar

StartChar: A
Encoding: 36 65 36
Width: 680
GlyphClass: 2
Flags: W
LayerCount: 2
Fore
SplineSet
30 0 m 1,0,-1
 321 730 l 1,1,-1
 359 730 l 1,2,-1
 650 0 l 1,3,-1
 615 0 l 1,4,-1
 514 252 l 1,5,-1
 166 252 l 1,6,-1
 66 0 l 1,7,-1
 30 0 l 1,0,-1
501 285 m 1,8,-1
 340 687 l 1,9,-1
 180 285 l 1,10,-1
 501 285 l 1,8,-1
EndSplineSet
Validated: 1
Substitution2: "'ss02' Style Set 2 lookup 28 subtable" A.ss02
Substitution2: "Single Substitution lookup 4 subtable" ordfeminine
AlternateSubs2: "'aalt' Access All Alternates lookup 1 subtable" ordfeminine A.ss02
EndChar

StartChar: B
Encoding: 37 66 37
Width: 657
GlyphClass: 2
Flags: W
LayerCount: 2
Fore
SplineSet
349 730 m 2,0,1
 414 730 414 730 461 705.5 c 128,-1,2
 508 681 508 681 532.5 638.5 c 128,-1,3
 557 596 557 596 557 545 c 0,4,5
 557 490 557 490 528.5 449.5 c 128,-1,6
 500 409 500 409 450 388 c 1,7,8
 521 373 521 373 564 322.5 c 128,-1,9
 607 272 607 272 607 200 c 0,10,11
 607 143 607 143 579.5 97.5 c 128,-1,12
 552 52 552 52 501.5 26 c 128,-1,13
 451 0 451 0 385 0 c 2,14,-1
 100 0 l 1,15,-1
 100 730 l 1,16,-1
 349 730 l 2,0,1
133 365 m 1,17,-1
 133 33 l 1,18,-1
 384 33 l 2,19,20
 441 33 441 33 484 54.5 c 128,-1,21
 527 76 527 76 550.5 114 c 128,-1,22
 574 152 574 152 574 200 c 0,23,24
 574 247 574 247 550.5 284.5 c 128,-1,25
 527 322 527 322 486 343.5 c 128,-1,26
 445 365 445 365 395 365 c 2,27,-1
 133 365 l 1,17,-1
133 398 m 1,28,-1
 349 398 l 2,29,30
 400 398 400 398 439.5 417 c 128,-1,31
 479 436 479 436 501.5 469 c 128,-1,32
 524 502 524 502 524 544 c 0,33,34
 524 609 524 609 479 653 c 128,-1,35
 434 697 434 697 349 697 c 2,36,-1
 133 697 l 1,37,-1
 133 398 l 1,28,-1
EndSplineSet
Validated: 1
EndChar

StartChar: C
Encoding: 38 67 38
Width: 770
GlyphClass: 2
Flags: W
LayerCount: 2
Fore
SplineSet
60 365 m 0,0,1
 60 465 60 465 110 550.5 c 128,-1,2
 160 636 160 636 245.5 686 c 128,-1,3
 331 736 331 736 432 736 c 0,4,5
 519 736 519 736 595 698.5 c 128,-1,6
 671 661 671 661 723 595 c 1,7,-1
 697 575 l 1,8,9
 650 635 650 635 580.5 669 c 128,-1,10
 511 703 511 703 432 703 c 0,11,12
 340 703 340 703 262 658 c 128,-1,13
 184 613 184 613 138.5 535.5 c 128,-1,14
 93 458 93 458 93 366 c 0,15,16
 93 272 93 272 138.5 194 c 128,-1,17
 184 116 184 116 262 70.5 c 128,-1,18
 340 25 340 25 432 25 c 0,19,20
 514 25 514 25 585.5 61.5 c 128,-1,21
 657 98 657 98 703 162 c 1,22,-1
 730 143 l 1,23,24
 679 73 679 73 600.5 32.5 c 128,-1,25
 522 -8 522 -8 432 -8 c 0,26,27
 331 -8 331 -8 245.5 42 c 128,-1,28
 160 92 160 92 110 178 c 128,-1,29
 60 264 60 264 60 365 c 0,0,1
EndSplineSet
Validated: 1
EndChar

StartChar: D
Encoding: 39 68 39
Width: 750
GlyphClass: 2
Flags: W
LayerCount: 2
Fore
SplineSet
100 0 m 1,0,-1
 100 730 l 1,1,-1
 307 730 l 2,2,3
 417 730 417 730 504.5 681 c 128,-1,4
 592 632 592 632 641 549 c 128,-1,5
 690 466 690 466 690 366 c 0,6,7
 690 265 690 265 643 181 c 128,-1,8
 596 97 596 97 509 48.5 c 128,-1,9
 422 0 422 0 307 0 c 2,10,-1
 100 0 l 1,0,-1
307 33 m 2,11,12
 414 33 414 33 493.5 78 c 128,-1,13
 573 123 573 123 615 199.5 c 128,-1,14
 657 276 657 276 657 368 c 0,15,16
 657 456 657 456 613 531.5 c 128,-1,17
 569 607 569 607 489 652 c 128,-1,18
 409 697 409 697 307 697 c 2,19,-1
 133 697 l 1,20,-1
 133 33 l 1,21,-1
 307 33 l 2,11,12
EndSplineSet
Validated: 1
EndChar

StartChar: E
Encoding: 40 69 40
Width: 606
GlyphClass: 2
Flags: W
LayerCount: 2
Fore
SplineSet
536 730 m 1,0,-1
 536 697 l 1,1,-1
 133 697 l 1,2,-1
 133 392 l 1,3,-1
 516 392 l 1,4,-1
 516 359 l 1,5,-1
 133 359 l 1,6,-1
 133 33 l 1,7,-1
 546 33 l 1,8,-1
 546 0 l 1,9,-1
 100 0 l 1,10,-1
 100 730 l 1,11,-1
 536 730 l 1,0,-1
EndSplineSet
Validated: 1
EndChar

StartChar: F
Encoding: 41 70 41
Width: 606
GlyphClass: 2
Flags: W
LayerCount: 2
Fore
SplineSet
556 730 m 1,0,-1
 556 697 l 1,1,-1
 133 697 l 1,2,-1
 133 392 l 1,3,-1
 536 392 l 1,4,-1
 536 359 l 1,5,-1
 133 359 l 1,6,-1
 133 0 l 1,7,-1
 100 0 l 1,8,-1
 100 730 l 1,9,-1
 556 730 l 1,0,-1
EndSplineSet
Validated: 1
EndChar

StartChar: G
Encoding: 42 71 42
Width: 853
GlyphClass: 2
Flags: W
LayerCount: 2
Fore
SplineSet
60 365 m 0,0,1
 60 465 60 465 110 550.5 c 128,-1,2
 160 636 160 636 245.5 686 c 128,-1,3
 331 736 331 736 432 736 c 0,4,5
 520 736 520 736 597 697 c 128,-1,6
 674 658 674 658 726 591 c 1,7,-1
 699 573 l 1,8,9
 652 633 652 633 582 668 c 128,-1,10
 512 703 512 703 432 703 c 0,11,12
 340 703 340 703 262 658 c 128,-1,13
 184 613 184 613 138.5 535.5 c 128,-1,14
 93 458 93 458 93 366 c 0,15,16
 93 272 93 272 138.5 194 c 128,-1,17
 184 116 184 116 262 70.5 c 128,-1,18
 340 25 340 25 432 25 c 0,19,20
 528 25 528 25 602 67.5 c 128,-1,21
 676 110 676 110 717.5 186.5 c 128,-1,22
 759 263 759 263 760 361 c 1,23,-1
 415 361 l 1,24,-1
 415 394 l 1,25,-1
 792 394 l 1,26,27
 793 385 793 385 793 365 c 0,28,29
 793 258 793 258 747.5 173 c 128,-1,30
 702 88 702 88 620 40 c 128,-1,31
 538 -8 538 -8 432 -8 c 0,32,33
 331 -8 331 -8 245.5 42 c 128,-1,34
 160 92 160 92 110 178 c 128,-1,35
 60 264 60 264 60 365 c 0,0,1
EndSplineSet
Validated: 1
Substitution2: "'ss01' Style Set 1 lookup 27 subtable" G.ss01
Substitution2: "'salt' Stylistic Alternatives lookup 26 subtable" G.ss01
Substitution2: "'aalt' Access All Alternates lookup 0 subtable" G.ss01
EndChar

StartChar: H
Encoding: 43 72 43
Width: 750
GlyphClass: 2
Flags: W
LayerCount: 2
Fore
SplineSet
133 730 m 1,0,-1
 133 383 l 1,1,-1
 617 383 l 1,2,-1
 617 730 l 1,3,-1
 650 730 l 1,4,-1
 650 0 l 1,5,-1
 617 0 l 1,6,-1
 617 350 l 1,7,-1
 133 350 l 1,8,-1
 133 0 l 1,9,-1
 100 0 l 1,10,-1
 100 730 l 1,11,-1
 133 730 l 1,0,-1
EndSplineSet
Validated: 1
EndChar

StartChar: I
Encoding: 44 73 44
Width: 233
GlyphClass: 2
Flags: W
LayerCount: 2
Fore
SplineSet
100 0 m 1,0,-1
 100 730 l 1,1,-1
 133 730 l 1,2,-1
 133 0 l 1,3,-1
 100 0 l 1,0,-1
EndSplineSet
Validated: 1
EndChar

StartChar: J
Encoding: 45 74 45
Width: 470
GlyphClass: 2
Flags: W
LayerCount: 2
Fore
SplineSet
60 64 m 1,0,1
 107 28 107 28 169 28 c 0,2,3
 248 28 248 28 297.5 82 c 128,-1,4
 347 136 347 136 347 226 c 2,5,-1
 347 730 l 1,6,-1
 380 730 l 1,7,-1
 380 226 l 2,8,9
 380 158 380 158 353 105.5 c 128,-1,10
 326 53 326 53 278 24 c 128,-1,11
 230 -5 230 -5 169 -5 c 0,12,13
 134 -5 134 -5 100.5 6 c 128,-1,14
 67 17 67 17 40 38 c 1,15,-1
 60 64 l 1,0,1
EndSplineSet
Validated: 1
EndChar

StartChar: K
Encoding: 46 75 46
Width: 660
GlyphClass: 2
Flags: W
LayerCount: 2
Fore
SplineSet
133 730 m 1,0,-1
 133 298 l 1,1,-1
 552 730 l 1,2,-1
 598 730 l 1,3,-1
 311 434 l 1,4,-1
 630 0 l 1,5,-1
 588 0 l 1,6,-1
 287 409 l 1,7,-1
 133 250 l 1,8,-1
 133 0 l 1,9,-1
 100 0 l 1,10,-1
 100 730 l 1,11,-1
 133 730 l 1,0,-1
EndSplineSet
Validated: 1
Substitution2: "'ss02' Style Set 2 lookup 28 subtable" K.ss02
Substitution2: "'aalt' Access All Alternates lookup 0 subtable" K.ss02
EndChar

StartChar: L
Encoding: 47 76 47
Width: 586
GlyphClass: 2
Flags: W
LayerCount: 2
Fore
SplineSet
100 0 m 1,0,-1
 100 730 l 1,1,-1
 133 730 l 1,2,-1
 133 33 l 1,3,-1
 556 33 l 1,4,-1
 556 0 l 1,5,-1
 100 0 l 1,0,-1
EndSplineSet
Validated: 1
EndChar

StartChar: M
Encoding: 48 77 48
Width: 950
GlyphClass: 2
Flags: W
LayerCount: 2
Fore
SplineSet
142 730 m 1,0,-1
 475 167 l 1,1,-1
 808 730 l 1,2,-1
 850 730 l 1,3,-1
 850 0 l 1,4,-1
 817 0 l 1,5,-1
 817 681 l 1,6,-1
 491 129 l 1,7,-1
 459 129 l 1,8,-1
 133 681 l 1,9,-1
 133 0 l 1,10,-1
 100 0 l 1,11,-1
 100 730 l 1,12,-1
 142 730 l 1,0,-1
EndSplineSet
Validated: 1
Substitution2: "'ss02' Style Set 2 lookup 28 subtable" M.ss02
Substitution2: "'ss01' Style Set 1 lookup 27 subtable" M.ss01
Substitution2: "'salt' Stylistic Alternatives lookup 26 subtable" M.ss01
AlternateSubs2: "'aalt' Access All Alternates lookup 1 subtable" M.ss01 M.ss02
EndChar

StartChar: N
Encoding: 49 78 49
Width: 800
GlyphClass: 2
Flags: W
LayerCount: 2
Fore
SplineSet
133 730 m 1,0,-1
 667 54 l 1,1,-1
 667 730 l 1,2,-1
 700 730 l 1,3,-1
 700 0 l 1,4,-1
 667 0 l 1,5,-1
 133 678 l 1,6,-1
 133 0 l 1,7,-1
 100 0 l 1,8,-1
 100 730 l 1,9,-1
 133 730 l 1,0,-1
EndSplineSet
Validated: 1
Substitution2: "'ss02' Style Set 2 lookup 28 subtable" N.ss02
Substitution2: "'aalt' Access All Alternates lookup 0 subtable" N.ss02
EndChar

StartChar: O
Encoding: 50 79 50
Width: 863
GlyphClass: 2
Flags: W
LayerCount: 2
Fore
SplineSet
60 365 m 0,0,1
 60 465 60 465 110 550.5 c 128,-1,2
 160 636 160 636 245.5 686 c 128,-1,3
 331 736 331 736 432 736 c 256,4,5
 533 736 533 736 618 686 c 128,-1,6
 703 636 703 636 753 550.5 c 128,-1,7
 803 465 803 465 803 365 c 0,8,9
 803 264 803 264 753 178 c 128,-1,10
 703 92 703 92 618 42 c 128,-1,11
 533 -8 533 -8 432 -8 c 256,12,13
 331 -8 331 -8 245.5 42 c 128,-1,14
 160 92 160 92 110 178 c 128,-1,15
 60 264 60 264 60 365 c 0,0,1
139 194 m 0,16,17
 184 116 184 116 262 70.5 c 128,-1,18
 340 25 340 25 432 25 c 256,19,20
 524 25 524 25 601.5 70.5 c 128,-1,21
 679 116 679 116 724.5 194 c 128,-1,22
 770 272 770 272 770 366 c 0,23,24
 770 458 770 458 724.5 535.5 c 128,-1,25
 679 613 679 613 601.5 658 c 128,-1,26
 524 703 524 703 432 703 c 256,27,28
 340 703 340 703 262 658 c 128,-1,29
 184 613 184 613 138.5 535.5 c 128,-1,30
 93 458 93 458 93 366 c 0,31,32
 93 272 93 272 139 194 c 0,16,17
EndSplineSet
Validated: 1
Substitution2: "Single Substitution lookup 4 subtable" ordmasculine
Substitution2: "'aalt' Access All Alternates lookup 0 subtable" ordmasculine
EndChar

StartChar: P
Encoding: 51 80 51
Width: 649
GlyphClass: 2
Flags: W
LayerCount: 2
Fore
SplineSet
373 730 m 2,0,1
 437 730 437 730 488.5 701 c 128,-1,2
 540 672 540 672 569.5 622.5 c 128,-1,3
 599 573 599 573 599 514 c 256,4,5
 599 455 599 455 569.5 405.5 c 128,-1,6
 540 356 540 356 488.5 327 c 128,-1,7
 437 298 437 298 373 298 c 2,8,-1
 133 298 l 1,9,-1
 133 0 l 1,10,-1
 100 0 l 1,11,-1
 100 730 l 1,12,-1
 373 730 l 2,0,1
133 331 m 1,13,-1
 373 331 l 2,14,15
 430 331 430 331 474 356.5 c 128,-1,16
 518 382 518 382 542 424 c 128,-1,17
 566 466 566 466 566 514 c 256,18,19
 566 562 566 562 542 604 c 128,-1,20
 518 646 518 646 474 671.5 c 128,-1,21
 430 697 430 697 373 697 c 2,22,-1
 133 697 l 1,23,-1
 133 331 l 1,13,-1
EndSplineSet
Validated: 1
EndChar

StartChar: Q
Encoding: 52 81 52
Width: 868
GlyphClass: 2
Flags: W
LayerCount: 2
Fore
SplineSet
110 551 m 0,0,1
 160 636 160 636 245.5 686 c 128,-1,2
 331 736 331 736 432 736 c 256,3,4
 533 736 533 736 618 686 c 128,-1,5
 703 636 703 636 753 550.5 c 128,-1,6
 803 465 803 465 803 365 c 0,7,8
 803 288 803 288 774 219.5 c 128,-1,9
 745 151 745 151 693 100 c 1,10,-1
 768 13 l 1,11,-1
 744 -9 l 1,12,-1
 669 78 l 1,13,14
 620 37 620 37 559.5 14.5 c 128,-1,15
 499 -8 499 -8 432 -8 c 0,16,17
 331 -8 331 -8 245.5 42 c 128,-1,18
 160 92 160 92 110 178 c 128,-1,19
 60 264 60 264 60 365 c 0,20,21
 60 465 60 465 110 551 c 0,0,1
93 366 m 0,22,23
 93 272 93 272 138.5 194 c 128,-1,24
 184 116 184 116 262 70.5 c 128,-1,25
 340 25 340 25 432 25 c 0,26,27
 493 25 493 25 548 45.5 c 128,-1,28
 603 66 603 66 647 103 c 1,29,-1
 565 198 l 1,30,-1
 590 219 l 1,31,-1
 672 125 l 1,32,33
 718 172 718 172 744 234 c 128,-1,34
 770 296 770 296 770 366 c 0,35,36
 770 458 770 458 724.5 535.5 c 128,-1,37
 679 613 679 613 601.5 658 c 128,-1,38
 524 703 524 703 432 703 c 256,39,40
 340 703 340 703 262 658 c 128,-1,41
 184 613 184 613 138.5 535.5 c 128,-1,42
 93 458 93 458 93 366 c 0,22,23
EndSplineSet
Validated: 1
Substitution2: "'ss01' Style Set 1 lookup 27 subtable" Q.ss01
Substitution2: "'salt' Stylistic Alternatives lookup 26 subtable" Q.ss01
Substitution2: "'aalt' Access All Alternates lookup 0 subtable" Q.ss01
EndChar

StartChar: R
Encoding: 53 82 53
Width: 648
GlyphClass: 2
Flags: W
LayerCount: 2
Fore
SplineSet
100 0 m 1,0,-1
 100 730 l 1,1,-1
 373 730 l 2,2,3
 437 730 437 730 488.5 701 c 128,-1,4
 540 672 540 672 569.5 622.5 c 128,-1,5
 599 573 599 573 599 514 c 0,6,7
 599 459 599 459 573 411.5 c 128,-1,8
 547 364 547 364 501 334 c 128,-1,9
 455 304 455 304 396 299 c 1,10,-1
 608 0 l 1,11,-1
 565 0 l 1,12,-1
 354 298 l 1,13,-1
 133 298 l 1,14,-1
 133 0 l 1,15,-1
 100 0 l 1,0,-1
373 331 m 2,16,17
 430 331 430 331 474 356.5 c 128,-1,18
 518 382 518 382 542 424 c 128,-1,19
 566 466 566 466 566 514 c 256,20,21
 566 562 566 562 542 604 c 128,-1,22
 518 646 518 646 474 671.5 c 128,-1,23
 430 697 430 697 373 697 c 2,24,-1
 133 697 l 1,25,-1
 133 331 l 1,26,-1
 373 331 l 2,16,17
EndSplineSet
Validated: 1
Substitution2: "'ss02' Style Set 2 lookup 28 subtable" R.ss02
Substitution2: "'aalt' Access All Alternates lookup 0 subtable" R.ss02
EndChar

StartChar: S
Encoding: 54 83 54
Width: 610
GlyphClass: 2
Flags: W
LayerCount: 2
Fore
SplineSet
78 127 m 1,0,1
 125 80 125 80 183 54 c 128,-1,2
 241 28 241 28 314 27 c 0,3,4
 316 27 316 27 318 27 c 0,5,6
 406 27 406 27 464 70.5 c 128,-1,7
 522 114 522 114 522 190 c 0,8,9
 522 245 522 245 492 280 c 128,-1,10
 462 315 462 315 417.5 334 c 128,-1,11
 373 353 373 353 299 376 c 0,12,13
 224 398 224 398 177.5 418.5 c 128,-1,14
 131 439 131 439 99.5 476 c 128,-1,15
 68 513 68 513 68 572 c 0,16,17
 68 618 68 618 94.5 656 c 128,-1,18
 121 694 121 694 173 716.5 c 128,-1,19
 225 739 225 739 297 739 c 0,20,21
 360 739 360 739 426.5 711 c 128,-1,22
 493 683 493 683 535 623 c 1,23,-1
 509 603 l 1,24,25
 477 649 477 649 420 677 c 128,-1,26
 363 705 363 705 301 706 c 0,27,28
 241 706 241 706 195.5 689 c 128,-1,29
 150 672 150 672 125.5 641.5 c 128,-1,30
 101 611 101 611 101 572 c 0,31,32
 101 524 101 524 128.5 494 c 128,-1,33
 156 464 156 464 196.5 446.5 c 128,-1,34
 237 429 237 429 309 407 c 0,35,36
 390 383 390 383 438.5 361 c 128,-1,37
 487 339 487 339 521 298 c 128,-1,38
 555 257 555 257 555 190 c 0,39,40
 555 128 555 128 523 83.5 c 128,-1,41
 491 39 491 39 436.5 16.5 c 128,-1,42
 382 -6 382 -6 318 -6 c 0,43,44
 315 -6 315 -6 312 -6 c 0,45,46
 241 -5 241 -5 177 20.5 c 128,-1,47
 113 46 113 46 55 104 c 1,48,-1
 78 127 l 1,0,1
EndSplineSet
Validated: 1
EndChar

StartChar: T
Encoding: 55 84 55
Width: 594
GlyphClass: 2
Flags: W
LayerCount: 2
Fore
SplineSet
30 730 m 1,0,-1
 564 730 l 1,1,-1
 564 697 l 1,2,-1
 314 697 l 1,3,-1
 314 0 l 1,4,-1
 281 0 l 1,5,-1
 281 697 l 1,6,-1
 30 697 l 1,7,-1
 30 730 l 1,0,-1
EndSplineSet
Validated: 1
EndChar

StartChar: U
Encoding: 56 85 56
Width: 730
GlyphClass: 2
Flags: W
LayerCount: 2
Fore
SplineSet
123 730 m 1,0,-1
 123 280 l 2,1,2
 123 198 123 198 154.5 141 c 128,-1,3
 186 84 186 84 239.5 55.5 c 128,-1,4
 293 27 293 27 361 27 c 0,5,6
 430 27 430 27 485.5 55.5 c 128,-1,7
 541 84 541 84 574 141 c 128,-1,8
 607 198 607 198 607 280 c 2,9,-1
 607 730 l 1,10,-1
 640 730 l 1,11,-1
 640 279 l 2,12,13
 640 191 640 191 603.5 126.5 c 128,-1,14
 567 62 567 62 504.5 28 c 128,-1,15
 442 -6 442 -6 366 -6 c 0,16,17
 288 -6 288 -6 225.5 28 c 128,-1,18
 163 62 163 62 126.5 126.5 c 128,-1,19
 90 191 90 191 90 279 c 2,20,-1
 90 730 l 1,21,-1
 123 730 l 1,0,-1
EndSplineSet
Validated: 1
EndChar

StartChar: V
Encoding: 57 86 57
Width: 660
GlyphClass: 2
Flags: W
LayerCount: 2
Fore
SplineSet
20 730 m 1,0,-1
 56 730 l 1,1,-1
 330 43 l 1,2,-1
 605 730 l 1,3,-1
 640 730 l 1,4,-1
 349 0 l 1,5,-1
 311 0 l 1,6,-1
 20 730 l 1,0,-1
EndSplineSet
Validated: 1
Substitution2: "'ss02' Style Set 2 lookup 28 subtable" V.ss02
Substitution2: "'aalt' Access All Alternates lookup 0 subtable" V.ss02
EndChar

StartChar: W
Encoding: 58 87 58
Width: 1013
GlyphClass: 2
Flags: W
LayerCount: 2
Fore
SplineSet
30 730 m 1,0,-1
 65 730 l 1,1,-1
 281 56 l 1,2,-1
 489 730 l 1,3,-1
 524 730 l 1,4,-1
 732 56 l 1,5,-1
 948 730 l 1,6,-1
 983 730 l 1,7,-1
 749 0 l 1,8,-1
 714 0 l 1,9,-1
 507 673 l 1,10,-1
 299 0 l 1,11,-1
 264 0 l 1,12,-1
 30 730 l 1,0,-1
EndSplineSet
Validated: 1
Substitution2: "'ss02' Style Set 2 lookup 28 subtable" W.ss02
Substitution2: "'ss01' Style Set 1 lookup 27 subtable" W.ss01
Substitution2: "'salt' Stylistic Alternatives lookup 26 subtable" W.ss01
AlternateSubs2: "'aalt' Access All Alternates lookup 1 subtable" W.ss01 W.ss02
EndChar

StartChar: X
Encoding: 59 88 59
Width: 649
GlyphClass: 2
Flags: W
LayerCount: 2
Fore
SplineSet
30 0 m 1,0,-1
 303 372 l 1,1,-1
 40 730 l 1,2,-1
 81 730 l 1,3,-1
 325 400 l 1,4,-1
 568 730 l 1,5,-1
 609 730 l 1,6,-1
 346 372 l 1,7,-1
 619 0 l 1,8,-1
 578 0 l 1,9,-1
 325 344 l 1,10,-1
 71 0 l 1,11,-1
 30 0 l 1,0,-1
EndSplineSet
Validated: 1
EndChar

StartChar: Y
Encoding: 60 89 60
Width: 640
GlyphClass: 2
Flags: W
LayerCount: 2
Fore
SplineSet
61 730 m 1,0,-1
 320 359 l 1,1,-1
 579 730 l 1,2,-1
 620 730 l 1,3,-1
 336 324 l 1,4,-1
 336 0 l 1,5,-1
 303 0 l 1,6,-1
 303 326 l 1,7,-1
 20 730 l 1,8,-1
 61 730 l 1,0,-1
EndSplineSet
Validated: 1
EndChar

StartChar: Z
Encoding: 61 90 61
Width: 641
GlyphClass: 2
Flags: W
LayerCount: 2
Fore
SplineSet
50 0 m 1,0,-1
 50 33 l 1,1,-1
 539 697 l 1,2,-1
 60 697 l 1,3,-1
 60 730 l 1,4,-1
 581 730 l 1,5,-1
 581 697 l 1,6,-1
 91 33 l 1,7,-1
 591 33 l 1,8,-1
 591 0 l 1,9,-1
 50 0 l 1,0,-1
EndSplineSet
Validated: 1
Substitution2: "'ss02' Style Set 2 lookup 28 subtable" Z.ss02
Substitution2: "'aalt' Access All Alternates lookup 0 subtable" Z.ss02
EndChar

StartChar: bracketleft
Encoding: 62 91 62
Width: 295
GlyphClass: 2
Flags: W
LayerCount: 2
Fore
SplineSet
275 780 m 1,0,-1
 275 747 l 1,1,-1
 123 747 l 1,2,-1
 123 -77 l 1,3,-1
 275 -77 l 1,4,-1
 275 -110 l 1,5,-1
 90 -110 l 1,6,-1
 90 780 l 1,7,-1
 275 780 l 1,0,-1
EndSplineSet
Validated: 1
EndChar

StartChar: backslash
Encoding: 63 92 63
Width: 470
GlyphClass: 2
Flags: W
LayerCount: 2
Fore
SplineSet
394 -110 m 1,0,-1
 40 781 l 1,1,-1
 76 781 l 1,2,-1
 430 -110 l 1,3,-1
 394 -110 l 1,0,-1
EndSplineSet
Validated: 1
EndChar

StartChar: bracketright
Encoding: 64 93 64
Width: 295
GlyphClass: 2
Flags: W
LayerCount: 2
Fore
SplineSet
205 780 m 1,0,-1
 205 -110 l 1,1,-1
 20 -110 l 1,2,-1
 20 -77 l 1,3,-1
 172 -77 l 1,4,-1
 172 747 l 1,5,-1
 20 747 l 1,6,-1
 20 780 l 1,7,-1
 205 780 l 1,0,-1
EndSplineSet
Validated: 1
EndChar

StartChar: asciicircum
Encoding: 65 94 65
Width: 440
GlyphClass: 2
Flags: W
LayerCount: 2
Fore
SplineSet
20 430 m 1,0,-1
 201 730 l 1,1,-1
 239 730 l 1,2,-1
 420 430 l 1,3,-1
 381 430 l 1,4,-1
 220 698 l 1,5,-1
 59 430 l 1,6,-1
 20 430 l 1,0,-1
EndSplineSet
Validated: 1
EndChar

StartChar: underscore
Encoding: 66 95 66
Width: 550
GlyphClass: 2
Flags: W
LayerCount: 2
Fore
SplineSet
60 0 m 1,0,-1
 60 33 l 1,1,-1
 489 33 l 1,2,-1
 490 0 l 1,3,-1
 60 0 l 1,0,-1
EndSplineSet
Validated: 1
EndChar

StartChar: grave
Encoding: 67 96 67
Width: 220
GlyphClass: 2
Flags: W
LayerCount: 2
Fore
SplineSet
130 582 m 1,0,-1
 60 730 l 1,1,-1
 95 730 l 1,2,-1
 160 582 l 1,3,-1
 130 582 l 1,0,-1
EndSplineSet
Validated: 1
EndChar

StartChar: a
Encoding: 68 97 68
Width: 701
GlyphClass: 2
Flags: W
LayerCount: 2
Fore
SplineSet
50 274 m 256,0,1
 50 350 50 350 88 414.5 c 128,-1,2
 126 479 126 479 190 517 c 128,-1,3
 254 555 254 555 330 555 c 0,4,5
 412 555 412 555 481.5 510 c 128,-1,6
 551 465 551 465 578 397 c 1,7,-1
 578 550 l 1,8,-1
 611 550 l 1,9,-1
 611 0 l 1,10,-1
 578 0 l 1,11,-1
 578 149 l 1,12,13
 551 83 551 83 481.5 38.5 c 128,-1,14
 412 -6 412 -6 330 -6 c 0,15,16
 254 -6 254 -6 190 31.5 c 128,-1,17
 126 69 126 69 88 133.5 c 128,-1,18
 50 198 50 198 50 274 c 256,0,1
117 151 m 0,19,20
 150 94 150 94 207 60.5 c 128,-1,21
 264 27 264 27 330 27 c 0,22,23
 397 27 397 27 454 60.5 c 128,-1,24
 511 94 511 94 544.5 150.5 c 128,-1,25
 578 207 578 207 578 274 c 256,26,27
 578 341 578 341 544.5 398 c 128,-1,28
 511 455 511 455 454 488.5 c 128,-1,29
 397 522 397 522 330 522 c 0,30,31
 264 522 264 522 207 488.5 c 128,-1,32
 150 455 150 455 116.5 398 c 128,-1,33
 83 341 83 341 83 274 c 256,34,35
 83 207 83 207 117 151 c 0,19,20
EndSplineSet
Validated: 1
Substitution2: "'ss02' Style Set 2 lookup 28 subtable" a.ss02
Substitution2: "'ss01' Style Set 1 lookup 27 subtable" a.ss01
Substitution2: "'salt' Stylistic Alternatives lookup 26 subtable" a.ss01
Substitution2: "Single Substitution lookup 4 subtable" ordfeminine
AlternateSubs2: "'aalt' Access All Alternates lookup 1 subtable" ordfeminine a.ss01 a.ss02
EndChar

StartChar: b
Encoding: 69 98 69
Width: 701
GlyphClass: 2
Flags: W
LayerCount: 2
Fore
SplineSet
90 0 m 1,0,-1
 90 780 l 1,1,-1
 123 780 l 1,2,-1
 123 397 l 1,3,4
 150 465 150 465 219.5 510 c 128,-1,5
 289 555 289 555 371 555 c 0,6,7
 447 555 447 555 511 517 c 128,-1,8
 575 479 575 479 613 414.5 c 128,-1,9
 651 350 651 350 651 274 c 256,10,11
 651 198 651 198 613 133.5 c 128,-1,12
 575 69 575 69 511 31.5 c 128,-1,13
 447 -6 447 -6 371 -6 c 0,14,15
 289 -6 289 -6 219.5 38.5 c 128,-1,16
 150 83 150 83 123 149 c 1,17,-1
 123 0 l 1,18,-1
 90 0 l 1,0,-1
123 274 m 256,19,20
 123 207 123 207 156.5 150.5 c 128,-1,21
 190 94 190 94 247 60.5 c 128,-1,22
 304 27 304 27 371 27 c 0,23,24
 437 27 437 27 494 60.5 c 128,-1,25
 551 94 551 94 584.5 150.5 c 128,-1,26
 618 207 618 207 618 274 c 256,27,28
 618 341 618 341 584.5 398 c 128,-1,29
 551 455 551 455 494 488.5 c 128,-1,30
 437 522 437 522 371 522 c 0,31,32
 304 522 304 522 247 488.5 c 128,-1,33
 190 455 190 455 156.5 398 c 128,-1,34
 123 341 123 341 123 274 c 256,19,20
EndSplineSet
Validated: 1
EndChar

StartChar: c
Encoding: 70 99 70
Width: 612
GlyphClass: 2
Flags: W
LayerCount: 2
Fore
SplineSet
50 276 m 256,0,1
 50 352 50 352 87.5 416.5 c 128,-1,2
 125 481 125 481 189.5 518.5 c 128,-1,3
 254 556 254 556 331 556 c 0,4,5
 400 556 400 556 460.5 524 c 128,-1,6
 521 492 521 492 560 437 c 1,7,-1
 532 418 l 1,8,9
 498 467 498 467 445 495 c 128,-1,10
 392 523 392 523 331 523 c 0,11,12
 264 523 264 523 207 489.5 c 128,-1,13
 150 456 150 456 116.5 399.5 c 128,-1,14
 83 343 83 343 83 276 c 256,15,16
 83 209 83 209 116.5 152 c 128,-1,17
 150 95 150 95 207 61.5 c 128,-1,18
 264 28 264 28 331 28 c 0,19,20
 393 28 393 28 446.5 57 c 128,-1,21
 500 86 500 86 534 136 c 1,22,-1
 562 118 l 1,23,24
 524 61 524 61 463 28 c 128,-1,25
 402 -5 402 -5 331 -5 c 0,26,27
 254 -5 254 -5 189.5 33 c 128,-1,28
 125 71 125 71 87.5 135.5 c 128,-1,29
 50 200 50 200 50 276 c 256,0,1
EndSplineSet
Validated: 1
EndChar

StartChar: d
Encoding: 71 100 71
Width: 701
GlyphClass: 2
Flags: W
LayerCount: 2
Fore
SplineSet
50 274 m 256,0,1
 50 350 50 350 88 414.5 c 128,-1,2
 126 479 126 479 190 517 c 128,-1,3
 254 555 254 555 330 555 c 0,4,5
 412 555 412 555 481.5 510 c 128,-1,6
 551 465 551 465 578 397 c 1,7,-1
 578 780 l 1,8,-1
 611 780 l 1,9,-1
 611 0 l 1,10,-1
 578 0 l 1,11,-1
 578 149 l 1,12,13
 551 83 551 83 481.5 38.5 c 128,-1,14
 412 -6 412 -6 330 -6 c 0,15,16
 254 -6 254 -6 190 31.5 c 128,-1,17
 126 69 126 69 88 133.5 c 128,-1,18
 50 198 50 198 50 274 c 256,0,1
117 151 m 0,19,20
 150 94 150 94 207 60.5 c 128,-1,21
 264 27 264 27 330 27 c 0,22,23
 397 27 397 27 454 60.5 c 128,-1,24
 511 94 511 94 544.5 150.5 c 128,-1,25
 578 207 578 207 578 274 c 256,26,27
 578 341 578 341 544.5 398 c 128,-1,28
 511 455 511 455 454 488.5 c 128,-1,29
 397 522 397 522 330 522 c 0,30,31
 264 522 264 522 207 488.5 c 128,-1,32
 150 455 150 455 116.5 398 c 128,-1,33
 83 341 83 341 83 274 c 256,34,35
 83 207 83 207 117 151 c 0,19,20
EndSplineSet
Validated: 1
Substitution2: "'ss01' Style Set 1 lookup 27 subtable" d.ss01
Substitution2: "'salt' Stylistic Alternatives lookup 26 subtable" d.ss01
Substitution2: "'aalt' Access All Alternates lookup 0 subtable" d.ss01
EndChar

StartChar: e
Encoding: 72 101 72
Width: 651
GlyphClass: 2
Flags: W
LayerCount: 2
Fore
SplineSet
50 276 m 256,0,1
 50 352 50 352 87 416.5 c 128,-1,2
 124 481 124 481 187.5 518.5 c 128,-1,3
 251 556 251 556 326 556 c 0,4,5
 405 556 405 556 467.5 518.5 c 128,-1,6
 530 481 530 481 565.5 417 c 128,-1,7
 601 353 601 353 601 276 c 0,8,9
 601 265 601 265 599 245 c 1,10,-1
 85 245 l 1,11,12
 93 185 93 185 128.5 135 c 128,-1,13
 164 85 164 85 219 56.5 c 128,-1,14
 274 28 274 28 337 28 c 0,15,16
 398 28 398 28 452 55.5 c 128,-1,17
 506 83 506 83 540 130 c 1,18,-1
 569 113 l 1,19,20
 530 59 530 59 469 27 c 128,-1,21
 408 -5 408 -5 337 -5 c 0,22,23
 259 -5 259 -5 193 33 c 128,-1,24
 127 71 127 71 88.5 135.5 c 128,-1,25
 50 200 50 200 50 276 c 256,0,1
568 278 m 1,26,27
 568 345 568 345 536.5 401 c 128,-1,28
 505 457 505 457 450 490 c 128,-1,29
 395 523 395 523 326 523 c 0,30,31
 261 523 261 523 205 490 c 128,-1,32
 149 457 149 457 116 400.5 c 128,-1,33
 83 344 83 344 83 278 c 1,34,-1
 568 278 l 1,26,27
EndSplineSet
Validated: 1
EndChar

StartChar: f
Encoding: 73 102 73
Width: 316
GlyphClass: 2
Flags: W
LayerCount: 2
Fore
SplineSet
30 550 m 1,0,-1
 100 550 l 1,1,-1
 100 580 l 2,2,3
 100 657 100 657 120 704 c 128,-1,4
 140 751 140 751 175 771 c 128,-1,5
 210 791 210 791 258 791 c 0,6,7
 278 791 278 791 306 784 c 1,8,-1
 296 753 l 1,9,10
 294 754 294 754 291.5 754 c 128,-1,11
 289 754 289 754 286 755 c 0,12,13
 271 758 271 758 258 758 c 0,14,15
 198 758 198 758 165.5 719 c 128,-1,16
 133 680 133 680 133 580 c 2,17,-1
 133 550 l 1,18,-1
 294 550 l 1,19,-1
 294 517 l 1,20,-1
 133 517 l 1,21,-1
 133 -1 l 1,22,-1
 100 0 l 1,23,-1
 100 517 l 1,24,-1
 30 517 l 1,25,-1
 30 550 l 1,0,-1
EndSplineSet
Validated: 1
EndChar

StartChar: g
Encoding: 74 103 74
Width: 701
GlyphClass: 2
Flags: W
LayerCount: 2
Fore
SplineSet
88 415 m 0,0,1
 126 479 126 479 190 517 c 128,-1,2
 254 555 254 555 330 555 c 0,3,4
 412 555 412 555 481.5 510 c 128,-1,5
 551 465 551 465 578 397 c 1,6,-1
 578 550 l 1,7,-1
 611 550 l 1,8,-1
 611 85 l 2,9,10
 611 -18 611 -18 572.5 -87.5 c 128,-1,11
 534 -157 534 -157 468.5 -190.5 c 128,-1,12
 403 -224 403 -224 320 -224 c 0,13,14
 250 -224 250 -224 189.5 -195 c 128,-1,15
 129 -166 129 -166 90 -116 c 1,16,-1
 116 -96 l 1,17,18
 150 -140 150 -140 204.5 -165.5 c 128,-1,19
 259 -191 259 -191 320 -191 c 0,20,21
 394 -191 394 -191 452 -162 c 128,-1,22
 510 -133 510 -133 544 -71.5 c 128,-1,23
 578 -10 578 -10 578 85 c 2,24,-1
 578 149 l 1,25,26
 551 83 551 83 481.5 38.5 c 128,-1,27
 412 -6 412 -6 330 -6 c 0,28,29
 254 -6 254 -6 190 31.5 c 128,-1,30
 126 69 126 69 88 133.5 c 128,-1,31
 50 198 50 198 50 274 c 256,32,33
 50 350 50 350 88 415 c 0,0,1
117 151 m 0,34,35
 150 94 150 94 207 60.5 c 128,-1,36
 264 27 264 27 330 27 c 0,37,38
 397 27 397 27 454 60.5 c 128,-1,39
 511 94 511 94 544.5 150.5 c 128,-1,40
 578 207 578 207 578 274 c 256,41,42
 578 341 578 341 544.5 398 c 128,-1,43
 511 455 511 455 454 488.5 c 128,-1,44
 397 522 397 522 330 522 c 0,45,46
 264 522 264 522 207 488.5 c 128,-1,47
 150 455 150 455 116.5 398 c 128,-1,48
 83 341 83 341 83 274 c 256,49,50
 83 207 83 207 117 151 c 0,34,35
EndSplineSet
Validated: 1
Substitution2: "'ss01' Style Set 1 lookup 27 subtable" g.ss01
Substitution2: "'salt' Stylistic Alternatives lookup 26 subtable" g.ss01
Substitution2: "'aalt' Access All Alternates lookup 0 subtable" g.ss01
EndChar

StartChar: h
Encoding: 75 104 75
Width: 637
GlyphClass: 2
Flags: W
LayerCount: 2
Fore
SplineSet
90 780 m 1,0,-1
 123 780 l 1,1,-1
 123 427 l 1,2,3
 147 483 147 483 199.5 519 c 128,-1,4
 252 555 252 555 326 555 c 0,5,6
 393 555 393 555 446.5 523.5 c 128,-1,7
 500 492 500 492 531 429.5 c 128,-1,8
 562 367 562 367 562 278 c 2,9,-1
 562 0 l 1,10,-1
 529 0 l 1,11,-1
 529 278 l 2,12,13
 529 359 529 359 502 413.5 c 128,-1,14
 475 468 475 468 429.5 495 c 128,-1,15
 384 522 384 522 326 522 c 256,16,17
 268 522 268 522 222.5 495 c 128,-1,18
 177 468 177 468 150 413.5 c 128,-1,19
 123 359 123 359 123 278 c 2,20,-1
 123 0 l 1,21,-1
 90 0 l 1,22,-1
 90 780 l 1,0,-1
EndSplineSet
Validated: 1
EndChar

StartChar: i
Encoding: 76 105 76
Width: 213
GlyphClass: 2
Flags: W
LayerCount: 2
Fore
SplineSet
123 550 m 1,0,-1
 123 0 l 1,1,-1
 90 0 l 1,2,-1
 90 550 l 1,3,-1
 123 550 l 1,0,-1
84 681 m 0,4,5
 94 690 94 690 107 690 c 256,6,7
 120 690 120 690 129.5 680 c 128,-1,8
 139 670 139 670 139 657 c 256,9,10
 139 644 139 644 129.5 634 c 128,-1,11
 120 624 120 624 107 624 c 256,12,13
 94 624 94 624 84 634 c 128,-1,14
 74 644 74 644 74 657 c 0,15,16
 74 671 74 671 84 681 c 0,4,5
EndSplineSet
Validated: 1
Substitution2: "'locl' Localized Forms in Latin lookup 8 subtable" i.loclTRK
Substitution2: "Single Substitution lookup 2 subtable" dotlessi
Substitution2: "'aalt' Access All Alternates lookup 0 subtable" i.loclTRK
EndChar

StartChar: j
Encoding: 77 106 77
Width: 232
GlyphClass: 2
Flags: W
LayerCount: 2
Fore
SplineSet
-59 -186 m 1,0,1
 -38 -195 -38 -195 -13 -195 c 0,2,3
 46 -195 46 -195 77.5 -154.5 c 128,-1,4
 109 -114 109 -114 109 -33 c 2,5,-1
 109 550 l 1,6,-1
 142 550 l 1,7,-1
 142 -33 l 2,8,9
 142 -129 142 -129 100 -178.5 c 128,-1,10
 58 -228 58 -228 -13 -228 c 0,11,12
 -43 -228 -43 -228 -70 -217 c 1,13,-1
 -59 -186 l 1,0,1
93 657 m 0,14,15
 93 671 93 671 103 680.5 c 128,-1,16
 113 690 113 690 126 690 c 256,17,18
 139 690 139 690 148.5 680 c 128,-1,19
 158 670 158 670 158 657 c 256,20,21
 158 644 158 644 148.5 634 c 128,-1,22
 139 624 139 624 126 624 c 256,23,24
 113 624 113 624 103 634 c 128,-1,25
 93 644 93 644 93 657 c 0,14,15
EndSplineSet
Validated: 1
Substitution2: "Single Substitution lookup 2 subtable" uni0237
EndChar

StartChar: k
Encoding: 78 107 78
Width: 565
GlyphClass: 2
Flags: W
LayerCount: 2
Fore
SplineSet
123 780 m 1,0,-1
 123 237 l 1,1,-1
 449 550 l 1,2,-1
 497 550 l 1,3,-1
 277 338 l 1,4,-1
 535 0 l 1,5,-1
 493 0 l 1,6,-1
 253 315 l 1,7,-1
 123 191 l 1,8,-1
 123 0 l 1,9,-1
 90 0 l 1,10,-1
 90 780 l 1,11,-1
 123 780 l 1,0,-1
EndSplineSet
Validated: 1
Substitution2: "'ss02' Style Set 2 lookup 28 subtable" k.ss02
Substitution2: "'aalt' Access All Alternates lookup 0 subtable" k.ss02
EndChar

StartChar: l
Encoding: 79 108 79
Width: 213
GlyphClass: 2
Flags: W
LayerCount: 2
Fore
SplineSet
90 0 m 1,0,-1
 90 780 l 1,1,-1
 123 780 l 1,2,-1
 123 0 l 1,3,-1
 90 0 l 1,0,-1
EndSplineSet
Validated: 1
Substitution2: "'ss01' Style Set 1 lookup 27 subtable" l.ss01
Substitution2: "'salt' Stylistic Alternatives lookup 26 subtable" l.ss01
Substitution2: "'aalt' Access All Alternates lookup 0 subtable" l.ss01
EndChar

StartChar: m
Encoding: 80 109 80
Width: 916
GlyphClass: 2
Flags: W
LayerCount: 2
Fore
SplineSet
90 550 m 1,0,-1
 123 550 l 1,1,-1
 123 437 l 1,2,3
 142 493 142 493 188 524 c 128,-1,4
 234 555 234 555 286 555 c 0,5,6
 360 555 360 555 406.5 514 c 128,-1,7
 453 473 453 473 467 409 c 1,8,9
 481 472 481 472 528 513.5 c 128,-1,10
 575 555 575 555 645 555 c 0,11,12
 732 555 732 555 786.5 492 c 128,-1,13
 841 429 841 429 841 298 c 2,14,-1
 841 0 l 1,15,-1
 808 0 l 1,16,-1
 808 298 l 2,17,18
 808 416 808 416 763 469 c 128,-1,19
 718 522 718 522 645 522 c 0,20,21
 575 522 575 522 528.5 468 c 128,-1,22
 482 414 482 414 482 298 c 2,23,-1
 482 0 l 1,24,-1
 449 0 l 1,25,-1
 449 298 l 2,26,27
 449 416 449 416 404 469 c 128,-1,28
 359 522 359 522 286 522 c 0,29,30
 240 522 240 522 203 495 c 128,-1,31
 166 468 166 468 144.5 413 c 128,-1,32
 123 358 123 358 123 278 c 2,33,-1
 123 0 l 1,34,-1
 90 0 l 1,35,-1
 90 550 l 1,0,-1
EndSplineSet
Validated: 1
Substitution2: "'ss01' Style Set 1 lookup 27 subtable" m.ss01
Substitution2: "'salt' Stylistic Alternatives lookup 26 subtable" m.ss01
Substitution2: "'aalt' Access All Alternates lookup 0 subtable" m.ss01
EndChar

StartChar: n
Encoding: 81 110 81
Width: 637
GlyphClass: 2
Flags: W
LayerCount: 2
Fore
SplineSet
90 550 m 1,0,-1
 123 550 l 1,1,-1
 123 427 l 1,2,3
 147 483 147 483 199.5 519 c 128,-1,4
 252 555 252 555 326 555 c 0,5,6
 393 555 393 555 446.5 523.5 c 128,-1,7
 500 492 500 492 531 429.5 c 128,-1,8
 562 367 562 367 562 278 c 2,9,-1
 562 0 l 1,10,-1
 529 0 l 1,11,-1
 529 278 l 2,12,13
 529 359 529 359 502 413.5 c 128,-1,14
 475 468 475 468 429.5 495 c 128,-1,15
 384 522 384 522 326 522 c 256,16,17
 268 522 268 522 222.5 495 c 128,-1,18
 177 468 177 468 150 413.5 c 128,-1,19
 123 359 123 359 123 278 c 2,20,-1
 123 0 l 1,21,-1
 90 0 l 1,22,-1
 90 550 l 1,0,-1
EndSplineSet
Validated: 1
Substitution2: "'ss01' Style Set 1 lookup 27 subtable" n.ss01
Substitution2: "'salt' Stylistic Alternatives lookup 26 subtable" n.ss01
Substitution2: "'aalt' Access All Alternates lookup 0 subtable" n.ss01
EndChar

StartChar: o
Encoding: 82 111 82
Width: 661
GlyphClass: 2
Flags: W
LayerCount: 2
Fore
SplineSet
50 276 m 256,0,1
 50 352 50 352 87.5 416.5 c 128,-1,2
 125 481 125 481 189.5 518.5 c 128,-1,3
 254 556 254 556 331 556 c 0,4,5
 407 556 407 556 471 518.5 c 128,-1,6
 535 481 535 481 573 416.5 c 128,-1,7
 611 352 611 352 611 276 c 256,8,9
 611 200 611 200 573 135.5 c 128,-1,10
 535 71 535 71 471 33 c 128,-1,11
 407 -5 407 -5 331 -5 c 0,12,13
 254 -5 254 -5 189.5 33 c 128,-1,14
 125 71 125 71 87.5 135.5 c 128,-1,15
 50 200 50 200 50 276 c 256,0,1
117 152 m 0,16,17
 150 95 150 95 207 61.5 c 128,-1,18
 264 28 264 28 331 28 c 0,19,20
 397 28 397 28 454 61.5 c 128,-1,21
 511 95 511 95 544.5 152 c 128,-1,22
 578 209 578 209 578 276 c 256,23,24
 578 343 578 343 544.5 399.5 c 128,-1,25
 511 456 511 456 454 489.5 c 128,-1,26
 397 523 397 523 331 523 c 0,27,28
 264 523 264 523 207 489.5 c 128,-1,29
 150 456 150 456 116.5 399.5 c 128,-1,30
 83 343 83 343 83 276 c 256,31,32
 83 209 83 209 117 152 c 0,16,17
EndSplineSet
Validated: 1
Substitution2: "Single Substitution lookup 4 subtable" ordmasculine
Substitution2: "'aalt' Access All Alternates lookup 0 subtable" ordmasculine
EndChar

StartChar: p
Encoding: 83 112 83
Width: 701
GlyphClass: 2
Flags: W
LayerCount: 2
Fore
SplineSet
123 550 m 1,0,-1
 123 401 l 1,1,2
 150 467 150 467 219.5 511.5 c 128,-1,3
 289 556 289 556 371 556 c 0,4,5
 447 556 447 556 511 518.5 c 128,-1,6
 575 481 575 481 613 416.5 c 128,-1,7
 651 352 651 352 651 276 c 256,8,9
 651 200 651 200 613 135.5 c 128,-1,10
 575 71 575 71 511 33 c 128,-1,11
 447 -5 447 -5 371 -5 c 0,12,13
 289 -5 289 -5 219.5 40 c 128,-1,14
 150 85 150 85 123 153 c 1,15,-1
 123 -220 l 1,16,-1
 90 -220 l 1,17,-1
 90 550 l 1,18,-1
 123 550 l 1,0,-1
123 276 m 256,19,20
 123 209 123 209 156.5 152 c 128,-1,21
 190 95 190 95 247 61.5 c 128,-1,22
 304 28 304 28 371 28 c 0,23,24
 437 28 437 28 494 61.5 c 128,-1,25
 551 95 551 95 584.5 152 c 128,-1,26
 618 209 618 209 618 276 c 256,27,28
 618 343 618 343 584.5 399.5 c 128,-1,29
 551 456 551 456 494 489.5 c 128,-1,30
 437 523 437 523 371 523 c 0,31,32
 304 523 304 523 247 489.5 c 128,-1,33
 190 456 190 456 156.5 399.5 c 128,-1,34
 123 343 123 343 123 276 c 256,19,20
EndSplineSet
Validated: 1
Substitution2: "'ss01' Style Set 1 lookup 27 subtable" p.ss01
Substitution2: "'salt' Stylistic Alternatives lookup 26 subtable" p.ss01
Substitution2: "'aalt' Access All Alternates lookup 0 subtable" p.ss01
EndChar

StartChar: q
Encoding: 84 113 84
Width: 701
GlyphClass: 2
Flags: W
LayerCount: 2
Fore
SplineSet
88 417 m 0,0,1
 126 481 126 481 190 518.5 c 128,-1,2
 254 556 254 556 330 556 c 0,3,4
 412 556 412 556 481.5 511.5 c 128,-1,5
 551 467 551 467 578 401 c 1,6,-1
 578 550 l 1,7,-1
 611 550 l 1,8,-1
 611 -220 l 1,9,-1
 578 -220 l 1,10,-1
 578 153 l 1,11,12
 551 85 551 85 481.5 40 c 128,-1,13
 412 -5 412 -5 330 -5 c 0,14,15
 254 -5 254 -5 190 33 c 128,-1,16
 126 71 126 71 88 135.5 c 128,-1,17
 50 200 50 200 50 276 c 256,18,19
 50 352 50 352 88 417 c 0,0,1
117 152 m 0,20,21
 150 95 150 95 207 61.5 c 128,-1,22
 264 28 264 28 330 28 c 0,23,24
 397 28 397 28 454 61.5 c 128,-1,25
 511 95 511 95 544.5 152 c 128,-1,26
 578 209 578 209 578 276 c 256,27,28
 578 343 578 343 544.5 399.5 c 128,-1,29
 511 456 511 456 454 489.5 c 128,-1,30
 397 523 397 523 330 523 c 0,31,32
 264 523 264 523 207 489.5 c 128,-1,33
 150 456 150 456 116.5 399.5 c 128,-1,34
 83 343 83 343 83 276 c 256,35,36
 83 209 83 209 117 152 c 0,20,21
EndSplineSet
Validated: 1
EndChar

StartChar: r
Encoding: 85 114 85
Width: 375
GlyphClass: 2
Flags: W
LayerCount: 2
Fore
SplineSet
123 550 m 1,0,-1
 123 443 l 1,1,2
 149 495 149 495 198.5 523.5 c 128,-1,3
 248 552 248 552 312 552 c 0,4,5
 314 552 314 552 316 552 c 0,6,7
 327 552 327 552 345 550 c 1,8,-1
 338 517 l 1,9,10
 324 519 324 519 315 519 c 0,11,12
 314 519 314 519 312 519 c 0,13,14
 226 519 226 519 174.5 460.5 c 128,-1,15
 123 402 123 402 123 287 c 2,16,-1
 123 0 l 1,17,-1
 90 0 l 1,18,-1
 90 549 l 1,19,-1
 123 550 l 1,0,-1
EndSplineSet
Validated: 1
Substitution2: "'ss01' Style Set 1 lookup 27 subtable" r.ss01
Substitution2: "'salt' Stylistic Alternatives lookup 26 subtable" r.ss01
Substitution2: "'aalt' Access All Alternates lookup 0 subtable" r.ss01
EndChar

StartChar: s
Encoding: 86 115 86
Width: 560
GlyphClass: 2
Flags: W
LayerCount: 2
Fore
SplineSet
80 115 m 1,0,1
 109 77 109 77 167 52.5 c 128,-1,2
 225 28 225 28 292 28 c 0,3,4
 371 28 371 28 421.5 62 c 128,-1,5
 472 96 472 96 472 153 c 0,6,7
 472 192 472 192 446.5 215.5 c 128,-1,8
 421 239 421 239 383.5 251 c 128,-1,9
 346 263 346 263 282 276 c 0,10,11
 212 291 212 291 172.5 304 c 128,-1,12
 133 317 133 317 104.5 344.5 c 128,-1,13
 76 372 76 372 76 418 c 0,14,15
 76 457 76 457 100.5 488 c 128,-1,16
 125 519 125 519 170 537 c 128,-1,17
 215 555 215 555 275 555 c 0,18,19
 331 555 331 555 387.5 534.5 c 128,-1,20
 444 514 444 514 485 465 c 1,21,-1
 461 442 l 1,22,23
 429 483 429 483 379 502.5 c 128,-1,24
 329 522 329 522 276 522 c 0,25,26
 204 522 204 522 156.5 494.5 c 128,-1,27
 109 467 109 467 109 417 c 0,28,29
 109 384 109 384 132.5 363.5 c 128,-1,30
 156 343 156 343 190.5 332 c 128,-1,31
 225 321 225 321 286 308 c 0,32,33
 357 292 357 292 400.5 277.5 c 128,-1,34
 444 263 444 263 474.5 232.5 c 128,-1,35
 505 202 505 202 505 152 c 0,36,37
 505 100 505 100 474.5 64.5 c 128,-1,38
 444 29 444 29 395 12 c 128,-1,39
 346 -5 346 -5 291 -5 c 0,40,41
 228 -5 228 -5 163 18 c 128,-1,42
 98 41 98 41 55 93 c 1,43,-1
 80 115 l 1,0,1
EndSplineSet
Validated: 1
EndChar

StartChar: t
Encoding: 87 116 87
Width: 351
GlyphClass: 2
Flags: W
LayerCount: 2
Fore
SplineSet
30 550 m 1,0,-1
 106 550 l 1,1,-1
 106 730 l 1,2,-1
 139 730 l 1,3,-1
 139 550 l 1,4,-1
 280 550 l 1,5,-1
 280 517 l 1,6,-1
 139 517 l 1,7,-1
 139 168 l 2,8,9
 139 101 139 101 170.5 63.5 c 128,-1,10
 202 26 202 26 254 26 c 0,11,12
 280 26 280 26 301 35 c 1,13,-1
 311 4 l 1,14,15
 284 -7 284 -7 254 -7 c 0,16,17
 188 -7 188 -7 147 39.5 c 128,-1,18
 106 86 106 86 106 166 c 2,19,-1
 106 517 l 1,20,-1
 30 517 l 1,21,-1
 30 550 l 1,0,-1
EndSplineSet
Validated: 1
Substitution2: "'ss02' Style Set 2 lookup 28 subtable" t.ss02
Substitution2: "'aalt' Access All Alternates lookup 0 subtable" t.ss02
EndChar

StartChar: u
Encoding: 88 117 88
Width: 637
GlyphClass: 2
Flags: W
LayerCount: 2
Fore
SplineSet
108 550 m 1,0,-1
 108 272 l 2,1,2
 108 191 108 191 135 136.5 c 128,-1,3
 162 82 162 82 207.5 55 c 128,-1,4
 253 28 253 28 311 28 c 256,5,6
 369 28 369 28 414.5 55 c 128,-1,7
 460 82 460 82 487 136.5 c 128,-1,8
 514 191 514 191 514 272 c 2,9,-1
 514 550 l 1,10,-1
 547 550 l 1,11,-1
 547 0 l 1,12,-1
 514 0 l 1,13,-1
 514 123 l 1,14,15
 490 67 490 67 437.5 31 c 128,-1,16
 385 -5 385 -5 311 -5 c 0,17,18
 244 -5 244 -5 190.5 26.5 c 128,-1,19
 137 58 137 58 106 120.5 c 128,-1,20
 75 183 75 183 75 272 c 2,21,-1
 75 550 l 1,22,-1
 108 550 l 1,0,-1
EndSplineSet
Validated: 1
Substitution2: "'ss01' Style Set 1 lookup 27 subtable" u.ss01
Substitution2: "'salt' Stylistic Alternatives lookup 26 subtable" u.ss01
Substitution2: "'aalt' Access All Alternates lookup 0 subtable" u.ss01
EndChar

StartChar: v
Encoding: 89 118 89
Width: 544
GlyphClass: 2
Flags: W
LayerCount: 2
Fore
SplineSet
20 550 m 1,0,-1
 56 550 l 1,1,-1
 272 42 l 1,2,-1
 488 550 l 1,3,-1
 524 550 l 1,4,-1
 290 0 l 1,5,-1
 254 0 l 1,6,-1
 20 550 l 1,0,-1
EndSplineSet
Validated: 1
Substitution2: "'ss02' Style Set 2 lookup 28 subtable" v.ss02
Substitution2: "'aalt' Access All Alternates lookup 0 subtable" v.ss02
EndChar

StartChar: w
Encoding: 90 119 90
Width: 860
GlyphClass: 2
Flags: W
LayerCount: 2
Fore
SplineSet
25 550 m 1,0,-1
 60 550 l 1,1,-1
 240 50 l 1,2,-1
 413 550 l 1,3,-1
 447 550 l 1,4,-1
 620 50 l 1,5,-1
 800 550 l 1,6,-1
 835 550 l 1,7,-1
 637 0 l 1,8,-1
 602 0 l 1,9,-1
 430 499 l 1,10,-1
 258 0 l 1,11,-1
 223 0 l 1,12,-1
 25 550 l 1,0,-1
EndSplineSet
Validated: 1
Substitution2: "'ss02' Style Set 2 lookup 28 subtable" w.ss02
Substitution2: "'ss01' Style Set 1 lookup 27 subtable" w.ss01
Substitution2: "'salt' Stylistic Alternatives lookup 26 subtable" w.ss01
AlternateSubs2: "'aalt' Access All Alternates lookup 1 subtable" w.ss01 w.ss02
EndChar

StartChar: x
Encoding: 91 120 91
Width: 561
GlyphClass: 2
Flags: W
LayerCount: 2
Fore
SplineSet
30 0 m 1,0,-1
 259 275 l 1,1,-1
 30 550 l 1,2,-1
 73 550 l 1,3,-1
 281 301 l 1,4,-1
 488 550 l 1,5,-1
 531 550 l 1,6,-1
 302 275 l 1,7,-1
 531 0 l 1,8,-1
 488 0 l 1,9,-1
 281 249 l 1,10,-1
 73 0 l 1,11,-1
 30 0 l 1,0,-1
EndSplineSet
Validated: 1
EndChar

StartChar: y
Encoding: 92 121 92
Width: 560
GlyphClass: 2
Flags: W
LayerCount: 2
Fore
SplineSet
33 -168 m 1,0,1
 51 -177 51 -177 70.5 -182 c 128,-1,2
 90 -187 90 -187 111 -187 c 0,3,4
 147 -187 147 -187 174 -164 c 128,-1,5
 201 -141 201 -141 220 -106 c 128,-1,6
 239 -71 239 -71 268 -6 c 0,7,8
 268 -4 268 -4 268.5 -2.5 c 128,-1,9
 269 -1 269 -1 270 0 c 2,10,-1
 36 550 l 1,11,-1
 72 550 l 1,12,-1
 288 42 l 1,13,-1
 504 550 l 1,14,-1
 540 550 l 1,15,-1
 306 0 l 2,16,17
 269 -84 269 -84 244 -128 c 128,-1,18
 219 -172 219 -172 187.5 -196 c 128,-1,19
 156 -220 156 -220 111 -220 c 0,20,21
 85 -220 85 -220 64.5 -215 c 128,-1,22
 44 -210 44 -210 20 -199 c 1,23,-1
 33 -168 l 1,0,1
EndSplineSet
Validated: 1
Substitution2: "'ss01' Style Set 1 lookup 27 subtable" y.ss01
Substitution2: "'salt' Stylistic Alternatives lookup 26 subtable" y.ss01
Substitution2: "'aalt' Access All Alternates lookup 0 subtable" y.ss01
EndChar

StartChar: z
Encoding: 93 122 93
Width: 583
GlyphClass: 2
Flags: W
LayerCount: 2
Fore
SplineSet
509 550 m 1,0,-1
 509 517 l 1,1,-1
 103 33 l 1,2,-1
 523 33 l 1,3,-1
 523 0 l 1,4,-1
 60 0 l 1,5,-1
 60 33 l 1,6,-1
 465 517 l 1,7,-1
 60 517 l 1,8,-1
 60 550 l 1,9,-1
 509 550 l 1,0,-1
EndSplineSet
Validated: 1
Substitution2: "'ss02' Style Set 2 lookup 28 subtable" z.ss02
Substitution2: "'aalt' Access All Alternates lookup 0 subtable" z.ss02
EndChar

StartChar: braceleft
Encoding: 94 123 94
Width: 303
GlyphClass: 2
Flags: W
LayerCount: 2
Fore
SplineSet
60 352 m 1,0,1
 102 352 102 352 132.5 378 c 128,-1,2
 163 404 163 404 163 463 c 2,3,-1
 163 645 l 2,4,5
 163 701 163 701 185.5 740.5 c 128,-1,6
 208 780 208 780 283 780 c 1,7,-1
 283 747 l 1,8,9
 233 747 233 747 214.5 723.5 c 128,-1,10
 196 700 196 700 196 648 c 2,11,-1
 196 464 l 2,12,13
 196 414 196 414 177 382.5 c 128,-1,14
 158 351 158 351 128 336 c 1,15,16
 196 300 196 300 196 207 c 2,17,-1
 196 22 l 2,18,19
 196 -30 196 -30 214.5 -53.5 c 128,-1,20
 233 -77 233 -77 283 -77 c 1,21,-1
 283 -110 l 1,22,23
 208 -110 208 -110 185.5 -70.5 c 128,-1,24
 163 -31 163 -31 163 25 c 2,25,-1
 163 208 l 2,26,27
 163 267 163 267 132.5 293 c 128,-1,28
 102 319 102 319 60 319 c 1,29,-1
 60 352 l 1,0,1
EndSplineSet
Validated: 1
EndChar

StartChar: bar
Encoding: 95 124 95
Width: 213
GlyphClass: 2
Flags: W
LayerCount: 2
Fore
SplineSet
90 -220 m 1,0,-1
 90 730 l 1,1,-1
 123 730 l 1,2,-1
 123 -220 l 1,3,-1
 90 -220 l 1,0,-1
EndSplineSet
Validated: 1
EndChar

StartChar: braceright
Encoding: 96 125 96
Width: 303
GlyphClass: 2
Flags: W
LayerCount: 2
Fore
SplineSet
20 747 m 1,0,-1
 20 780 l 1,1,2
 95 780 95 780 117.5 740.5 c 128,-1,3
 140 701 140 701 140 645 c 2,4,-1
 140 463 l 2,5,6
 140 404 140 404 170.5 378 c 128,-1,7
 201 352 201 352 243 352 c 1,8,-1
 243 319 l 1,9,10
 201 319 201 319 170.5 293 c 128,-1,11
 140 267 140 267 140 208 c 2,12,-1
 140 25 l 2,13,14
 140 -31 140 -31 117.5 -70.5 c 128,-1,15
 95 -110 95 -110 20 -110 c 1,16,-1
 20 -77 l 1,17,18
 70 -77 70 -77 88.5 -53.5 c 128,-1,19
 107 -30 107 -30 107 22 c 2,20,-1
 107 207 l 2,21,22
 107 300 107 300 175 336 c 1,23,24
 145 351 145 351 126 382.5 c 128,-1,25
 107 414 107 414 107 464 c 2,26,-1
 107 648 l 2,27,28
 107 700 107 700 88.5 723.5 c 128,-1,29
 70 747 70 747 20 747 c 1,0,-1
EndSplineSet
Validated: 1
EndChar

StartChar: asciitilde
Encoding: 97 126 97
Width: 500
GlyphClass: 2
Flags: W
LayerCount: 2
Fore
SplineSet
67 434 m 0,0,1
 98 458 98 458 138 458 c 0,2,3
 141 458 141 458 143 458 c 0,4,5
 173 458 173 458 199 447 c 128,-1,6
 225 436 225 436 258 414 c 0,7,8
 293 392 293 392 314 383.5 c 128,-1,9
 335 375 335 375 356 375 c 0,10,11
 364 375 364 375 373 376 c 0,12,13
 399 379 399 379 419 398 c 128,-1,14
 439 417 439 417 450 451 c 1,15,-1
 480 436 l 1,16,17
 466 394 466 394 438 370 c 128,-1,18
 410 346 410 346 374 342 c 0,19,20
 364 341 364 341 355 341 c 0,21,22
 331 341 331 341 307.5 350.5 c 128,-1,23
 284 360 284 360 245 384 c 0,24,25
 214 405 214 405 190.5 415 c 128,-1,26
 167 425 167 425 142 425 c 0,27,28
 139 425 139 425 137 425 c 0,29,30
 107 424 107 424 84.5 405.5 c 128,-1,31
 62 387 62 387 50 349 c 1,32,-1
 20 364 l 1,33,34
 35 410 35 410 67 434 c 0,0,1
EndSplineSet
Validated: 1
EndChar

StartChar: exclamdown
Encoding: 98 161 98
Width: 225
GlyphClass: 2
Flags: W
LayerCount: 2
Fore
SplineSet
97 418 m 1,0,-1
 129 418 l 1,1,-1
 131 -221 l 1,2,-1
 95 -221 l 1,3,-1
 97 418 l 1,0,-1
90 541 m 0,4,5
 100 550 100 550 113 550 c 256,6,7
 126 550 126 550 135.5 540 c 128,-1,8
 145 530 145 530 145 517 c 256,9,10
 145 504 145 504 135.5 494 c 128,-1,11
 126 484 126 484 113 484 c 256,12,13
 100 484 100 484 90 494 c 128,-1,14
 80 504 80 504 80 517 c 0,15,16
 80 531 80 531 90 541 c 0,4,5
EndSplineSet
Validated: 1
EndChar

StartChar: cent
Encoding: 99 162 99
Width: 622
GlyphClass: 2
Flags: W
LayerCount: 2
Fore
SplineSet
50 366 m 256,0,1
 50 441 50 441 85.5 504.5 c 128,-1,2
 121 568 121 568 182 607 c 128,-1,3
 243 646 243 646 317 650 c 1,4,-1
 317 730 l 1,5,-1
 350 730 l 1,6,-1
 350 651 l 1,7,8
 417 647 417 647 475 614.5 c 128,-1,9
 533 582 533 582 570 529 c 1,10,-1
 542 511 l 1,11,12
 509 557 509 557 459 585.5 c 128,-1,13
 409 614 409 614 350 618 c 1,14,-1
 350 113 l 1,15,16
 409 117 409 117 460.5 147 c 128,-1,17
 512 177 512 177 545 225 c 1,18,-1
 572 206 l 1,19,20
 535 151 535 151 476.5 117.5 c 128,-1,21
 418 84 418 84 350 80 c 1,22,-1
 350 0 l 1,23,-1
 317 0 l 1,24,-1
 317 81 l 1,25,26
 243 85 243 85 182 124.5 c 128,-1,27
 121 164 121 164 85.5 227.5 c 128,-1,28
 50 291 50 291 50 366 c 256,0,1
83 366 m 256,29,30
 83 301 83 301 114 244.5 c 128,-1,31
 145 188 145 188 198.5 153 c 128,-1,32
 252 118 252 118 317 114 c 1,33,-1
 317 617 l 1,34,35
 252 613 252 613 198.5 578 c 128,-1,36
 145 543 145 543 114 487 c 128,-1,37
 83 431 83 431 83 366 c 256,29,30
EndSplineSet
Validated: 1
EndChar

StartChar: sterling
Encoding: 100 163 100
Width: 640
GlyphClass: 2
Flags: W
LayerCount: 2
Fore
SplineSet
150 33 m 1,0,-1
 150 304 l 1,1,-1
 80 304 l 1,2,-1
 80 337 l 1,3,-1
 150 337 l 1,4,-1
 150 450 l 2,5,6
 150 546 150 546 179.5 610.5 c 128,-1,7
 209 675 209 675 258.5 706.5 c 128,-1,8
 308 738 308 738 371 738 c 0,9,10
 428 738 428 738 477.5 709 c 128,-1,11
 527 680 527 680 558 632 c 1,12,-1
 530 615 l 1,13,14
 504 656 504 656 462 680.5 c 128,-1,15
 420 705 420 705 371 705 c 0,16,17
 288 705 288 705 235.5 642 c 128,-1,18
 183 579 183 579 183 450 c 2,19,-1
 183 337 l 1,20,-1
 430 337 l 1,21,-1
 430 304 l 1,22,-1
 183 304 l 1,23,-1
 183 33 l 1,24,-1
 580 33 l 1,25,-1
 580 0 l 1,26,-1
 60 0 l 1,27,-1
 60 33 l 1,28,-1
 150 33 l 1,0,-1
EndSplineSet
Validated: 1
EndChar

StartChar: currency
Encoding: 101 164 101
Width: 571
GlyphClass: 2
Flags: W
LayerCount: 2
Fore
SplineSet
125 213 m 1,0,1
 101 241 101 241 88 276.5 c 128,-1,2
 75 312 75 312 75 350 c 256,3,4
 75 388 75 388 88.5 423 c 128,-1,5
 102 458 102 458 126 485 c 1,6,-1
 61 550 l 1,7,-1
 84 574 l 1,8,-1
 149 509 l 1,9,10
 209 558 209 558 284 558 c 0,11,12
 360 558 360 558 420 508 c 1,13,-1
 486 574 l 1,14,-1
 511 550 l 1,15,-1
 445 484 l 1,16,17
 495 424 495 424 495 349 c 0,18,19
 495 310 495 310 482 275 c 128,-1,20
 469 240 469 240 445 213 c 1,21,-1
 510 148 l 1,22,-1
 487 124 l 1,23,-1
 422 189 l 1,24,25
 394 165 394 165 358.5 152 c 128,-1,26
 323 139 323 139 285 139 c 256,27,28
 247 139 247 139 212 152 c 128,-1,29
 177 165 177 165 150 189 c 1,30,-1
 85 124 l 1,31,-1
 60 148 l 1,32,-1
 125 213 l 1,0,1
133 260 m 0,33,34
 156 219 156 219 195.5 195 c 128,-1,35
 235 171 235 171 284 171 c 0,36,37
 332 171 332 171 373 195 c 128,-1,38
 414 219 414 219 438 260 c 128,-1,39
 462 301 462 301 462 349 c 0,40,41
 462 396 462 396 438 436 c 128,-1,42
 414 476 414 476 373 500 c 128,-1,43
 332 524 332 524 284 524 c 0,44,45
 235 524 235 524 195.5 500.5 c 128,-1,46
 156 477 156 477 133 436.5 c 128,-1,47
 110 396 110 396 110 349 c 0,48,49
 110 300 110 300 133 260 c 0,33,34
EndSplineSet
Validated: 1
EndChar

StartChar: yen
Encoding: 102 165 102
Width: 642
GlyphClass: 2
Flags: W
LayerCount: 2
Fore
SplineSet
20 730 m 1,0,-1
 62 730 l 1,1,-1
 321 359 l 1,2,-1
 580 730 l 1,3,-1
 622 730 l 1,4,-1
 356 350 l 1,5,-1
 560 350 l 1,6,-1
 560 317 l 1,7,-1
 338 317 l 1,8,-1
 338 216 l 1,9,-1
 560 216 l 1,10,-1
 560 183 l 1,11,-1
 338 183 l 1,12,-1
 338 0 l 1,13,-1
 304 0 l 1,14,-1
 304 183 l 1,15,-1
 87 183 l 1,16,-1
 87 216 l 1,17,-1
 304 216 l 1,18,-1
 304 317 l 1,19,-1
 87 317 l 1,20,-1
 87 350 l 1,21,-1
 286 350 l 1,22,-1
 20 730 l 1,0,-1
EndSplineSet
Validated: 1
EndChar

StartChar: brokenbar
Encoding: 103 166 103
Width: 193
GlyphClass: 2
Flags: W
LayerCount: 2
Fore
SplineSet
80 398 m 1,0,-1
 80 780 l 1,1,-1
 113 780 l 1,2,-1
 113 398 l 1,3,-1
 80 398 l 1,0,-1
113 162 m 1,4,-1
 113 -220 l 1,5,-1
 80 -220 l 1,6,-1
 80 162 l 1,7,-1
 113 162 l 1,4,-1
EndSplineSet
Validated: 1
EndChar

StartChar: section
Encoding: 104 167 104
Width: 466
GlyphClass: 2
Flags: W
LayerCount: 2
Fore
SplineSet
81 110 m 1,0,1
 106 77 106 77 150.5 54.5 c 128,-1,2
 195 32 195 32 245 32 c 0,3,4
 309 32 309 32 343.5 59 c 128,-1,5
 378 86 378 86 378 128 c 0,6,7
 378 162 378 162 357.5 183.5 c 128,-1,8
 337 205 337 205 306.5 218 c 128,-1,9
 276 231 276 231 225 246 c 0,10,11
 169 263 169 263 135.5 277.5 c 128,-1,12
 102 292 102 292 79 318.5 c 128,-1,13
 56 345 56 345 56 386 c 256,14,15
 56 427 56 427 80.5 454 c 128,-1,16
 105 481 105 481 146 491 c 1,17,18
 103 510 103 510 79 538 c 128,-1,19
 55 566 55 566 55 610 c 0,20,21
 55 652 55 652 77 681.5 c 128,-1,22
 99 711 99 711 136.5 726 c 128,-1,23
 174 741 174 741 220 741 c 0,24,25
 273 741 273 741 325.5 717 c 128,-1,26
 378 693 378 693 411 650 c 1,27,-1
 385 630 l 1,28,29
 360 663 360 663 315.5 685.5 c 128,-1,30
 271 708 271 708 221 708 c 0,31,32
 157 708 157 708 122.5 681 c 128,-1,33
 88 654 88 654 88 612 c 0,34,35
 88 578 88 578 108.5 556.5 c 128,-1,36
 129 535 129 535 159.5 522 c 128,-1,37
 190 509 190 509 241 494 c 0,38,39
 297 477 297 477 330.5 462.5 c 128,-1,40
 364 448 364 448 387 421.5 c 128,-1,41
 410 395 410 395 410 354 c 256,42,43
 410 313 410 313 385.5 286 c 128,-1,44
 361 259 361 259 320 249 c 1,45,46
 363 230 363 230 387 202 c 128,-1,47
 411 174 411 174 411 130 c 0,48,49
 411 88 411 88 389 58.5 c 128,-1,50
 367 29 367 29 329.5 14 c 128,-1,51
 292 -1 292 -1 246 -1 c 0,52,53
 193 -1 193 -1 140.5 23 c 128,-1,54
 88 47 88 47 55 90 c 1,55,-1
 81 110 l 1,0,1
108 338 m 256,56,57
 127 318 127 318 155.5 306 c 128,-1,58
 184 294 184 294 231 280 c 0,59,60
 250 275 250 275 269 275 c 0,61,62
 284 275 284 275 308.5 279.5 c 128,-1,63
 333 284 333 284 355 303 c 128,-1,64
 377 322 377 322 377 353 c 0,65,66
 377 382 377 382 358 402 c 128,-1,67
 339 422 339 422 310.5 434 c 128,-1,68
 282 446 282 446 235 460 c 0,69,70
 216 465 216 465 197 465 c 0,71,72
 182 465 182 465 157.5 460.5 c 128,-1,73
 133 456 133 456 111 437 c 128,-1,74
 89 418 89 418 89 387 c 0,75,76
 89 358 89 358 108 338 c 256,56,57
EndSplineSet
Validated: 1
EndChar

StartChar: dieresis
Encoding: 105 168 105
Width: 290
GlyphClass: 2
Flags: W
LayerCount: 2
Fore
SplineSet
20 647 m 0,0,1
 20 661 20 661 30 670.5 c 128,-1,2
 40 680 40 680 53 680 c 256,3,4
 66 680 66 680 75.5 670 c 128,-1,5
 85 660 85 660 85 647 c 256,6,7
 85 634 85 634 75.5 624 c 128,-1,8
 66 614 66 614 53 614 c 256,9,10
 40 614 40 614 30 624 c 128,-1,11
 20 634 20 634 20 647 c 0,0,1
205 647 m 0,12,13
 205 661 205 661 215 670.5 c 128,-1,14
 225 680 225 680 238 680 c 256,15,16
 251 680 251 680 260.5 670 c 128,-1,17
 270 660 270 660 270 647 c 256,18,19
 270 634 270 634 260.5 624 c 128,-1,20
 251 614 251 614 238 614 c 256,21,22
 225 614 225 614 215 624 c 128,-1,23
 205 634 205 634 205 647 c 0,12,13
EndSplineSet
Validated: 1
EndChar

StartChar: copyright
Encoding: 106 169 106
Width: 853
GlyphClass: 2
Flags: W
LayerCount: 2
Fore
SplineSet
101 554 m 0,0,1
 151 640 151 640 237.5 690.5 c 128,-1,2
 324 741 324 741 427 741 c 0,3,4
 529 741 529 741 615.5 690.5 c 128,-1,5
 702 640 702 640 752.5 553.5 c 128,-1,6
 803 467 803 467 803 365 c 0,7,8
 803 262 803 262 752.5 175.5 c 128,-1,9
 702 89 702 89 615.5 38 c 128,-1,10
 529 -13 529 -13 427 -13 c 0,11,12
 324 -13 324 -13 237.5 38 c 128,-1,13
 151 89 151 89 100.5 175.5 c 128,-1,14
 50 262 50 262 50 365 c 0,15,16
 50 467 50 467 101 554 c 0,0,1
129 192 m 0,17,18
 175 112 175 112 254.5 65 c 128,-1,19
 334 18 334 18 427 18 c 0,20,21
 519 18 519 18 598.5 65 c 128,-1,22
 678 112 678 112 724.5 192 c 128,-1,23
 771 272 771 272 771 365 c 0,24,25
 771 457 771 457 724.5 536.5 c 128,-1,26
 678 616 678 616 598.5 663 c 128,-1,27
 519 710 519 710 427 710 c 0,28,29
 334 710 334 710 255 663 c 128,-1,30
 176 616 176 616 129 536.5 c 128,-1,31
 82 457 82 457 82 365 c 0,32,33
 82 272 82 272 129 192 c 0,17,18
219 365 m 0,34,35
 219 421 219 421 247 468 c 128,-1,36
 275 515 275 515 323 543 c 128,-1,37
 371 571 371 571 427 571 c 0,38,39
 477 571 477 571 520.5 548.5 c 128,-1,40
 564 526 564 526 593 487 c 1,41,-1
 567 468 l 1,42,43
 543 501 543 501 506 520 c 128,-1,44
 469 539 469 539 427 539 c 0,45,46
 380 539 380 539 339.5 515.5 c 128,-1,47
 299 492 299 492 275.5 452 c 128,-1,48
 252 412 252 412 252 365 c 0,49,50
 252 317 252 317 275.5 276.5 c 128,-1,51
 299 236 299 236 339.5 212.5 c 128,-1,52
 380 189 380 189 427 189 c 0,53,54
 470 189 470 189 507.5 209.5 c 128,-1,55
 545 230 545 230 569 264 c 1,56,-1
 596 244 l 1,57,58
 567 204 567 204 522.5 180.5 c 128,-1,59
 478 157 478 157 427 157 c 0,60,61
 370 157 370 157 322.5 185 c 128,-1,62
 275 213 275 213 247 260.5 c 128,-1,63
 219 308 219 308 219 365 c 0,34,35
EndSplineSet
Validated: 1
EndChar

StartChar: ordfeminine
Encoding: 107 170 107
Width: 374
GlyphClass: 2
Flags: W
LayerCount: 2
Fore
SplineSet
78 567 m 0,0,1
 116 597 116 597 176 597 c 2,2,-1
 288 597 l 1,3,4
 288 648 288 648 261 676 c 128,-1,5
 234 704 234 704 184 704 c 0,6,7
 154 704 154 704 127 693 c 128,-1,8
 100 682 100 682 79 665 c 1,9,-1
 53 685 l 1,10,11
 77 710 77 710 111.5 724.5 c 128,-1,12
 146 739 146 739 186 739 c 0,13,14
 228 739 228 739 259 722 c 128,-1,15
 290 705 290 705 307 673 c 128,-1,16
 324 641 324 641 324 598 c 2,17,-1
 324 379 l 1,18,-1
 288 379 l 1,19,-1
 288 429 l 1,20,21
 270 403 270 403 239 388 c 128,-1,22
 208 373 208 373 167 373 c 0,23,24
 115 373 115 373 77.5 404 c 128,-1,25
 40 435 40 435 40 485 c 0,26,27
 40 536 40 536 78 567 c 0,0,1
103 430 m 0,28,29
 130 408 130 408 169 408 c 0,30,31
 220 408 220 408 254 432.5 c 128,-1,32
 288 457 288 457 288 494 c 2,33,-1
 288 562 l 1,34,-1
 177 562 l 2,35,36
 131 562 131 562 103 541.5 c 128,-1,37
 75 521 75 521 75 486 c 256,38,39
 75 451 75 451 103 430 c 0,28,29
EndSplineSet
Validated: 1
EndChar

StartChar: guillemotleft
Encoding: 108 171 108
Width: 369
GlyphClass: 2
Flags: W
LayerCount: 2
Fore
SplineSet
177 365 m 1,0,-1
 271 529 l 1,1,-1
 309 529 l 1,2,-1
 215 365 l 1,3,-1
 309 201 l 1,4,-1
 271 201 l 1,5,-1
 177 365 l 1,0,-1
154 529 m 1,6,-1
 192 529 l 1,7,-1
 98 365 l 1,8,-1
 192 201 l 1,9,-1
 154 201 l 1,10,-1
 60 365 l 1,11,-1
 154 529 l 1,6,-1
EndSplineSet
Validated: 1
EndChar

StartChar: logicalnot
Encoding: 109 172 109
Width: 540
GlyphClass: 2
Flags: W
LayerCount: 2
Fore
SplineSet
447 202 m 1,0,-1
 447 349 l 1,1,-1
 60 349 l 1,2,-1
 60 382 l 1,3,-1
 480 382 l 1,4,-1
 480 202 l 1,5,-1
 447 202 l 1,0,-1
EndSplineSet
Validated: 1
EndChar

StartChar: registered
Encoding: 110 174 110
Width: 853
GlyphClass: 2
Flags: W
LayerCount: 2
Fore
SplineSet
50 365 m 0,0,1
 50 467 50 467 100.5 553.5 c 128,-1,2
 151 640 151 640 237.5 690.5 c 128,-1,3
 324 741 324 741 427 741 c 0,4,5
 529 741 529 741 615.5 690.5 c 128,-1,6
 702 640 702 640 752.5 553.5 c 128,-1,7
 803 467 803 467 803 365 c 0,8,9
 803 262 803 262 752.5 175.5 c 128,-1,10
 702 89 702 89 615.5 38 c 128,-1,11
 529 -13 529 -13 427 -13 c 0,12,13
 324 -13 324 -13 237.5 38 c 128,-1,14
 151 89 151 89 100.5 175.5 c 128,-1,15
 50 262 50 262 50 365 c 0,0,1
129 192 m 0,16,17
 175 112 175 112 254.5 65 c 128,-1,18
 334 18 334 18 427 18 c 0,19,20
 519 18 519 18 598.5 65 c 128,-1,21
 678 112 678 112 724.5 192 c 128,-1,22
 771 272 771 272 771 365 c 0,23,24
 771 457 771 457 724.5 536.5 c 128,-1,25
 678 616 678 616 598.5 663 c 128,-1,26
 519 710 519 710 427 710 c 0,27,28
 334 710 334 710 255 663 c 128,-1,29
 176 616 176 616 129 536.5 c 128,-1,30
 82 457 82 457 82 365 c 0,31,32
 82 272 82 272 129 192 c 0,16,17
415 555 m 2,33,34
 475 555 475 555 513 521 c 128,-1,35
 551 487 551 487 551 432 c 0,36,37
 551 385 551 385 520 352.5 c 128,-1,38
 489 320 489 320 441 315 c 1,39,-1
 564 175 l 1,40,-1
 519 175 l 1,41,-1
 402 312 l 1,42,-1
 340 312 l 1,43,-1
 340 175 l 1,44,-1
 307 175 l 1,45,-1
 307 555 l 1,46,-1
 415 555 l 2,33,34
340 522 m 1,47,-1
 340 345 l 1,48,-1
 415 345 l 2,49,50
 469 345 469 345 493.5 371.5 c 128,-1,51
 518 398 518 398 518 432 c 0,52,53
 518 475 518 475 488.5 498.5 c 128,-1,54
 459 522 459 522 415 522 c 2,55,-1
 340 522 l 1,47,-1
EndSplineSet
Validated: 1
EndChar

StartChar: macron
Encoding: 111 175 111
Width: 470
GlyphClass: 2
Flags: W
LayerCount: 2
Fore
SplineSet
60 662 m 1,0,-1
 60 695 l 1,1,-1
 410 695 l 1,2,-1
 410 662 l 1,3,-1
 60 662 l 1,0,-1
EndSplineSet
Validated: 1
EndChar

StartChar: degree
Encoding: 112 176 112
Width: 280
GlyphClass: 2
Flags: W
LayerCount: 2
Fore
SplineSet
20 671 m 0,0,1
 20 721 20 721 55 756 c 128,-1,2
 90 791 90 791 140 791 c 0,3,4
 172 791 172 791 200 775 c 128,-1,5
 228 759 228 759 244 731 c 128,-1,6
 260 703 260 703 260 671 c 256,7,8
 260 639 260 639 244 611 c 128,-1,9
 228 583 228 583 200 567 c 128,-1,10
 172 551 172 551 140 551 c 0,11,12
 107 551 107 551 79.5 567 c 128,-1,13
 52 583 52 583 36 610.5 c 128,-1,14
 20 638 20 638 20 671 c 0,0,1
54 670 m 0,15,16
 54 634 54 634 78.5 609 c 128,-1,17
 103 584 103 584 140 584 c 256,18,19
 177 584 177 584 201.5 609 c 128,-1,20
 226 634 226 634 226 670 c 0,21,22
 226 708 226 708 201.5 733 c 128,-1,23
 177 758 177 758 140 758 c 256,24,25
 103 758 103 758 78.5 733 c 128,-1,26
 54 708 54 708 54 670 c 0,15,16
EndSplineSet
Validated: 1
EndChar

StartChar: plusminus
Encoding: 113 177 113
Width: 540
GlyphClass: 2
Flags: W
LayerCount: 2
Fore
SplineSet
253 442 m 1,0,-1
 253 635 l 1,1,-1
 286 635 l 1,2,-1
 286 442 l 1,3,-1
 480 442 l 1,4,-1
 480 409 l 1,5,-1
 286 409 l 1,6,-1
 286 215 l 1,7,-1
 253 215 l 1,8,-1
 253 409 l 1,9,-1
 60 409 l 1,10,-1
 60 442 l 1,11,-1
 253 442 l 1,0,-1
60 134 m 1,12,-1
 480 134 l 1,13,-1
 480 101 l 1,14,-1
 60 101 l 1,15,-1
 60 134 l 1,12,-1
EndSplineSet
Validated: 1
EndChar

StartChar: twosuperior
Encoding: 114 178 114
Width: 360
GlyphClass: 2
Flags: W
LayerCount: 2
Fore
SplineSet
218 602 m 2,0,1
 278 655 278 655 278 710 c 0,2,3
 278 755 278 755 250 788.5 c 128,-1,4
 222 822 222 822 169 822 c 0,5,6
 127 822 127 822 99.5 795 c 128,-1,7
 72 768 72 768 64 739 c 1,8,-1
 33 750 l 1,9,10
 45 796 45 796 83 825.5 c 128,-1,11
 121 855 121 855 169 855 c 0,12,13
 208 855 208 855 240.5 837 c 128,-1,14
 273 819 273 819 292 786 c 128,-1,15
 311 753 311 753 311 710 c 0,16,17
 311 673 311 673 291 639 c 128,-1,18
 271 605 271 605 238 576 c 2,19,-1
 80 439 l 1,20,-1
 320 439 l 1,21,-1
 320 406 l 1,22,-1
 30 406 l 1,23,-1
 30 439 l 1,24,-1
 218 602 l 2,0,1
EndSplineSet
Validated: 1
EndChar

StartChar: threesuperior
Encoding: 115 179 115
Width: 352
GlyphClass: 2
Flags: W
LayerCount: 2
Fore
SplineSet
60 496 m 1,0,1
 74 469 74 469 104.5 451.5 c 128,-1,2
 135 434 135 434 173 434 c 0,3,4
 219 434 219 434 249 460 c 128,-1,5
 279 486 279 486 279 528 c 0,6,7
 279 569 279 569 247.5 598 c 128,-1,8
 216 627 216 627 171 627 c 2,9,-1
 151 627 l 1,10,-1
 151 660 l 1,11,-1
 170 660 l 2,12,13
 210 660 210 660 235.5 685.5 c 128,-1,14
 261 711 261 711 261 742 c 0,15,16
 261 780 261 780 234.5 801 c 128,-1,17
 208 822 208 822 170 822 c 0,18,19
 143 822 143 822 120 809.5 c 128,-1,20
 97 797 97 797 84 776 c 1,21,-1
 57 794 l 1,22,23
 74 821 74 821 104 838 c 128,-1,24
 134 855 134 855 169 855 c 0,25,26
 222 855 222 855 258 824 c 128,-1,27
 294 793 294 793 294 743 c 0,28,29
 294 712 294 712 278 686 c 128,-1,30
 262 660 262 660 234 645 c 1,31,32
 269 629 269 629 290.5 597.5 c 128,-1,33
 312 566 312 566 312 527 c 0,34,35
 312 490 312 490 293 461.5 c 128,-1,36
 274 433 274 433 242 417 c 128,-1,37
 210 401 210 401 172 401 c 0,38,39
 124 401 124 401 86 424 c 128,-1,40
 48 447 48 447 30 482 c 1,41,-1
 60 496 l 1,0,1
EndSplineSet
Validated: 1
EndChar

StartChar: acute
Encoding: 116 180 116
Width: 140
GlyphClass: 2
Flags: W
LayerCount: 2
Fore
SplineSet
20 582 m 1,0,-1
 85 730 l 1,1,-1
 120 730 l 1,2,-1
 50 582 l 1,3,-1
 20 582 l 1,0,-1
EndSplineSet
Validated: 1
EndChar

StartChar: uni00B5
Encoding: 117 181 117
Width: 597
GlyphClass: 2
Flags: W
LayerCount: 2
Fore
SplineSet
93 550 m 1,0,-1
 93 268 l 2,1,2
 93 145 93 145 148.5 82 c 128,-1,3
 204 19 204 19 298 19 c 0,4,5
 356 19 356 19 403 46.5 c 128,-1,6
 450 74 450 74 477.5 130 c 128,-1,7
 505 186 505 186 505 268 c 2,8,-1
 505 550 l 1,9,-1
 537 550 l 1,10,-1
 537 0 l 1,11,-1
 505 0 l 1,12,-1
 505 113 l 1,13,14
 476 52 476 52 422 19 c 128,-1,15
 368 -14 368 -14 296 -14 c 0,16,17
 228 -14 228 -14 175.5 17 c 128,-1,18
 123 48 123 48 93 108 c 1,19,-1
 93 -220 l 1,20,-1
 60 -220 l 1,21,-1
 60 550 l 1,22,-1
 93 550 l 1,0,-1
EndSplineSet
Validated: 1
EndChar

StartChar: paragraph
Encoding: 118 182 118
Width: 613
GlyphClass: 2
Flags: W
LayerCount: 2
Fore
SplineSet
50 526 m 256,0,1
 50 595 50 595 81 653.5 c 128,-1,2
 112 712 112 712 165.5 746 c 128,-1,3
 219 780 219 780 282 780 c 2,4,-1
 523 780 l 1,5,-1
 523 -131 l 1,6,-1
 490 -131 l 1,7,-1
 490 747 l 1,8,-1
 376 747 l 1,9,-1
 376 -131 l 1,10,-1
 343 -131 l 1,11,-1
 343 272 l 1,12,-1
 282 272 l 2,13,14
 219 272 219 272 165.5 306 c 128,-1,15
 112 340 112 340 81 398.5 c 128,-1,16
 50 457 50 457 50 526 c 256,0,1
EndSplineSet
Validated: 1
EndChar

StartChar: periodcentered
Encoding: 119 183 119
Width: 145
GlyphClass: 2
Flags: W
LayerCount: 2
Fore
SplineSet
50 389 m 0,0,1
 59 398 59 398 73 398 c 256,2,3
 87 398 87 398 96 389 c 128,-1,4
 105 380 105 380 105 366 c 256,5,6
 105 352 105 352 96 342.5 c 128,-1,7
 87 333 87 333 73 333 c 256,8,9
 59 333 59 333 49.5 342.5 c 128,-1,10
 40 352 40 352 40 366 c 256,11,12
 40 380 40 380 50 389 c 0,0,1
EndSplineSet
Validated: 1
EndChar

StartChar: cedilla
Encoding: 120 184 120
Width: 224
GlyphClass: 2
Flags: W
LayerCount: 2
Fore
SplineSet
36 -164 m 1,0,1
 44 -172 44 -172 65.5 -179.5 c 128,-1,2
 87 -187 87 -187 108 -187 c 0,3,4
 137 -187 137 -187 154 -173 c 128,-1,5
 171 -159 171 -159 171 -137 c 0,6,7
 171 -113 171 -113 151.5 -99 c 128,-1,8
 132 -85 132 -85 93 -85 c 2,9,-1
 58 -85 l 1,10,-1
 86 0 l 1,11,-1
 121 0 l 1,12,-1
 104 -52 l 1,13,14
 152 -55 152 -55 178 -78 c 128,-1,15
 204 -101 204 -101 204 -136 c 0,16,17
 204 -159 204 -159 192.5 -178.5 c 128,-1,18
 181 -198 181 -198 159 -209 c 128,-1,19
 137 -220 137 -220 107 -220 c 0,20,21
 83 -220 83 -220 58.5 -212 c 128,-1,22
 34 -204 34 -204 20 -192 c 1,23,-1
 36 -164 l 1,0,1
EndSplineSet
Validated: 1
EndChar

StartChar: onesuperior
Encoding: 121 185 121
Width: 158
GlyphClass: 2
Flags: W
LayerCount: 2
Fore
SplineSet
65 406 m 1,0,-1
 65 817 l 1,1,-1
 20 817 l 1,2,-1
 20 850 l 1,3,-1
 98 850 l 1,4,-1
 98 406 l 1,5,-1
 65 406 l 1,0,-1
EndSplineSet
Validated: 1
EndChar

StartChar: ordmasculine
Encoding: 122 186 122
Width: 452
GlyphClass: 2
Flags: W
LayerCount: 2
Fore
SplineSet
40 553 m 256,0,1
 40 603 40 603 65 646 c 128,-1,2
 90 689 90 689 132.5 714 c 128,-1,3
 175 739 175 739 226 739 c 0,4,5
 276 739 276 739 319 714 c 128,-1,6
 362 689 362 689 387 646 c 128,-1,7
 412 603 412 603 412 553 c 256,8,9
 412 503 412 503 387 460 c 128,-1,10
 362 417 362 417 319 392 c 128,-1,11
 276 367 276 367 226 367 c 0,12,13
 175 367 175 367 132.5 392 c 128,-1,14
 90 417 90 417 65 460 c 128,-1,15
 40 503 40 503 40 553 c 256,0,1
73 553 m 256,16,17
 73 512 73 512 93 477 c 128,-1,18
 113 442 113 442 148 421 c 128,-1,19
 183 400 183 400 225 400 c 256,20,21
 267 400 267 400 302.5 421 c 128,-1,22
 338 442 338 442 358.5 477 c 128,-1,23
 379 512 379 512 379 553 c 256,24,25
 379 594 379 594 358.5 629 c 128,-1,26
 338 664 338 664 302.5 685 c 128,-1,27
 267 706 267 706 225 706 c 256,28,29
 183 706 183 706 148 685 c 128,-1,30
 113 664 113 664 93 629 c 128,-1,31
 73 594 73 594 73 553 c 256,16,17
EndSplineSet
Validated: 1
EndChar

StartChar: guillemotright
Encoding: 123 187 123
Width: 369
GlyphClass: 2
Flags: W
LayerCount: 2
Fore
SplineSet
177 201 m 1,0,-1
 271 365 l 1,1,-1
 177 529 l 1,2,-1
 215 529 l 1,3,-1
 309 365 l 1,4,-1
 215 201 l 1,5,-1
 177 201 l 1,0,-1
60 529 m 1,6,-1
 98 529 l 1,7,-1
 192 365 l 1,8,-1
 98 201 l 1,9,-1
 60 201 l 1,10,-1
 154 365 l 1,11,-1
 60 529 l 1,6,-1
EndSplineSet
Validated: 1
EndChar

StartChar: onequarter
Encoding: 124 188 124
Width: 605
GlyphClass: 3
Flags: W
LayerCount: 2
Fore
SplineSet
265 123 m 1,0,-1
 265 156 l 1,1,-1
 512 444 l 1,2,-1
 545 444 l 1,3,-1
 545 156 l 1,4,-1
 575 156 l 1,5,-1
 575 123 l 1,6,-1
 545 123 l 1,7,-1
 545 0 l 1,8,-1
 512 0 l 1,9,-1
 512 123 l 1,10,-1
 265 123 l 1,0,-1
39 0 m 1,11,-1
 443 781 l 1,12,-1
 480 781 l 1,13,-1
 76 0 l 1,14,-1
 39 0 l 1,11,-1
512 156 m 1,15,-1
 512 394 l 1,16,-1
 308 156 l 1,17,-1
 512 156 l 1,15,-1
108 780 m 1,18,-1
 108 336 l 1,19,-1
 75 336 l 1,20,-1
 75 747 l 1,21,-1
 30 747 l 1,22,-1
 30 780 l 1,23,-1
 108 780 l 1,18,-1
EndSplineSet
Validated: 1
Ligature2: "'frac' Diagonal Fractions lookup 13 subtable" one slash four
EndChar

StartChar: onehalf
Encoding: 125 189 125
Width: 704
GlyphClass: 3
Flags: W
LayerCount: 2
Fore
SplineSet
552 196 m 2,0,1
 612 249 612 249 612 304 c 0,2,3
 612 349 612 349 584 382.5 c 128,-1,4
 556 416 556 416 503 416 c 0,5,6
 461 416 461 416 433.5 389 c 128,-1,7
 406 362 406 362 398 333 c 1,8,-1
 367 344 l 1,9,10
 379 390 379 390 417 419.5 c 128,-1,11
 455 449 455 449 503 449 c 0,12,13
 542 449 542 449 574.5 431 c 128,-1,14
 607 413 607 413 626 380 c 128,-1,15
 645 347 645 347 645 304 c 0,16,17
 645 267 645 267 625 233 c 128,-1,18
 605 199 605 199 572 170 c 2,19,-1
 414 33 l 1,20,-1
 654 33 l 1,21,-1
 654 0 l 1,22,-1
 364 0 l 1,23,-1
 364 33 l 1,24,-1
 552 196 l 2,0,1
443 781 m 1,25,-1
 480 781 l 1,26,-1
 76 0 l 1,27,-1
 39 0 l 1,28,-1
 443 781 l 1,25,-1
30 747 m 1,29,-1
 30 780 l 1,30,-1
 108 780 l 1,31,-1
 108 336 l 1,32,-1
 75 336 l 1,33,-1
 75 747 l 1,34,-1
 30 747 l 1,29,-1
EndSplineSet
Validated: 1
Ligature2: "'frac' Diagonal Fractions lookup 13 subtable" one slash two
EndChar

StartChar: threequarters
Encoding: 126 190 126
Width: 773
GlyphClass: 3
Flags: W
LayerCount: 2
Fore
SplineSet
680 444 m 1,0,-1
 713 444 l 1,1,-1
 713 156 l 1,2,-1
 743 156 l 1,3,-1
 743 123 l 1,4,-1
 713 123 l 1,5,-1
 713 0 l 1,6,-1
 680 0 l 1,7,-1
 680 123 l 1,8,-1
 433 123 l 1,9,-1
 433 156 l 1,10,-1
 680 444 l 1,0,-1
65 420 m 1,11,12
 79 393 79 393 109.5 375.5 c 128,-1,13
 140 358 140 358 178 358 c 0,14,15
 224 358 224 358 254 384 c 128,-1,16
 284 410 284 410 284 452 c 0,17,18
 284 493 284 493 252.5 522 c 128,-1,19
 221 551 221 551 176 551 c 2,20,-1
 156 551 l 1,21,-1
 156 584 l 1,22,-1
 175 584 l 2,23,24
 215 584 215 584 240.5 609.5 c 128,-1,25
 266 635 266 635 266 666 c 0,26,27
 266 704 266 704 239.5 725 c 128,-1,28
 213 746 213 746 175 746 c 0,29,30
 148 746 148 746 125 733.5 c 128,-1,31
 102 721 102 721 89 700 c 1,32,-1
 62 718 l 1,33,34
 79 745 79 745 109 762 c 128,-1,35
 139 779 139 779 174 779 c 0,36,37
 227 779 227 779 263 748 c 128,-1,38
 299 717 299 717 299 667 c 0,39,40
 299 636 299 636 283 610 c 128,-1,41
 267 584 267 584 239 569 c 1,42,43
 274 553 274 553 295.5 521.5 c 128,-1,44
 317 490 317 490 317 451 c 0,45,46
 317 414 317 414 298 385.5 c 128,-1,47
 279 357 279 357 247 341 c 128,-1,48
 215 325 215 325 177 325 c 0,49,50
 129 325 129 325 91 348 c 128,-1,51
 53 371 53 371 35 406 c 1,52,-1
 65 420 l 1,11,12
611 781 m 1,53,-1
 648 781 l 1,54,-1
 244 0 l 1,55,-1
 207 0 l 1,56,-1
 611 781 l 1,53,-1
476 156 m 1,57,-1
 680 156 l 1,58,-1
 680 394 l 1,59,-1
 476 156 l 1,57,-1
EndSplineSet
Validated: 1
Ligature2: "'frac' Diagonal Fractions lookup 13 subtable" three slash four
EndChar

StartChar: questiondown
Encoding: 127 191 127
Width: 558
GlyphClass: 2
Flags: W
LayerCount: 2
Fore
SplineSet
60 11 m 0,0,1
 60 88 60 88 95 143 c 128,-1,2
 130 198 130 198 208 263 c 0,3,4
 238 289 238 289 253.5 316.5 c 128,-1,5
 269 344 269 344 269 388 c 2,6,-1
 269 429 l 1,7,-1
 302 429 l 1,8,-1
 302 388 l 2,9,10
 302 345 302 345 285.5 307.5 c 128,-1,11
 269 270 269 270 229 238 c 0,12,13
 152 177 152 177 122.5 124 c 128,-1,14
 93 71 93 71 93 13 c 0,15,16
 93 -36 93 -36 116.5 -76 c 128,-1,17
 140 -116 140 -116 182 -138.5 c 128,-1,18
 224 -161 224 -161 276 -161 c 0,19,20
 345 -161 345 -161 396.5 -116.5 c 128,-1,21
 448 -72 448 -72 467 -10 c 1,22,-1
 498 -21 l 1,23,24
 482 -71 482 -71 449.5 -110 c 128,-1,25
 417 -149 417 -149 372 -171.5 c 128,-1,26
 327 -194 327 -194 276 -194 c 0,27,28
 217 -194 217 -194 167.5 -167.5 c 128,-1,29
 118 -141 118 -141 89 -94.5 c 128,-1,30
 60 -48 60 -48 60 11 c 0,0,1
263 540 m 0,31,32
 272 550 272 550 285 550 c 0,33,34
 299 550 299 550 308.5 540.5 c 128,-1,35
 318 531 318 531 318 517 c 0,36,37
 318 504 318 504 308.5 494 c 128,-1,38
 299 484 299 484 285 484 c 0,39,40
 272 484 272 484 262.5 494 c 128,-1,41
 253 504 253 504 253 517 c 256,42,43
 253 530 253 530 263 540 c 0,31,32
EndSplineSet
Validated: 1
EndChar

StartChar: Agrave
Encoding: 128 192 128
Width: 680
GlyphClass: 2
Flags: W
LayerCount: 2
Fore
SplineSet
321 730 m 1,0,-1
 359 730 l 1,1,-1
 650 0 l 1,2,-1
 615 0 l 1,3,-1
 514 252 l 1,4,-1
 166 252 l 1,5,-1
 66 0 l 1,6,-1
 30 0 l 1,7,-1
 321 730 l 1,0,-1
501 285 m 1,8,-1
 340 687 l 1,9,-1
 180 285 l 1,10,-1
 501 285 l 1,8,-1
277 964 m 1,11,-1
 342 816 l 1,12,-1
 312 816 l 1,13,-1
 242 964 l 1,14,-1
 277 964 l 1,11,-1
EndSplineSet
Validated: 1
Substitution2: "'ss02' Style Set 2 lookup 28 subtable" Agrave.ss02
Substitution2: "'aalt' Access All Alternates lookup 0 subtable" Agrave.ss02
EndChar

StartChar: Aacute
Encoding: 129 193 129
Width: 680
GlyphClass: 2
Flags: W
LayerCount: 2
Fore
SplineSet
321 730 m 1,0,-1
 359 730 l 1,1,-1
 650 0 l 1,2,-1
 615 0 l 1,3,-1
 514 252 l 1,4,-1
 166 252 l 1,5,-1
 66 0 l 1,6,-1
 30 0 l 1,7,-1
 321 730 l 1,0,-1
501 285 m 1,8,-1
 340 687 l 1,9,-1
 180 285 l 1,10,-1
 501 285 l 1,8,-1
392 964 m 1,11,-1
 427 964 l 1,12,-1
 357 816 l 1,13,-1
 327 816 l 1,14,-1
 392 964 l 1,11,-1
EndSplineSet
Validated: 1
Substitution2: "'ss02' Style Set 2 lookup 28 subtable" Aacute.ss02
Substitution2: "'aalt' Access All Alternates lookup 0 subtable" Aacute.ss02
EndChar

StartChar: Acircumflex
Encoding: 130 194 130
Width: 680
GlyphClass: 2
Flags: W
LayerCount: 2
Fore
SplineSet
30 0 m 1,0,-1
 321 730 l 1,1,-1
 359 730 l 1,2,-1
 650 0 l 1,3,-1
 615 0 l 1,4,-1
 514 252 l 1,5,-1
 166 252 l 1,6,-1
 66 0 l 1,7,-1
 30 0 l 1,0,-1
501 285 m 1,8,-1
 340 687 l 1,9,-1
 180 285 l 1,10,-1
 501 285 l 1,8,-1
314 950 m 1,11,-1
 358 950 l 1,12,-1
 466 830 l 1,13,-1
 422 830 l 1,14,-1
 336 926 l 1,15,-1
 250 830 l 1,16,-1
 206 830 l 1,17,-1
 314 950 l 1,11,-1
EndSplineSet
Validated: 1
Substitution2: "'ss02' Style Set 2 lookup 28 subtable" Acircumflex.ss02
Substitution2: "'aalt' Access All Alternates lookup 0 subtable" Acircumflex.ss02
EndChar

StartChar: Atilde
Encoding: 131 195 131
Width: 680
GlyphClass: 2
Flags: W
LayerCount: 2
Fore
SplineSet
321 730 m 1,0,-1
 359 730 l 1,1,-1
 650 0 l 1,2,-1
 615 0 l 1,3,-1
 514 252 l 1,4,-1
 166 252 l 1,5,-1
 66 0 l 1,6,-1
 30 0 l 1,7,-1
 321 730 l 1,0,-1
180 285 m 1,8,-1
 501 285 l 1,9,-1
 340 687 l 1,10,-1
 180 285 l 1,8,-1
223 918 m 0,11,12
 243 945 243 945 273 947 c 0,13,14
 277 947 277 947 280 947 c 0,15,16
 300 947 300 947 315 937 c 128,-1,17
 330 927 330 927 353 904 c 0,18,19
 370 886 370 886 383 877 c 128,-1,20
 396 868 396 868 410 868 c 0,21,22
 411 868 411 868 413 868 c 0,23,24
 429 869 429 869 439 886.5 c 128,-1,25
 449 904 449 904 449 938 c 1,26,-1
 482 938 l 1,27,28
 482 891 482 891 463.5 864.5 c 128,-1,29
 445 838 445 838 416 836 c 0,30,31
 411 835 411 835 406 835 c 0,32,33
 387 835 387 835 370 846 c 128,-1,34
 353 857 353 857 330 880 c 0,35,36
 312 898 312 898 300.5 906 c 128,-1,37
 289 914 289 914 278 914 c 0,38,39
 276 914 276 914 275 914 c 0,40,41
 257 913 257 913 246 894.5 c 128,-1,42
 235 876 235 876 235 844 c 1,43,-1
 202 844 l 1,44,45
 202 890 202 890 223 918 c 0,11,12
EndSplineSet
Validated: 1
Substitution2: "'ss02' Style Set 2 lookup 28 subtable" Atilde.ss02
Substitution2: "'aalt' Access All Alternates lookup 0 subtable" Atilde.ss02
EndChar

StartChar: Adieresis
Encoding: 132 196 132
Width: 680
GlyphClass: 2
Flags: W
LayerCount: 2
Fore
SplineSet
321 730 m 1,0,-1
 359 730 l 1,1,-1
 650 0 l 1,2,-1
 615 0 l 1,3,-1
 514 252 l 1,4,-1
 166 252 l 1,5,-1
 66 0 l 1,6,-1
 30 0 l 1,7,-1
 321 730 l 1,0,-1
501 285 m 1,8,-1
 340 687 l 1,9,-1
 180 285 l 1,10,-1
 501 285 l 1,8,-1
402 890 m 0,11,12
 402 904 402 904 412 913.5 c 128,-1,13
 422 923 422 923 435 923 c 256,14,15
 448 923 448 923 457.5 913 c 128,-1,16
 467 903 467 903 467 890 c 256,17,18
 467 877 467 877 457.5 867 c 128,-1,19
 448 857 448 857 435 857 c 256,20,21
 422 857 422 857 412 867 c 128,-1,22
 402 877 402 877 402 890 c 0,11,12
217 890 m 0,23,24
 217 904 217 904 227 913.5 c 128,-1,25
 237 923 237 923 250 923 c 256,26,27
 263 923 263 923 272.5 913 c 128,-1,28
 282 903 282 903 282 890 c 256,29,30
 282 877 282 877 272.5 867 c 128,-1,31
 263 857 263 857 250 857 c 256,32,33
 237 857 237 857 227 867 c 128,-1,34
 217 877 217 877 217 890 c 0,23,24
EndSplineSet
Validated: 1
Substitution2: "'ss02' Style Set 2 lookup 28 subtable" Adieresis.ss02
Substitution2: "'aalt' Access All Alternates lookup 0 subtable" Adieresis.ss02
EndChar

StartChar: Aring
Encoding: 133 197 133
Width: 680
GlyphClass: 2
Flags: W
LayerCount: 2
Fore
SplineSet
321 730 m 1,0,-1
 359 730 l 1,1,-1
 650 0 l 1,2,-1
 615 0 l 1,3,-1
 514 252 l 1,4,-1
 166 252 l 1,5,-1
 66 0 l 1,6,-1
 30 0 l 1,7,-1
 321 730 l 1,0,-1
501 285 m 1,8,-1
 340 687 l 1,9,-1
 180 285 l 1,10,-1
 501 285 l 1,8,-1
235 890 m 256,11,12
 235 934 235 934 266.5 965.5 c 128,-1,13
 298 997 298 997 342 997 c 256,14,15
 386 997 386 997 417.5 965.5 c 128,-1,16
 449 934 449 934 449 890 c 256,17,18
 449 846 449 846 417.5 815 c 128,-1,19
 386 784 386 784 342 784 c 256,20,21
 298 784 298 784 266.5 815 c 128,-1,22
 235 846 235 846 235 890 c 256,11,12
269 890 m 256,23,24
 269 858 269 858 290 837 c 128,-1,25
 311 816 311 816 342 816 c 256,26,27
 373 816 373 816 394 837 c 128,-1,28
 415 858 415 858 415 890 c 256,29,30
 415 922 415 922 394 943.5 c 128,-1,31
 373 965 373 965 342 965 c 256,32,33
 311 965 311 965 290 943.5 c 128,-1,34
 269 922 269 922 269 890 c 256,23,24
EndSplineSet
Validated: 1
Substitution2: "'ss02' Style Set 2 lookup 28 subtable" Aring.ss02
Substitution2: "'aalt' Access All Alternates lookup 0 subtable" Aring.ss02
EndChar

StartChar: AE
Encoding: 134 198 134
Width: 951
GlyphClass: 2
Flags: W
LayerCount: 2
Fore
SplineSet
30 0 m 1,0,-1
 326 730 l 1,1,-1
 901 730 l 1,2,-1
 901 696 l 1,3,-1
 498 696 l 1,4,-1
 498 396 l 1,5,-1
 881 396 l 1,6,-1
 881 362 l 1,7,-1
 498 362 l 1,8,-1
 498 32 l 1,9,-1
 901 32 l 1,10,-1
 901 -1 l 1,11,-1
 465 -1 l 1,12,-1
 465 272 l 1,13,-1
 178 272 l 1,14,-1
 69 0 l 1,15,-1
 30 0 l 1,0,-1
191 305 m 1,16,-1
 465 305 l 1,17,-1
 465 696 l 1,18,-1
 348 696 l 1,19,-1
 191 305 l 1,16,-1
EndSplineSet
Validated: 1
EndChar

StartChar: Ccedilla
Encoding: 135 199 135
Width: 770
GlyphClass: 2
Flags: W
LayerCount: 2
Fore
SplineSet
60 365 m 0,0,1
 60 465 60 465 110 550.5 c 128,-1,2
 160 636 160 636 245.5 686 c 128,-1,3
 331 736 331 736 432 736 c 0,4,5
 519 736 519 736 595 698.5 c 128,-1,6
 671 661 671 661 723 595 c 1,7,-1
 697 575 l 1,8,9
 650 635 650 635 580.5 669 c 128,-1,10
 511 703 511 703 432 703 c 0,11,12
 340 703 340 703 262 658 c 128,-1,13
 184 613 184 613 138.5 535.5 c 128,-1,14
 93 458 93 458 93 366 c 0,15,16
 93 272 93 272 138.5 194 c 128,-1,17
 184 116 184 116 262 70.5 c 128,-1,18
 340 25 340 25 432 25 c 0,19,20
 514 25 514 25 585.5 61.5 c 128,-1,21
 657 98 657 98 703 162 c 1,22,-1
 730 143 l 1,23,24
 678 71 678 71 598.5 31.5 c 128,-1,25
 519 -8 519 -8 429 -8 c 1,26,-1
 415 -52 l 1,27,28
 463 -55 463 -55 489 -78 c 128,-1,29
 515 -101 515 -101 515 -136 c 0,30,31
 515 -159 515 -159 503.5 -178.5 c 128,-1,32
 492 -198 492 -198 470 -209 c 128,-1,33
 448 -220 448 -220 418 -220 c 0,34,35
 394 -220 394 -220 369.5 -212 c 128,-1,36
 345 -204 345 -204 331 -192 c 1,37,-1
 347 -164 l 1,38,39
 355 -172 355 -172 376.5 -179.5 c 128,-1,40
 398 -187 398 -187 419 -187 c 0,41,42
 448 -187 448 -187 465 -173 c 128,-1,43
 482 -159 482 -159 482 -137 c 0,44,45
 482 -113 482 -113 462.5 -99 c 128,-1,46
 443 -85 443 -85 404 -85 c 2,47,-1
 369 -85 l 1,48,-1
 395 -6 l 1,49,50
 302 3 302 3 225 54.5 c 128,-1,51
 148 106 148 106 104 188 c 128,-1,52
 60 270 60 270 60 365 c 0,0,1
EndSplineSet
Validated: 1
EndChar

StartChar: Egrave
Encoding: 136 200 136
Width: 606
GlyphClass: 2
Flags: W
LayerCount: 2
Fore
SplineSet
536 730 m 1,0,-1
 536 697 l 1,1,-1
 133 697 l 1,2,-1
 133 392 l 1,3,-1
 516 392 l 1,4,-1
 516 359 l 1,5,-1
 133 359 l 1,6,-1
 133 33 l 1,7,-1
 546 33 l 1,8,-1
 546 0 l 1,9,-1
 100 0 l 1,10,-1
 100 730 l 1,11,-1
 536 730 l 1,0,-1
278 964 m 1,12,-1
 343 816 l 1,13,-1
 313 816 l 1,14,-1
 243 964 l 1,15,-1
 278 964 l 1,12,-1
EndSplineSet
Validated: 1
EndChar

StartChar: Eacute
Encoding: 137 201 137
Width: 606
GlyphClass: 2
Flags: W
LayerCount: 2
Fore
SplineSet
536 730 m 1,0,-1
 536 697 l 1,1,-1
 133 697 l 1,2,-1
 133 392 l 1,3,-1
 516 392 l 1,4,-1
 516 359 l 1,5,-1
 133 359 l 1,6,-1
 133 33 l 1,7,-1
 546 33 l 1,8,-1
 546 0 l 1,9,-1
 100 0 l 1,10,-1
 100 730 l 1,11,-1
 536 730 l 1,0,-1
367 964 m 1,12,-1
 402 964 l 1,13,-1
 332 816 l 1,14,-1
 302 816 l 1,15,-1
 367 964 l 1,12,-1
EndSplineSet
Validated: 1
EndChar

StartChar: Ecircumflex
Encoding: 138 202 138
Width: 606
GlyphClass: 2
Flags: W
LayerCount: 2
Fore
SplineSet
536 730 m 1,0,-1
 536 697 l 1,1,-1
 133 697 l 1,2,-1
 133 392 l 1,3,-1
 516 392 l 1,4,-1
 516 359 l 1,5,-1
 133 359 l 1,6,-1
 133 33 l 1,7,-1
 546 33 l 1,8,-1
 546 0 l 1,9,-1
 100 0 l 1,10,-1
 100 730 l 1,11,-1
 536 730 l 1,0,-1
303 950 m 1,12,-1
 347 950 l 1,13,-1
 455 830 l 1,14,-1
 411 830 l 1,15,-1
 325 926 l 1,16,-1
 239 830 l 1,17,-1
 195 830 l 1,18,-1
 303 950 l 1,12,-1
EndSplineSet
Validated: 1
EndChar

StartChar: Edieresis
Encoding: 139 203 139
Width: 606
GlyphClass: 2
Flags: W
LayerCount: 2
Fore
SplineSet
536 730 m 1,0,-1
 536 697 l 1,1,-1
 133 697 l 1,2,-1
 133 392 l 1,3,-1
 516 392 l 1,4,-1
 516 359 l 1,5,-1
 133 359 l 1,6,-1
 133 33 l 1,7,-1
 546 33 l 1,8,-1
 546 0 l 1,9,-1
 100 0 l 1,10,-1
 100 730 l 1,11,-1
 536 730 l 1,0,-1
199 914 m 0,12,13
 209 923 209 923 222 923 c 256,14,15
 235 923 235 923 244.5 913 c 128,-1,16
 254 903 254 903 254 890 c 256,17,18
 254 877 254 877 244.5 867 c 128,-1,19
 235 857 235 857 222 857 c 256,20,21
 209 857 209 857 199 867 c 128,-1,22
 189 877 189 877 189 890 c 0,23,24
 189 904 189 904 199 914 c 0,12,13
374 890 m 0,25,26
 374 904 374 904 384 913.5 c 128,-1,27
 394 923 394 923 407 923 c 256,28,29
 420 923 420 923 429.5 913 c 128,-1,30
 439 903 439 903 439 890 c 256,31,32
 439 877 439 877 429.5 867 c 128,-1,33
 420 857 420 857 407 857 c 256,34,35
 394 857 394 857 384 867 c 128,-1,36
 374 877 374 877 374 890 c 0,25,26
EndSplineSet
Validated: 1
EndChar

StartChar: Igrave
Encoding: 140 204 140
Width: 233
GlyphClass: 2
Flags: W
LayerCount: 2
Fore
SplineSet
100 0 m 1,0,-1
 100 730 l 1,1,-1
 133 730 l 1,2,-1
 133 0 l 1,3,-1
 100 0 l 1,0,-1
103 816 m 1,4,-1
 33 964 l 1,5,-1
 68 964 l 1,6,-1
 133 816 l 1,7,-1
 103 816 l 1,4,-1
EndSplineSet
Validated: 1
EndChar

StartChar: Iacute
Encoding: 141 205 141
Width: 233
GlyphClass: 2
Flags: W
LayerCount: 2
Fore
SplineSet
100 0 m 1,0,-1
 100 730 l 1,1,-1
 133 730 l 1,2,-1
 133 0 l 1,3,-1
 100 0 l 1,0,-1
99 816 m 1,4,-1
 164 964 l 1,5,-1
 199 964 l 1,6,-1
 129 816 l 1,7,-1
 99 816 l 1,4,-1
EndSplineSet
Validated: 1
EndChar

StartChar: Icircumflex
Encoding: 142 206 142
Width: 233
GlyphClass: 2
Flags: W
LayerCount: 2
Fore
SplineSet
100 730 m 1,0,-1
 133 730 l 1,1,-1
 133 0 l 1,2,-1
 100 0 l 1,3,-1
 100 730 l 1,0,-1
94 950 m 1,4,-1
 138 950 l 1,5,-1
 246 830 l 1,6,-1
 202 830 l 1,7,-1
 116 926 l 1,8,-1
 30 830 l 1,9,-1
 -14 830 l 1,10,-1
 94 950 l 1,4,-1
EndSplineSet
Validated: 1
EndChar

StartChar: Idieresis
Encoding: 143 207 143
Width: 233
GlyphClass: 2
Flags: W
LayerCount: 2
Fore
SplineSet
133 730 m 1,0,-1
 133 0 l 1,1,-1
 100 0 l 1,2,-1
 100 730 l 1,3,-1
 133 730 l 1,0,-1
21 914 m 0,4,5
 31 923 31 923 44 923 c 256,6,7
 57 923 57 923 66.5 913 c 128,-1,8
 76 903 76 903 76 890 c 256,9,10
 76 877 76 877 66.5 867 c 128,-1,11
 57 857 57 857 44 857 c 256,12,13
 31 857 31 857 21 867 c 128,-1,14
 11 877 11 877 11 890 c 0,15,16
 11 904 11 904 21 914 c 0,4,5
156 890 m 0,17,18
 156 904 156 904 166 913.5 c 128,-1,19
 176 923 176 923 189 923 c 256,20,21
 202 923 202 923 211.5 913 c 128,-1,22
 221 903 221 903 221 890 c 256,23,24
 221 877 221 877 211.5 867 c 128,-1,25
 202 857 202 857 189 857 c 256,26,27
 176 857 176 857 166 867 c 128,-1,28
 156 877 156 877 156 890 c 0,17,18
EndSplineSet
Validated: 1
EndChar

StartChar: Eth
Encoding: 144 208 144
Width: 750
GlyphClass: 2
Flags: W
LayerCount: 2
Fore
SplineSet
100 0 m 1,0,-1
 100 349 l 1,1,-1
 50 349 l 1,2,-1
 50 382 l 1,3,-1
 100 382 l 1,4,-1
 100 730 l 1,5,-1
 307 730 l 2,6,7
 417 730 417 730 504.5 681 c 128,-1,8
 592 632 592 632 641 549 c 128,-1,9
 690 466 690 466 690 366 c 0,10,11
 690 265 690 265 643 181 c 128,-1,12
 596 97 596 97 509 48.5 c 128,-1,13
 422 0 422 0 307 0 c 2,14,-1
 100 0 l 1,0,-1
307 34 m 2,15,16
 413 34 413 34 492.5 78.5 c 128,-1,17
 572 123 572 123 614 199.5 c 128,-1,18
 656 276 656 276 656 368 c 0,19,20
 656 456 656 456 612 531 c 128,-1,21
 568 606 568 606 488.5 651 c 128,-1,22
 409 696 409 696 307 696 c 2,23,-1
 134 696 l 1,24,-1
 134 382 l 1,25,-1
 434 382 l 1,26,-1
 434 349 l 1,27,-1
 134 349 l 1,28,-1
 134 34 l 1,29,-1
 307 34 l 2,15,16
EndSplineSet
Validated: 1
EndChar

StartChar: Ntilde
Encoding: 145 209 145
Width: 800
GlyphClass: 2
Flags: W
LayerCount: 2
Fore
SplineSet
100 0 m 1,0,-1
 100 730 l 1,1,-1
 133 730 l 1,2,-1
 667 54 l 1,3,-1
 667 730 l 1,4,-1
 700 730 l 1,5,-1
 700 0 l 1,6,-1
 667 0 l 1,7,-1
 133 678 l 1,8,-1
 133 0 l 1,9,-1
 100 0 l 1,0,-1
459 836 m 0,10,11
 434 833 434 833 415.5 844.5 c 128,-1,12
 397 856 397 856 373 880 c 0,13,14
 355 898 355 898 343 906.5 c 128,-1,15
 331 915 331 915 318 914 c 0,16,17
 300 913 300 913 289 894.5 c 128,-1,18
 278 876 278 876 278 844 c 1,19,-1
 245 844 l 1,20,21
 245 890 245 890 265.5 917.5 c 128,-1,22
 286 945 286 945 316 947 c 0,23,24
 340 949 340 949 356.5 938 c 128,-1,25
 373 927 373 927 396 904 c 0,26,27
 413 886 413 886 426.5 876.5 c 128,-1,28
 440 867 440 867 456 868 c 256,29,30
 472 869 472 869 482 886.5 c 128,-1,31
 492 904 492 904 492 938 c 1,32,-1
 525 938 l 1,33,34
 525 891 525 891 506.5 864.5 c 128,-1,35
 488 838 488 838 459 836 c 0,10,11
EndSplineSet
Validated: 33
Substitution2: "'ss02' Style Set 2 lookup 28 subtable" Ntilde.ss02
Substitution2: "'aalt' Access All Alternates lookup 0 subtable" Ntilde.ss02
EndChar

StartChar: Ograve
Encoding: 146 210 146
Width: 863
GlyphClass: 2
Flags: W
LayerCount: 2
Fore
SplineSet
432 -8 m 256,0,1
 331 -8 331 -8 245.5 42 c 128,-1,2
 160 92 160 92 110 178 c 128,-1,3
 60 264 60 264 60 365 c 0,4,5
 60 465 60 465 110 550.5 c 128,-1,6
 160 636 160 636 245.5 686 c 128,-1,7
 331 736 331 736 432 736 c 256,8,9
 533 736 533 736 618 686 c 128,-1,10
 703 636 703 636 753 550.5 c 128,-1,11
 803 465 803 465 803 365 c 0,12,13
 803 264 803 264 753 178 c 128,-1,14
 703 92 703 92 618 42 c 128,-1,15
 533 -8 533 -8 432 -8 c 256,0,1
432 25 m 256,16,17
 524 25 524 25 601.5 70.5 c 128,-1,18
 679 116 679 116 724.5 194 c 128,-1,19
 770 272 770 272 770 366 c 0,20,21
 770 458 770 458 724.5 535.5 c 128,-1,22
 679 613 679 613 601.5 658 c 128,-1,23
 524 703 524 703 432 703 c 256,24,25
 340 703 340 703 262 658 c 128,-1,26
 184 613 184 613 138.5 535.5 c 128,-1,27
 93 458 93 458 93 366 c 0,28,29
 93 272 93 272 138.5 194 c 128,-1,30
 184 116 184 116 262 70.5 c 128,-1,31
 340 25 340 25 432 25 c 256,16,17
417 816 m 1,32,-1
 347 964 l 1,33,-1
 382 964 l 1,34,-1
 447 816 l 1,35,-1
 417 816 l 1,32,-1
EndSplineSet
Validated: 1
EndChar

StartChar: Oacute
Encoding: 147 211 147
Width: 863
GlyphClass: 2
Flags: W
LayerCount: 2
Fore
SplineSet
432 -8 m 256,0,1
 331 -8 331 -8 245.5 42 c 128,-1,2
 160 92 160 92 110 178 c 128,-1,3
 60 264 60 264 60 365 c 0,4,5
 60 465 60 465 110 550.5 c 128,-1,6
 160 636 160 636 245.5 686 c 128,-1,7
 331 736 331 736 432 736 c 256,8,9
 533 736 533 736 618 686 c 128,-1,10
 703 636 703 636 753 550.5 c 128,-1,11
 803 465 803 465 803 365 c 0,12,13
 803 264 803 264 753 178 c 128,-1,14
 703 92 703 92 618 42 c 128,-1,15
 533 -8 533 -8 432 -8 c 256,0,1
432 25 m 256,16,17
 524 25 524 25 601.5 70.5 c 128,-1,18
 679 116 679 116 724.5 194 c 128,-1,19
 770 272 770 272 770 366 c 0,20,21
 770 458 770 458 724.5 535.5 c 128,-1,22
 679 613 679 613 601.5 658 c 128,-1,23
 524 703 524 703 432 703 c 256,24,25
 340 703 340 703 262 658 c 128,-1,26
 184 613 184 613 138.5 535.5 c 128,-1,27
 93 458 93 458 93 366 c 0,28,29
 93 272 93 272 138.5 194 c 128,-1,30
 184 116 184 116 262 70.5 c 128,-1,31
 340 25 340 25 432 25 c 256,16,17
420 816 m 1,32,-1
 485 964 l 1,33,-1
 520 964 l 1,34,-1
 450 816 l 1,35,-1
 420 816 l 1,32,-1
EndSplineSet
Validated: 1
EndChar

StartChar: Ocircumflex
Encoding: 148 212 148
Width: 863
GlyphClass: 2
Flags: W
LayerCount: 2
Fore
SplineSet
432 -8 m 256,0,1
 331 -8 331 -8 245.5 42 c 128,-1,2
 160 92 160 92 110 178 c 128,-1,3
 60 264 60 264 60 365 c 0,4,5
 60 465 60 465 110 550.5 c 128,-1,6
 160 636 160 636 245.5 686 c 128,-1,7
 331 736 331 736 432 736 c 256,8,9
 533 736 533 736 618 686 c 128,-1,10
 703 636 703 636 753 550.5 c 128,-1,11
 803 465 803 465 803 365 c 0,12,13
 803 264 803 264 753 178 c 128,-1,14
 703 92 703 92 618 42 c 128,-1,15
 533 -8 533 -8 432 -8 c 256,0,1
432 25 m 256,16,17
 524 25 524 25 601.5 70.5 c 128,-1,18
 679 116 679 116 724.5 194 c 128,-1,19
 770 272 770 272 770 366 c 0,20,21
 770 458 770 458 724.5 535.5 c 128,-1,22
 679 613 679 613 601.5 658 c 128,-1,23
 524 703 524 703 432 703 c 256,24,25
 340 703 340 703 262 658 c 128,-1,26
 184 613 184 613 138.5 535.5 c 128,-1,27
 93 458 93 458 93 366 c 0,28,29
 93 272 93 272 138.5 194 c 128,-1,30
 184 116 184 116 262 70.5 c 128,-1,31
 340 25 340 25 432 25 c 256,16,17
294 830 m 1,32,-1
 402 950 l 1,33,-1
 446 950 l 1,34,-1
 554 830 l 1,35,-1
 510 830 l 1,36,-1
 424 926 l 1,37,-1
 338 830 l 1,38,-1
 294 830 l 1,32,-1
EndSplineSet
Validated: 1
EndChar

StartChar: Otilde
Encoding: 149 213 149
Width: 863
GlyphClass: 2
Flags: W
LayerCount: 2
Fore
SplineSet
432 -8 m 256,0,1
 331 -8 331 -8 245.5 42 c 128,-1,2
 160 92 160 92 110 178 c 128,-1,3
 60 264 60 264 60 365 c 0,4,5
 60 465 60 465 110 550.5 c 128,-1,6
 160 636 160 636 245.5 686 c 128,-1,7
 331 736 331 736 432 736 c 256,8,9
 533 736 533 736 618 686 c 128,-1,10
 703 636 703 636 753 550.5 c 128,-1,11
 803 465 803 465 803 365 c 0,12,13
 803 264 803 264 753 178 c 128,-1,14
 703 92 703 92 618 42 c 128,-1,15
 533 -8 533 -8 432 -8 c 256,0,1
432 25 m 256,16,17
 524 25 524 25 601.5 70.5 c 128,-1,18
 679 116 679 116 724.5 194 c 128,-1,19
 770 272 770 272 770 366 c 0,20,21
 770 458 770 458 724.5 535.5 c 128,-1,22
 679 613 679 613 601.5 658 c 128,-1,23
 524 703 524 703 432 703 c 256,24,25
 340 703 340 703 262 658 c 128,-1,26
 184 613 184 613 138.5 535.5 c 128,-1,27
 93 458 93 458 93 366 c 0,28,29
 93 272 93 272 138.5 194 c 128,-1,30
 184 116 184 116 262 70.5 c 128,-1,31
 340 25 340 25 432 25 c 256,16,17
502 836 m 0,32,33
 477 833 477 833 458 845 c 128,-1,34
 439 857 439 857 416 880 c 0,35,36
 398 898 398 898 386 906.5 c 128,-1,37
 374 915 374 915 361 914 c 0,38,39
 343 913 343 913 332 894.5 c 128,-1,40
 321 876 321 876 321 844 c 1,41,-1
 288 844 l 1,42,43
 288 890 288 890 308.5 917.5 c 128,-1,44
 329 945 329 945 359 947 c 0,45,46
 383 949 383 949 399.5 938 c 128,-1,47
 416 927 416 927 439 904 c 0,48,49
 456 886 456 886 469.5 876.5 c 128,-1,50
 483 867 483 867 499 868 c 256,51,52
 515 869 515 869 525 886.5 c 128,-1,53
 535 904 535 904 535 938 c 1,54,-1
 568 938 l 1,55,56
 568 891 568 891 549.5 864.5 c 128,-1,57
 531 838 531 838 502 836 c 0,32,33
EndSplineSet
Validated: 33
EndChar

StartChar: Odieresis
Encoding: 150 214 150
Width: 863
GlyphClass: 2
Flags: W
LayerCount: 2
Fore
SplineSet
432 -8 m 256,0,1
 331 -8 331 -8 245.5 42 c 128,-1,2
 160 92 160 92 110 178 c 128,-1,3
 60 264 60 264 60 365 c 0,4,5
 60 465 60 465 110 550.5 c 128,-1,6
 160 636 160 636 245.5 686 c 128,-1,7
 331 736 331 736 432 736 c 256,8,9
 533 736 533 736 618 686 c 128,-1,10
 703 636 703 636 753 550.5 c 128,-1,11
 803 465 803 465 803 365 c 0,12,13
 803 264 803 264 753 178 c 128,-1,14
 703 92 703 92 618 42 c 128,-1,15
 533 -8 533 -8 432 -8 c 256,0,1
432 25 m 256,16,17
 524 25 524 25 601.5 70.5 c 128,-1,18
 679 116 679 116 724.5 194 c 128,-1,19
 770 272 770 272 770 366 c 0,20,21
 770 458 770 458 724.5 535.5 c 128,-1,22
 679 613 679 613 601.5 658 c 128,-1,23
 524 703 524 703 432 703 c 256,24,25
 340 703 340 703 262 658 c 128,-1,26
 184 613 184 613 138.5 535.5 c 128,-1,27
 93 458 93 458 93 366 c 0,28,29
 93 272 93 272 138.5 194 c 128,-1,30
 184 116 184 116 262 70.5 c 128,-1,31
 340 25 340 25 432 25 c 256,16,17
333 857 m 256,32,33
 320 857 320 857 310 867 c 128,-1,34
 300 877 300 877 300 890 c 0,35,36
 300 904 300 904 310 913.5 c 128,-1,37
 320 923 320 923 333 923 c 256,38,39
 346 923 346 923 355.5 913 c 128,-1,40
 365 903 365 903 365 890 c 256,41,42
 365 877 365 877 355.5 867 c 128,-1,43
 346 857 346 857 333 857 c 256,32,33
518 857 m 256,44,45
 505 857 505 857 495 867 c 128,-1,46
 485 877 485 877 485 890 c 0,47,48
 485 904 485 904 495 913.5 c 128,-1,49
 505 923 505 923 518 923 c 256,50,51
 531 923 531 923 540.5 913 c 128,-1,52
 550 903 550 903 550 890 c 256,53,54
 550 877 550 877 540.5 867 c 128,-1,55
 531 857 531 857 518 857 c 256,44,45
EndSplineSet
Validated: 1
EndChar

StartChar: multiply
Encoding: 151 215 151
Width: 469
GlyphClass: 2
Flags: W
LayerCount: 2
Fore
SplineSet
386 190 m 1,0,-1
 235 342 l 1,1,-1
 84 191 l 1,2,-1
 60 214 l 1,3,-1
 211 365 l 1,4,-1
 60 516 l 1,5,-1
 84 539 l 1,6,-1
 235 389 l 1,7,-1
 386 540 l 1,8,-1
 409 516 l 1,9,-1
 258 365 l 1,10,-1
 409 214 l 1,11,-1
 386 190 l 1,0,-1
EndSplineSet
Validated: 1
EndChar

StartChar: Oslash
Encoding: 152 216 152
Width: 863
GlyphClass: 2
Flags: W
LayerCount: 2
Fore
SplineSet
432 -7 m 0,0,1
 360 -7 360 -7 295.5 18.5 c 128,-1,2
 231 44 231 44 181 91 c 1,3,-1
 107 17 l 1,4,-1
 83 40 l 1,5,-1
 157 114 l 1,6,7
 111 165 111 165 85.5 230 c 128,-1,8
 60 295 60 295 60 366 c 0,9,10
 60 466 60 466 110 551.5 c 128,-1,11
 160 637 160 637 245.5 687 c 128,-1,12
 331 737 331 737 432 737 c 0,13,14
 504 737 504 737 568.5 711.5 c 128,-1,15
 633 686 633 686 683 639 c 1,16,-1
 757 713 l 1,17,-1
 780 690 l 1,18,-1
 706 616 l 1,19,20
 752 565 752 565 777.5 501 c 128,-1,21
 803 437 803 437 803 366 c 0,22,23
 803 265 803 265 753 179 c 128,-1,24
 703 93 703 93 618 43 c 128,-1,25
 533 -7 533 -7 432 -7 c 0,0,1
432 26 m 0,26,27
 524 26 524 26 601.5 71.5 c 128,-1,28
 679 117 679 117 724.5 195 c 128,-1,29
 770 273 770 273 770 367 c 0,30,31
 770 431 770 431 747 489 c 128,-1,32
 724 547 724 547 683 593 c 1,33,-1
 204 114 l 1,34,35
 250 72 250 72 308.5 49 c 128,-1,36
 367 26 367 26 432 26 c 0,26,27
660 616 m 1,37,38
 614 658 614 658 555.5 681 c 128,-1,39
 497 704 497 704 432 704 c 0,40,41
 339 704 339 704 261.5 659 c 128,-1,42
 184 614 184 614 138.5 536.5 c 128,-1,43
 93 459 93 459 93 367 c 0,44,45
 93 301 93 301 116 242 c 128,-1,46
 139 183 139 183 180 137 c 1,47,-1
 660 616 l 1,37,38
EndSplineSet
Validated: 1
EndChar

StartChar: Ugrave
Encoding: 153 217 153
Width: 730
GlyphClass: 2
Flags: W
LayerCount: 2
Fore
SplineSet
366 -6 m 0,0,1
 288 -6 288 -6 225.5 28 c 128,-1,2
 163 62 163 62 126.5 126.5 c 128,-1,3
 90 191 90 191 90 279 c 2,4,-1
 90 730 l 1,5,-1
 123 730 l 1,6,-1
 123 280 l 2,7,8
 123 198 123 198 154.5 141 c 128,-1,9
 186 84 186 84 239.5 55.5 c 128,-1,10
 293 27 293 27 361 27 c 0,11,12
 430 27 430 27 485.5 55.5 c 128,-1,13
 541 84 541 84 574 141 c 128,-1,14
 607 198 607 198 607 280 c 2,15,-1
 607 730 l 1,16,-1
 640 730 l 1,17,-1
 640 279 l 2,18,19
 640 191 640 191 603.5 126.5 c 128,-1,20
 567 62 567 62 504.5 28 c 128,-1,21
 442 -6 442 -6 366 -6 c 0,0,1
351 816 m 1,22,-1
 281 964 l 1,23,-1
 316 964 l 1,24,-1
 381 816 l 1,25,-1
 351 816 l 1,22,-1
EndSplineSet
Validated: 1
EndChar

StartChar: Uacute
Encoding: 154 218 154
Width: 730
GlyphClass: 2
Flags: W
LayerCount: 2
Fore
SplineSet
366 -6 m 0,0,1
 288 -6 288 -6 225.5 28 c 128,-1,2
 163 62 163 62 126.5 126.5 c 128,-1,3
 90 191 90 191 90 279 c 2,4,-1
 90 730 l 1,5,-1
 123 730 l 1,6,-1
 123 280 l 2,7,8
 123 198 123 198 154.5 141 c 128,-1,9
 186 84 186 84 239.5 55.5 c 128,-1,10
 293 27 293 27 361 27 c 0,11,12
 430 27 430 27 485.5 55.5 c 128,-1,13
 541 84 541 84 574 141 c 128,-1,14
 607 198 607 198 607 280 c 2,15,-1
 607 730 l 1,16,-1
 640 730 l 1,17,-1
 640 279 l 2,18,19
 640 191 640 191 603.5 126.5 c 128,-1,20
 567 62 567 62 504.5 28 c 128,-1,21
 442 -6 442 -6 366 -6 c 0,0,1
343 816 m 1,22,-1
 408 964 l 1,23,-1
 443 964 l 1,24,-1
 373 816 l 1,25,-1
 343 816 l 1,22,-1
EndSplineSet
Validated: 1
EndChar

StartChar: Ucircumflex
Encoding: 155 219 155
Width: 730
GlyphClass: 2
Flags: W
LayerCount: 2
Fore
SplineSet
366 -6 m 0,0,1
 288 -6 288 -6 225.5 28 c 128,-1,2
 163 62 163 62 126.5 126.5 c 128,-1,3
 90 191 90 191 90 279 c 2,4,-1
 90 730 l 1,5,-1
 123 730 l 1,6,-1
 123 280 l 2,7,8
 123 198 123 198 154.5 141 c 128,-1,9
 186 84 186 84 239.5 55.5 c 128,-1,10
 293 27 293 27 361 27 c 0,11,12
 430 27 430 27 485.5 55.5 c 128,-1,13
 541 84 541 84 574 141 c 128,-1,14
 607 198 607 198 607 280 c 2,15,-1
 607 730 l 1,16,-1
 640 730 l 1,17,-1
 640 279 l 2,18,19
 640 191 640 191 603.5 126.5 c 128,-1,20
 567 62 567 62 504.5 28 c 128,-1,21
 442 -6 442 -6 366 -6 c 0,0,1
224 830 m 1,22,-1
 332 950 l 1,23,-1
 376 950 l 1,24,-1
 484 830 l 1,25,-1
 440 830 l 1,26,-1
 354 926 l 1,27,-1
 268 830 l 1,28,-1
 224 830 l 1,22,-1
EndSplineSet
Validated: 1
EndChar

StartChar: Udieresis
Encoding: 156 220 156
Width: 730
GlyphClass: 2
Flags: W
LayerCount: 2
Fore
SplineSet
366 -6 m 0,0,1
 288 -6 288 -6 225.5 28 c 128,-1,2
 163 62 163 62 126.5 126.5 c 128,-1,3
 90 191 90 191 90 279 c 2,4,-1
 90 730 l 1,5,-1
 123 730 l 1,6,-1
 123 280 l 2,7,8
 123 198 123 198 154.5 141 c 128,-1,9
 186 84 186 84 239.5 55.5 c 128,-1,10
 293 27 293 27 361 27 c 0,11,12
 430 27 430 27 485.5 55.5 c 128,-1,13
 541 84 541 84 574 141 c 128,-1,14
 607 198 607 198 607 280 c 2,15,-1
 607 730 l 1,16,-1
 640 730 l 1,17,-1
 640 279 l 2,18,19
 640 191 640 191 603.5 126.5 c 128,-1,20
 567 62 567 62 504.5 28 c 128,-1,21
 442 -6 442 -6 366 -6 c 0,0,1
273 857 m 256,22,23
 260 857 260 857 250 867 c 128,-1,24
 240 877 240 877 240 890 c 0,25,26
 240 904 240 904 250 913.5 c 128,-1,27
 260 923 260 923 273 923 c 256,28,29
 286 923 286 923 295.5 913 c 128,-1,30
 305 903 305 903 305 890 c 256,31,32
 305 877 305 877 295.5 867 c 128,-1,33
 286 857 286 857 273 857 c 256,22,23
458 857 m 256,34,35
 445 857 445 857 435 867 c 128,-1,36
 425 877 425 877 425 890 c 0,37,38
 425 904 425 904 435 913.5 c 128,-1,39
 445 923 445 923 458 923 c 256,40,41
 471 923 471 923 480.5 913 c 128,-1,42
 490 903 490 903 490 890 c 256,43,44
 490 877 490 877 480.5 867 c 128,-1,45
 471 857 471 857 458 857 c 256,34,35
EndSplineSet
Validated: 1
EndChar

StartChar: Yacute
Encoding: 157 221 157
Width: 640
GlyphClass: 2
Flags: W
LayerCount: 2
Fore
SplineSet
303 0 m 1,0,-1
 303 326 l 1,1,-1
 20 730 l 1,2,-1
 61 730 l 1,3,-1
 320 359 l 1,4,-1
 579 730 l 1,5,-1
 620 730 l 1,6,-1
 336 324 l 1,7,-1
 336 0 l 1,8,-1
 303 0 l 1,0,-1
297 816 m 1,9,-1
 362 964 l 1,10,-1
 397 964 l 1,11,-1
 327 816 l 1,12,-1
 297 816 l 1,9,-1
EndSplineSet
Validated: 1
EndChar

StartChar: Thorn
Encoding: 158 222 158
Width: 659
GlyphClass: 2
Flags: W
LayerCount: 2
Fore
SplineSet
100 0 m 1,0,-1
 100 730 l 1,1,-1
 133 730 l 1,2,-1
 133 581 l 1,3,-1
 373 581 l 2,4,5
 437 581 437 581 488.5 552 c 128,-1,6
 540 523 540 523 569.5 473.5 c 128,-1,7
 599 424 599 424 599 365 c 256,8,9
 599 306 599 306 569.5 256.5 c 128,-1,10
 540 207 540 207 488.5 178 c 128,-1,11
 437 149 437 149 373 149 c 2,12,-1
 133 149 l 1,13,-1
 133 0 l 1,14,-1
 100 0 l 1,0,-1
373 182 m 2,15,16
 430 182 430 182 474 207.5 c 128,-1,17
 518 233 518 233 542 275 c 128,-1,18
 566 317 566 317 566 365 c 256,19,20
 566 413 566 413 542 455 c 128,-1,21
 518 497 518 497 474 522.5 c 128,-1,22
 430 548 430 548 373 548 c 2,23,-1
 133 548 l 1,24,-1
 133 182 l 1,25,-1
 373 182 l 2,15,16
EndSplineSet
Validated: 1
EndChar

StartChar: germandbls
Encoding: 159 223 159
Width: 612
GlyphClass: 2
Flags: W
LayerCount: 2
Fore
SplineSet
353 -10 m 0,0,1
 310 -10 310 -10 270 0 c 128,-1,2
 230 10 230 10 211 23 c 1,3,-1
 211 60 l 1,4,5
 244 41 244 41 276 32 c 128,-1,6
 308 23 308 23 353 23 c 0,7,8
 394 23 394 23 434.5 41.5 c 128,-1,9
 475 60 475 60 502 98.5 c 128,-1,10
 529 137 529 137 529 195 c 0,11,12
 529 238 529 238 513 266.5 c 128,-1,13
 497 295 497 295 475.5 311 c 128,-1,14
 454 327 454 327 419 346 c 0,15,16
 383 365 383 365 366 380 c 128,-1,17
 349 395 349 395 349 420 c 0,18,19
 349 440 349 440 359.5 453.5 c 128,-1,20
 370 467 370 467 393 487 c 0,21,22
 423 513 423 513 438.5 536 c 128,-1,23
 454 559 454 559 454 598 c 0,24,25
 454 639 454 639 434 675.5 c 128,-1,26
 414 712 414 712 377.5 734.5 c 128,-1,27
 341 757 341 757 294 757 c 0,28,29
 259 757 259 757 222.5 741.5 c 128,-1,30
 186 726 186 726 159.5 686.5 c 128,-1,31
 133 647 133 647 133 581 c 2,32,-1
 133 0 l 1,33,-1
 100 0 l 1,34,-1
 100 584 l 2,35,36
 100 647 100 647 126 693.5 c 128,-1,37
 152 740 152 740 196.5 765 c 128,-1,38
 241 790 241 790 294 790 c 0,39,40
 351 790 351 790 395 762.5 c 128,-1,41
 439 735 439 735 463 690.5 c 128,-1,42
 487 646 487 646 487 598 c 256,43,44
 487 550 487 550 467.5 520 c 128,-1,45
 448 490 448 490 414 461 c 0,46,47
 397 447 397 447 389.5 438 c 128,-1,48
 382 429 382 429 382 420 c 0,49,50
 382 409 382 409 394 400 c 128,-1,51
 406 391 406 391 431 377 c 0,52,53
 469 358 469 358 495.5 337.5 c 128,-1,54
 522 317 522 317 542 282 c 128,-1,55
 562 247 562 247 562 195 c 0,56,57
 562 139 562 139 535.5 92 c 128,-1,58
 509 45 509 45 461.5 17.5 c 128,-1,59
 414 -10 414 -10 353 -10 c 0,0,1
EndSplineSet
Validated: 1
EndChar

StartChar: agrave
Encoding: 160 224 160
Width: 701
GlyphClass: 2
Flags: W
LayerCount: 2
Fore
SplineSet
330 -6 m 0,0,1
 254 -6 254 -6 190 31.5 c 128,-1,2
 126 69 126 69 88 133.5 c 128,-1,3
 50 198 50 198 50 274 c 256,4,5
 50 350 50 350 88 414.5 c 128,-1,6
 126 479 126 479 190 517 c 128,-1,7
 254 555 254 555 330 555 c 0,8,9
 412 555 412 555 481.5 510 c 128,-1,10
 551 465 551 465 578 397 c 1,11,-1
 578 550 l 1,12,-1
 611 550 l 1,13,-1
 611 0 l 1,14,-1
 578 0 l 1,15,-1
 578 149 l 1,16,17
 551 83 551 83 481.5 38.5 c 128,-1,18
 412 -6 412 -6 330 -6 c 0,0,1
330 27 m 0,19,20
 397 27 397 27 454 60.5 c 128,-1,21
 511 94 511 94 544.5 150.5 c 128,-1,22
 578 207 578 207 578 274 c 256,23,24
 578 341 578 341 544.5 398 c 128,-1,25
 511 455 511 455 454 488.5 c 128,-1,26
 397 522 397 522 330 522 c 0,27,28
 264 522 264 522 207 488.5 c 128,-1,29
 150 455 150 455 116.5 398 c 128,-1,30
 83 341 83 341 83 274 c 256,31,32
 83 207 83 207 116.5 150.5 c 128,-1,33
 150 94 150 94 207 60.5 c 128,-1,34
 264 27 264 27 330 27 c 0,19,20
341 646 m 1,35,-1
 271 794 l 1,36,-1
 306 794 l 1,37,-1
 371 646 l 1,38,-1
 341 646 l 1,35,-1
EndSplineSet
Validated: 1
Substitution2: "'ss02' Style Set 2 lookup 28 subtable" agrave.ss02
Substitution2: "'ss01' Style Set 1 lookup 27 subtable" agrave.ss01
Substitution2: "'salt' Stylistic Alternatives lookup 26 subtable" agrave.ss01
AlternateSubs2: "'aalt' Access All Alternates lookup 1 subtable" agrave.ss01 agrave.ss02
EndChar

StartChar: aacute
Encoding: 161 225 161
Width: 701
GlyphClass: 2
Flags: W
LayerCount: 2
Fore
SplineSet
330 -6 m 0,0,1
 254 -6 254 -6 190 31.5 c 128,-1,2
 126 69 126 69 88 133.5 c 128,-1,3
 50 198 50 198 50 274 c 256,4,5
 50 350 50 350 88 414.5 c 128,-1,6
 126 479 126 479 190 517 c 128,-1,7
 254 555 254 555 330 555 c 0,8,9
 412 555 412 555 481.5 510 c 128,-1,10
 551 465 551 465 578 397 c 1,11,-1
 578 550 l 1,12,-1
 611 550 l 1,13,-1
 611 0 l 1,14,-1
 578 0 l 1,15,-1
 578 149 l 1,16,17
 551 83 551 83 481.5 38.5 c 128,-1,18
 412 -6 412 -6 330 -6 c 0,0,1
330 27 m 0,19,20
 397 27 397 27 454 60.5 c 128,-1,21
 511 94 511 94 544.5 150.5 c 128,-1,22
 578 207 578 207 578 274 c 256,23,24
 578 341 578 341 544.5 398 c 128,-1,25
 511 455 511 455 454 488.5 c 128,-1,26
 397 522 397 522 330 522 c 0,27,28
 264 522 264 522 207 488.5 c 128,-1,29
 150 455 150 455 116.5 398 c 128,-1,30
 83 341 83 341 83 274 c 256,31,32
 83 207 83 207 116.5 150.5 c 128,-1,33
 150 94 150 94 207 60.5 c 128,-1,34
 264 27 264 27 330 27 c 0,19,20
317 646 m 1,35,-1
 382 794 l 1,36,-1
 417 794 l 1,37,-1
 347 646 l 1,38,-1
 317 646 l 1,35,-1
EndSplineSet
Validated: 1
Substitution2: "'ss02' Style Set 2 lookup 28 subtable" aacute.ss02
Substitution2: "'ss01' Style Set 1 lookup 27 subtable" aacute.ss01
Substitution2: "'salt' Stylistic Alternatives lookup 26 subtable" aacute.ss01
AlternateSubs2: "'aalt' Access All Alternates lookup 1 subtable" aacute.ss01 aacute.ss02
EndChar

StartChar: acircumflex
Encoding: 162 226 162
Width: 701
GlyphClass: 2
Flags: W
LayerCount: 2
Fore
SplineSet
330 -6 m 0,0,1
 254 -6 254 -6 190 31.5 c 128,-1,2
 126 69 126 69 88 133.5 c 128,-1,3
 50 198 50 198 50 274 c 256,4,5
 50 350 50 350 88 414.5 c 128,-1,6
 126 479 126 479 190 517 c 128,-1,7
 254 555 254 555 330 555 c 0,8,9
 412 555 412 555 481.5 510 c 128,-1,10
 551 465 551 465 578 397 c 1,11,-1
 578 550 l 1,12,-1
 611 550 l 1,13,-1
 611 0 l 1,14,-1
 578 0 l 1,15,-1
 578 149 l 1,16,17
 551 83 551 83 481.5 38.5 c 128,-1,18
 412 -6 412 -6 330 -6 c 0,0,1
330 27 m 0,19,20
 397 27 397 27 454 60.5 c 128,-1,21
 511 94 511 94 544.5 150.5 c 128,-1,22
 578 207 578 207 578 274 c 256,23,24
 578 341 578 341 544.5 398 c 128,-1,25
 511 455 511 455 454 488.5 c 128,-1,26
 397 522 397 522 330 522 c 0,27,28
 264 522 264 522 207 488.5 c 128,-1,29
 150 455 150 455 116.5 398 c 128,-1,30
 83 341 83 341 83 274 c 256,31,32
 83 207 83 207 116.5 150.5 c 128,-1,33
 150 94 150 94 207 60.5 c 128,-1,34
 264 27 264 27 330 27 c 0,19,20
210 660 m 1,35,-1
 318 780 l 1,36,-1
 362 780 l 1,37,-1
 470 660 l 1,38,-1
 426 660 l 1,39,-1
 340 756 l 1,40,-1
 254 660 l 1,41,-1
 210 660 l 1,35,-1
EndSplineSet
Validated: 1
Substitution2: "'ss02' Style Set 2 lookup 28 subtable" acircumflex.ss02
Substitution2: "'ss01' Style Set 1 lookup 27 subtable" acircumflex.ss01
Substitution2: "'salt' Stylistic Alternatives lookup 26 subtable" acircumflex.ss01
AlternateSubs2: "'aalt' Access All Alternates lookup 1 subtable" acircumflex.ss01 acircumflex.ss02
EndChar

StartChar: atilde
Encoding: 163 227 163
Width: 701
GlyphClass: 2
Flags: W
LayerCount: 2
Fore
SplineSet
330 -6 m 0,0,1
 254 -6 254 -6 190 31.5 c 128,-1,2
 126 69 126 69 88 133.5 c 128,-1,3
 50 198 50 198 50 274 c 256,4,5
 50 350 50 350 88 414.5 c 128,-1,6
 126 479 126 479 190 517 c 128,-1,7
 254 555 254 555 330 555 c 0,8,9
 412 555 412 555 481.5 510 c 128,-1,10
 551 465 551 465 578 397 c 1,11,-1
 578 550 l 1,12,-1
 611 550 l 1,13,-1
 611 0 l 1,14,-1
 578 0 l 1,15,-1
 578 149 l 1,16,17
 551 83 551 83 481.5 38.5 c 128,-1,18
 412 -6 412 -6 330 -6 c 0,0,1
330 27 m 0,19,20
 397 27 397 27 454 60.5 c 128,-1,21
 511 94 511 94 544.5 150.5 c 128,-1,22
 578 207 578 207 578 274 c 256,23,24
 578 341 578 341 544.5 398 c 128,-1,25
 511 455 511 455 454 488.5 c 128,-1,26
 397 522 397 522 330 522 c 0,27,28
 264 522 264 522 207 488.5 c 128,-1,29
 150 455 150 455 116.5 398 c 128,-1,30
 83 341 83 341 83 274 c 256,31,32
 83 207 83 207 116.5 150.5 c 128,-1,33
 150 94 150 94 207 60.5 c 128,-1,34
 264 27 264 27 330 27 c 0,19,20
421 666 m 0,35,36
 396 663 396 663 377.5 675 c 128,-1,37
 359 687 359 687 335 710 c 0,38,39
 317 728 317 728 305 736.5 c 128,-1,40
 293 745 293 745 280 744 c 0,41,42
 262 743 262 743 251 724.5 c 128,-1,43
 240 706 240 706 240 674 c 1,44,-1
 207 674 l 1,45,46
 207 720 207 720 227 747.5 c 128,-1,47
 247 775 247 775 278 777 c 0,48,49
 302 779 302 779 319.5 767.5 c 128,-1,50
 337 756 337 756 358 734 c 0,51,52
 375 716 375 716 388.5 706.5 c 128,-1,53
 402 697 402 697 418 698 c 256,54,55
 434 699 434 699 444 716.5 c 128,-1,56
 454 734 454 734 454 768 c 1,57,-1
 487 768 l 1,58,59
 487 721 487 721 468.5 695 c 128,-1,60
 450 669 450 669 421 666 c 0,35,36
EndSplineSet
Validated: 33
Substitution2: "'ss02' Style Set 2 lookup 28 subtable" atilde.ss02
Substitution2: "'ss01' Style Set 1 lookup 27 subtable" atilde.ss01
Substitution2: "'salt' Stylistic Alternatives lookup 26 subtable" atilde.ss01
AlternateSubs2: "'aalt' Access All Alternates lookup 1 subtable" atilde.ss01 atilde.ss02
EndChar

StartChar: adieresis
Encoding: 164 228 164
Width: 701
GlyphClass: 2
Flags: W
LayerCount: 2
Fore
SplineSet
330 -6 m 0,0,1
 254 -6 254 -6 190 31.5 c 128,-1,2
 126 69 126 69 88 133.5 c 128,-1,3
 50 198 50 198 50 274 c 256,4,5
 50 350 50 350 88 414.5 c 128,-1,6
 126 479 126 479 190 517 c 128,-1,7
 254 555 254 555 330 555 c 0,8,9
 412 555 412 555 481.5 510 c 128,-1,10
 551 465 551 465 578 397 c 1,11,-1
 578 550 l 1,12,-1
 611 550 l 1,13,-1
 611 0 l 1,14,-1
 578 0 l 1,15,-1
 578 149 l 1,16,17
 551 83 551 83 481.5 38.5 c 128,-1,18
 412 -6 412 -6 330 -6 c 0,0,1
330 27 m 0,19,20
 397 27 397 27 454 60.5 c 128,-1,21
 511 94 511 94 544.5 150.5 c 128,-1,22
 578 207 578 207 578 274 c 256,23,24
 578 341 578 341 544.5 398 c 128,-1,25
 511 455 511 455 454 488.5 c 128,-1,26
 397 522 397 522 330 522 c 0,27,28
 264 522 264 522 207 488.5 c 128,-1,29
 150 455 150 455 116.5 398 c 128,-1,30
 83 341 83 341 83 274 c 256,31,32
 83 207 83 207 116.5 150.5 c 128,-1,33
 150 94 150 94 207 60.5 c 128,-1,34
 264 27 264 27 330 27 c 0,19,20
244 687 m 256,35,36
 231 687 231 687 221 697 c 128,-1,37
 211 707 211 707 211 720 c 0,38,39
 211 734 211 734 221 743.5 c 128,-1,40
 231 753 231 753 244 753 c 256,41,42
 257 753 257 753 266.5 743 c 128,-1,43
 276 733 276 733 276 720 c 256,44,45
 276 707 276 707 266.5 697 c 128,-1,46
 257 687 257 687 244 687 c 256,35,36
429 687 m 256,47,48
 416 687 416 687 406 697 c 128,-1,49
 396 707 396 707 396 720 c 0,50,51
 396 734 396 734 406 743.5 c 128,-1,52
 416 753 416 753 429 753 c 256,53,54
 442 753 442 753 451.5 743 c 128,-1,55
 461 733 461 733 461 720 c 256,56,57
 461 707 461 707 451.5 697 c 128,-1,58
 442 687 442 687 429 687 c 256,47,48
EndSplineSet
Validated: 1
Substitution2: "'ss02' Style Set 2 lookup 28 subtable" adieresis.ss02
Substitution2: "'ss01' Style Set 1 lookup 27 subtable" adieresis.ss01
Substitution2: "'salt' Stylistic Alternatives lookup 26 subtable" adieresis.ss01
AlternateSubs2: "'aalt' Access All Alternates lookup 1 subtable" adieresis.ss01 adieresis.ss02
EndChar

StartChar: aring
Encoding: 165 229 165
Width: 701
GlyphClass: 2
Flags: W
LayerCount: 2
Fore
SplineSet
330 -6 m 0,0,1
 254 -6 254 -6 190 31.5 c 128,-1,2
 126 69 126 69 88 133.5 c 128,-1,3
 50 198 50 198 50 274 c 256,4,5
 50 350 50 350 88 414.5 c 128,-1,6
 126 479 126 479 190 517 c 128,-1,7
 254 555 254 555 330 555 c 0,8,9
 412 555 412 555 481.5 510 c 128,-1,10
 551 465 551 465 578 397 c 1,11,-1
 578 550 l 1,12,-1
 611 550 l 1,13,-1
 611 0 l 1,14,-1
 578 0 l 1,15,-1
 578 149 l 1,16,17
 551 83 551 83 481.5 38.5 c 128,-1,18
 412 -6 412 -6 330 -6 c 0,0,1
330 27 m 0,19,20
 397 27 397 27 454 60.5 c 128,-1,21
 511 94 511 94 544.5 150.5 c 128,-1,22
 578 207 578 207 578 274 c 256,23,24
 578 341 578 341 544.5 398 c 128,-1,25
 511 455 511 455 454 488.5 c 128,-1,26
 397 522 397 522 330 522 c 0,27,28
 264 522 264 522 207 488.5 c 128,-1,29
 150 455 150 455 116.5 398 c 128,-1,30
 83 341 83 341 83 274 c 256,31,32
 83 207 83 207 116.5 150.5 c 128,-1,33
 150 94 150 94 207 60.5 c 128,-1,34
 264 27 264 27 330 27 c 0,19,20
336 614 m 256,35,36
 292 614 292 614 260.5 645 c 128,-1,37
 229 676 229 676 229 720 c 256,38,39
 229 764 229 764 260.5 795.5 c 128,-1,40
 292 827 292 827 336 827 c 256,41,42
 380 827 380 827 411.5 795.5 c 128,-1,43
 443 764 443 764 443 720 c 256,44,45
 443 676 443 676 411.5 645 c 128,-1,46
 380 614 380 614 336 614 c 256,35,36
336 646 m 256,47,48
 367 646 367 646 388 667 c 128,-1,49
 409 688 409 688 409 720 c 256,50,51
 409 752 409 752 388 773.5 c 128,-1,52
 367 795 367 795 336 795 c 256,53,54
 305 795 305 795 284 773.5 c 128,-1,55
 263 752 263 752 263 720 c 256,56,57
 263 688 263 688 284 667 c 128,-1,58
 305 646 305 646 336 646 c 256,47,48
EndSplineSet
Validated: 1
Substitution2: "'ss02' Style Set 2 lookup 28 subtable" aring.ss02
Substitution2: "'ss01' Style Set 1 lookup 27 subtable" aring.ss01
Substitution2: "'salt' Stylistic Alternatives lookup 26 subtable" aring.ss01
AlternateSubs2: "'aalt' Access All Alternates lookup 1 subtable" aring.ss01 aring.ss02
EndChar

StartChar: ae
Encoding: 166 230 166
Width: 1060
GlyphClass: 2
Flags: W
LayerCount: 2
Fore
SplineSet
261 -10 m 0,0,1
 202 -10 202 -10 154 11 c 128,-1,2
 106 32 106 32 78 71 c 128,-1,3
 50 110 50 110 50 161 c 256,4,5
 50 212 50 212 77 250 c 128,-1,6
 104 288 104 288 155 308.5 c 128,-1,7
 206 329 206 329 277 329 c 2,8,-1
 492 329 l 1,9,10
 492 419 492 419 438 472.5 c 128,-1,11
 384 526 384 526 291 526 c 0,12,13
 232 526 232 526 180 506.5 c 128,-1,14
 128 487 128 487 95 453 c 1,15,-1
 70 475 l 1,16,17
 108 514 108 514 166.5 536.5 c 128,-1,18
 225 559 225 559 294 559 c 0,19,20
 378 559 378 559 439 514.5 c 128,-1,21
 500 470 500 470 519 396 c 1,22,23
 552 472 552 472 621.5 515.5 c 128,-1,24
 691 559 691 559 773 559 c 0,25,26
 837 559 837 559 892.5 529 c 128,-1,27
 948 499 948 499 981.5 445 c 128,-1,28
 1015 391 1015 391 1015 323 c 0,29,30
 1015 316 1015 316 1015 309 c 128,-1,31
 1015 302 1015 302 1014 295 c 1,32,-1
 527 295 l 1,33,34
 527 211 527 211 558.5 149.5 c 128,-1,35
 590 88 590 88 644.5 55.5 c 128,-1,36
 699 23 699 23 767 23 c 0,37,38
 826 23 826 23 878 50.5 c 128,-1,39
 930 78 930 78 965 127 c 1,40,-1
 993 109 l 1,41,42
 953 53 953 53 894 21.5 c 128,-1,43
 835 -10 835 -10 768 -10 c 0,44,45
 677 -10 677 -10 608 40 c 128,-1,46
 539 90 539 90 511 172 c 1,47,48
 487 85 487 85 420 37.5 c 128,-1,49
 353 -10 353 -10 261 -10 c 0,0,1
262 23 m 0,50,51
 337 23 337 23 389 56 c 128,-1,52
 441 89 441 89 466.5 144 c 128,-1,53
 492 199 492 199 492 265 c 2,54,-1
 492 296 l 1,55,-1
 271 296 l 2,56,57
 185 296 185 296 134 259.5 c 128,-1,58
 83 223 83 223 83 162 c 0,59,60
 83 100 83 100 133.5 61.5 c 128,-1,61
 184 23 184 23 262 23 c 0,50,51
982 328 m 1,62,63
 981 385 981 385 951.5 430.5 c 128,-1,64
 922 476 922 476 874.5 501 c 128,-1,65
 827 526 827 526 773 526 c 0,66,67
 709 526 709 526 656.5 497.5 c 128,-1,68
 604 469 604 469 571 423 c 128,-1,69
 538 377 538 377 530 328 c 1,70,-1
 982 328 l 1,62,63
EndSplineSet
Validated: 1
EndChar

StartChar: ccedilla
Encoding: 167 231 167
Width: 612
GlyphClass: 2
Flags: W
LayerCount: 2
Fore
SplineSet
333 -220 m 0,0,1
 309 -220 309 -220 284.5 -212 c 128,-1,2
 260 -204 260 -204 246 -192 c 1,3,-1
 262 -164 l 1,4,5
 270 -172 270 -172 291.5 -179.5 c 128,-1,6
 313 -187 313 -187 334 -187 c 0,7,8
 363 -187 363 -187 380 -173 c 128,-1,9
 397 -159 397 -159 397 -137 c 0,10,11
 397 -113 397 -113 377.5 -99 c 128,-1,12
 358 -85 358 -85 319 -85 c 2,13,-1
 284 -85 l 1,14,-1
 311 -4 l 1,15,16
 239 1 239 1 179 39.5 c 128,-1,17
 119 78 119 78 84.5 140.5 c 128,-1,18
 50 203 50 203 50 276 c 0,19,20
 50 352 50 352 87.5 416.5 c 128,-1,21
 125 481 125 481 189.5 518.5 c 128,-1,22
 254 556 254 556 331 556 c 0,23,24
 400 556 400 556 460.5 524 c 128,-1,25
 521 492 521 492 560 437 c 1,26,-1
 532 418 l 1,27,28
 498 467 498 467 445 495 c 128,-1,29
 392 523 392 523 331 523 c 0,30,31
 264 523 264 523 207 489.5 c 128,-1,32
 150 456 150 456 116.5 399.5 c 128,-1,33
 83 343 83 343 83 276 c 256,34,35
 83 209 83 209 116.5 152 c 128,-1,36
 150 95 150 95 207 61.5 c 128,-1,37
 264 28 264 28 331 28 c 0,38,39
 393 28 393 28 446.5 57 c 128,-1,40
 500 86 500 86 534 136 c 1,41,-1
 562 118 l 1,42,43
 526 65 526 65 469 32 c 128,-1,44
 412 -1 412 -1 345 -5 c 1,45,-1
 330 -52 l 1,46,47
 378 -55 378 -55 404 -78 c 128,-1,48
 430 -101 430 -101 430 -136 c 0,49,50
 430 -159 430 -159 418.5 -178.5 c 128,-1,51
 407 -198 407 -198 385 -209 c 128,-1,52
 363 -220 363 -220 333 -220 c 0,0,1
EndSplineSet
Validated: 1
EndChar

StartChar: egrave
Encoding: 168 232 168
Width: 651
GlyphClass: 2
Flags: W
LayerCount: 2
Fore
SplineSet
337 -5 m 0,0,1
 259 -5 259 -5 193 33 c 128,-1,2
 127 71 127 71 88.5 135.5 c 128,-1,3
 50 200 50 200 50 276 c 256,4,5
 50 352 50 352 87 416.5 c 128,-1,6
 124 481 124 481 187.5 518.5 c 128,-1,7
 251 556 251 556 326 556 c 0,8,9
 405 556 405 556 467.5 518.5 c 128,-1,10
 530 481 530 481 565.5 417 c 128,-1,11
 601 353 601 353 601 276 c 0,12,13
 601 265 601 265 599 245 c 1,14,-1
 85 245 l 1,15,16
 93 185 93 185 128.5 135 c 128,-1,17
 164 85 164 85 219 56.5 c 128,-1,18
 274 28 274 28 337 28 c 0,19,20
 398 28 398 28 452 55.5 c 128,-1,21
 506 83 506 83 540 130 c 1,22,-1
 569 113 l 1,23,24
 530 59 530 59 469 27 c 128,-1,25
 408 -5 408 -5 337 -5 c 0,0,1
568 278 m 1,26,27
 568 345 568 345 536.5 401 c 128,-1,28
 505 457 505 457 450 490 c 128,-1,29
 395 523 395 523 326 523 c 0,30,31
 261 523 261 523 205 490 c 128,-1,32
 149 457 149 457 116 400.5 c 128,-1,33
 83 344 83 344 83 278 c 1,34,-1
 568 278 l 1,26,27
323 646 m 1,35,-1
 253 794 l 1,36,-1
 288 794 l 1,37,-1
 353 646 l 1,38,-1
 323 646 l 1,35,-1
EndSplineSet
Validated: 1
EndChar

StartChar: eacute
Encoding: 169 233 169
Width: 651
GlyphClass: 2
Flags: W
LayerCount: 2
Fore
SplineSet
337 -5 m 0,0,1
 259 -5 259 -5 193 33 c 128,-1,2
 127 71 127 71 88.5 135.5 c 128,-1,3
 50 200 50 200 50 276 c 256,4,5
 50 352 50 352 87 416.5 c 128,-1,6
 124 481 124 481 187.5 518.5 c 128,-1,7
 251 556 251 556 326 556 c 0,8,9
 405 556 405 556 467.5 518.5 c 128,-1,10
 530 481 530 481 565.5 417 c 128,-1,11
 601 353 601 353 601 276 c 0,12,13
 601 265 601 265 599 245 c 1,14,-1
 85 245 l 1,15,16
 93 185 93 185 128.5 135 c 128,-1,17
 164 85 164 85 219 56.5 c 128,-1,18
 274 28 274 28 337 28 c 0,19,20
 398 28 398 28 452 55.5 c 128,-1,21
 506 83 506 83 540 130 c 1,22,-1
 569 113 l 1,23,24
 530 59 530 59 469 27 c 128,-1,25
 408 -5 408 -5 337 -5 c 0,0,1
568 278 m 1,26,27
 568 345 568 345 536.5 401 c 128,-1,28
 505 457 505 457 450 490 c 128,-1,29
 395 523 395 523 326 523 c 0,30,31
 261 523 261 523 205 490 c 128,-1,32
 149 457 149 457 116 400.5 c 128,-1,33
 83 344 83 344 83 278 c 1,34,-1
 568 278 l 1,26,27
306 646 m 1,35,-1
 371 794 l 1,36,-1
 406 794 l 1,37,-1
 336 646 l 1,38,-1
 306 646 l 1,35,-1
EndSplineSet
Validated: 1
EndChar

StartChar: ecircumflex
Encoding: 170 234 170
Width: 651
GlyphClass: 2
Flags: W
LayerCount: 2
Fore
SplineSet
337 -5 m 0,0,1
 259 -5 259 -5 193 33 c 128,-1,2
 127 71 127 71 88.5 135.5 c 128,-1,3
 50 200 50 200 50 276 c 256,4,5
 50 352 50 352 87 416.5 c 128,-1,6
 124 481 124 481 187.5 518.5 c 128,-1,7
 251 556 251 556 326 556 c 0,8,9
 405 556 405 556 467.5 518.5 c 128,-1,10
 530 481 530 481 565.5 417 c 128,-1,11
 601 353 601 353 601 276 c 0,12,13
 601 265 601 265 599 245 c 1,14,-1
 85 245 l 1,15,16
 93 185 93 185 128.5 135 c 128,-1,17
 164 85 164 85 219 56.5 c 128,-1,18
 274 28 274 28 337 28 c 0,19,20
 398 28 398 28 452 55.5 c 128,-1,21
 506 83 506 83 540 130 c 1,22,-1
 569 113 l 1,23,24
 530 59 530 59 469 27 c 128,-1,25
 408 -5 408 -5 337 -5 c 0,0,1
568 278 m 1,26,27
 568 345 568 345 536.5 401 c 128,-1,28
 505 457 505 457 450 490 c 128,-1,29
 395 523 395 523 326 523 c 0,30,31
 261 523 261 523 205 490 c 128,-1,32
 149 457 149 457 116 400.5 c 128,-1,33
 83 344 83 344 83 278 c 1,34,-1
 568 278 l 1,26,27
202 660 m 1,35,-1
 310 780 l 1,36,-1
 354 780 l 1,37,-1
 462 660 l 1,38,-1
 418 660 l 1,39,-1
 332 756 l 1,40,-1
 246 660 l 1,41,-1
 202 660 l 1,35,-1
EndSplineSet
Validated: 1
EndChar

StartChar: edieresis
Encoding: 171 235 171
Width: 651
GlyphClass: 2
Flags: W
LayerCount: 2
Fore
SplineSet
337 -5 m 0,0,1
 259 -5 259 -5 193 33 c 128,-1,2
 127 71 127 71 88.5 135.5 c 128,-1,3
 50 200 50 200 50 276 c 256,4,5
 50 352 50 352 87 416.5 c 128,-1,6
 124 481 124 481 187.5 518.5 c 128,-1,7
 251 556 251 556 326 556 c 0,8,9
 405 556 405 556 467.5 518.5 c 128,-1,10
 530 481 530 481 565.5 417 c 128,-1,11
 601 353 601 353 601 276 c 0,12,13
 601 265 601 265 599 245 c 1,14,-1
 85 245 l 1,15,16
 93 185 93 185 128.5 135 c 128,-1,17
 164 85 164 85 219 56.5 c 128,-1,18
 274 28 274 28 337 28 c 0,19,20
 398 28 398 28 452 55.5 c 128,-1,21
 506 83 506 83 540 130 c 1,22,-1
 569 113 l 1,23,24
 530 59 530 59 469 27 c 128,-1,25
 408 -5 408 -5 337 -5 c 0,0,1
568 278 m 1,26,27
 568 345 568 345 536.5 401 c 128,-1,28
 505 457 505 457 450 490 c 128,-1,29
 395 523 395 523 326 523 c 0,30,31
 261 523 261 523 205 490 c 128,-1,32
 149 457 149 457 116 400.5 c 128,-1,33
 83 344 83 344 83 278 c 1,34,-1
 568 278 l 1,26,27
232 687 m 256,35,36
 219 687 219 687 209 697 c 128,-1,37
 199 707 199 707 199 720 c 0,38,39
 199 734 199 734 209 743.5 c 128,-1,40
 219 753 219 753 232 753 c 256,41,42
 245 753 245 753 254.5 743 c 128,-1,43
 264 733 264 733 264 720 c 256,44,45
 264 707 264 707 254.5 697 c 128,-1,46
 245 687 245 687 232 687 c 256,35,36
417 687 m 256,47,48
 404 687 404 687 394 697 c 128,-1,49
 384 707 384 707 384 720 c 0,50,51
 384 734 384 734 394 743.5 c 128,-1,52
 404 753 404 753 417 753 c 256,53,54
 430 753 430 753 439.5 743 c 128,-1,55
 449 733 449 733 449 720 c 256,56,57
 449 707 449 707 439.5 697 c 128,-1,58
 430 687 430 687 417 687 c 256,47,48
EndSplineSet
Validated: 1
EndChar

StartChar: igrave
Encoding: 172 236 172
Width: 213
GlyphClass: 2
Flags: W
LayerCount: 2
Fore
SplineSet
90 0 m 1,0,-1
 90 550 l 1,1,-1
 123 550 l 1,2,-1
 123 0 l 1,3,-1
 90 0 l 1,0,-1
89 646 m 1,4,-1
 19 794 l 1,5,-1
 54 794 l 1,6,-1
 119 646 l 1,7,-1
 89 646 l 1,4,-1
EndSplineSet
Validated: 1
EndChar

StartChar: iacute
Encoding: 173 237 173
Width: 213
GlyphClass: 2
Flags: W
LayerCount: 2
Fore
SplineSet
90 0 m 1,0,-1
 90 550 l 1,1,-1
 123 550 l 1,2,-1
 123 0 l 1,3,-1
 90 0 l 1,0,-1
93 646 m 1,4,-1
 158 794 l 1,5,-1
 193 794 l 1,6,-1
 123 646 l 1,7,-1
 93 646 l 1,4,-1
EndSplineSet
Validated: 1
EndChar

StartChar: icircumflex
Encoding: 174 238 174
Width: 213
GlyphClass: 2
Flags: W
LayerCount: 2
Fore
SplineSet
90 0 m 1,0,-1
 90 550 l 1,1,-1
 123 550 l 1,2,-1
 123 0 l 1,3,-1
 90 0 l 1,0,-1
-24 660 m 1,4,-1
 84 780 l 1,5,-1
 128 780 l 1,6,-1
 236 660 l 1,7,-1
 192 660 l 1,8,-1
 106 756 l 1,9,-1
 20 660 l 1,10,-1
 -24 660 l 1,4,-1
EndSplineSet
Validated: 1
EndChar

StartChar: idieresis
Encoding: 175 239 175
Width: 213
GlyphClass: 2
Flags: W
LayerCount: 2
Fore
SplineSet
90 0 m 1,0,-1
 90 550 l 1,1,-1
 123 550 l 1,2,-1
 123 0 l 1,3,-1
 90 0 l 1,0,-1
35 687 m 256,4,5
 22 687 22 687 12 697 c 128,-1,6
 2 707 2 707 2 720 c 0,7,8
 2 734 2 734 12 743.5 c 128,-1,9
 22 753 22 753 35 753 c 256,10,11
 48 753 48 753 57.5 743 c 128,-1,12
 67 733 67 733 67 720 c 256,13,14
 67 707 67 707 57.5 697 c 128,-1,15
 48 687 48 687 35 687 c 256,4,5
180 687 m 256,16,17
 167 687 167 687 157 697 c 128,-1,18
 147 707 147 707 147 720 c 0,19,20
 147 734 147 734 157 743.5 c 128,-1,21
 167 753 167 753 180 753 c 256,22,23
 193 753 193 753 202.5 743 c 128,-1,24
 212 733 212 733 212 720 c 256,25,26
 212 707 212 707 202.5 697 c 128,-1,27
 193 687 193 687 180 687 c 256,16,17
EndSplineSet
Validated: 1
EndChar

StartChar: eth
Encoding: 176 240 176
Width: 575
GlyphClass: 2
Flags: W
LayerCount: 2
Fore
SplineSet
294 -10 m 0,0,1
 221 -10 221 -10 165.5 21.5 c 128,-1,2
 110 53 110 53 80 108 c 128,-1,3
 50 163 50 163 50 229 c 0,4,5
 50 294 50 294 82.5 346.5 c 128,-1,6
 115 399 115 399 171 429 c 128,-1,7
 227 459 227 459 294 459 c 0,8,9
 356 459 356 459 409.5 424.5 c 128,-1,10
 463 390 463 390 488 336 c 1,11,12
 470 506 470 506 361 620 c 1,13,-1
 135 500 l 1,14,-1
 120 529 l 1,15,-1
 336 644 l 1,16,17
 263 710 263 710 153 753 c 1,18,-1
 175 780 l 1,19,20
 288 736 288 736 368 661 c 1,21,-1
 477 719 l 1,22,-1
 492 689 l 1,23,-1
 393 636 l 1,24,25
 459 564 459 564 492.5 468 c 128,-1,26
 526 372 526 372 525 253 c 0,27,28
 525 175 525 175 494 115 c 128,-1,29
 463 55 463 55 410.5 22.5 c 128,-1,30
 358 -10 358 -10 294 -10 c 0,0,1
288 21 m 0,31,32
 342 21 342 21 387 48 c 128,-1,33
 432 75 432 75 458 121.5 c 128,-1,34
 484 168 484 168 484 223 c 256,35,36
 484 278 484 278 457.5 324.5 c 128,-1,37
 431 371 431 371 386 399 c 128,-1,38
 341 427 341 427 288 427 c 0,39,40
 230 427 230 427 183 399.5 c 128,-1,41
 136 372 136 372 109.5 325.5 c 128,-1,42
 83 279 83 279 83 223 c 0,43,44
 83 168 83 168 110.5 122 c 128,-1,45
 138 76 138 76 185 48.5 c 128,-1,46
 232 21 232 21 288 21 c 0,31,32
EndSplineSet
Validated: 33
EndChar

StartChar: ntilde
Encoding: 177 241 177
Width: 592
GlyphClass: 2
Flags: W
LayerCount: 2
Fore
SplineSet
60 0 m 1,0,-1
 60 550 l 1,1,-1
 93 550 l 1,2,-1
 93 427 l 1,3,4
 117 483 117 483 169.5 519 c 128,-1,5
 222 555 222 555 296 555 c 0,6,7
 363 555 363 555 416.5 523.5 c 128,-1,8
 470 492 470 492 501 429.5 c 128,-1,9
 532 367 532 367 532 278 c 2,10,-1
 532 0 l 1,11,-1
 499 0 l 1,12,-1
 499 278 l 2,13,14
 499 359 499 359 472 413.5 c 128,-1,15
 445 468 445 468 399.5 495 c 128,-1,16
 354 522 354 522 296 522 c 256,17,18
 238 522 238 522 192.5 495 c 128,-1,19
 147 468 147 468 120 413.5 c 128,-1,20
 93 359 93 359 93 278 c 2,21,-1
 93 0 l 1,22,-1
 60 0 l 1,0,-1
362 666 m 0,23,24
 337 663 337 663 318.5 675 c 128,-1,25
 300 687 300 687 276 710 c 0,26,27
 258 728 258 728 246 736.5 c 128,-1,28
 234 745 234 745 221 744 c 0,29,30
 203 743 203 743 192 724.5 c 128,-1,31
 181 706 181 706 181 674 c 1,32,-1
 148 674 l 1,33,34
 148 720 148 720 168.5 747.5 c 128,-1,35
 189 775 189 775 219 777 c 0,36,37
 243 779 243 779 259.5 768 c 128,-1,38
 276 757 276 757 299 734 c 0,39,40
 316 716 316 716 329.5 706.5 c 128,-1,41
 343 697 343 697 359 698 c 256,42,43
 375 699 375 699 385 716.5 c 128,-1,44
 395 734 395 734 395 768 c 1,45,-1
 428 768 l 1,46,47
 428 721 428 721 409.5 694.5 c 128,-1,48
 391 668 391 668 362 666 c 0,23,24
EndSplineSet
Validated: 33
Substitution2: "'ss01' Style Set 1 lookup 27 subtable" ntilde.ss01
Substitution2: "'salt' Stylistic Alternatives lookup 26 subtable" ntilde.ss01
Substitution2: "'aalt' Access All Alternates lookup 0 subtable" ntilde.ss01
EndChar

StartChar: ograve
Encoding: 178 242 178
Width: 661
GlyphClass: 2
Flags: W
LayerCount: 2
Fore
SplineSet
331 -5 m 0,0,1
 254 -5 254 -5 189.5 33 c 128,-1,2
 125 71 125 71 87.5 135.5 c 128,-1,3
 50 200 50 200 50 276 c 256,4,5
 50 352 50 352 87.5 416.5 c 128,-1,6
 125 481 125 481 189.5 518.5 c 128,-1,7
 254 556 254 556 331 556 c 0,8,9
 407 556 407 556 471 518.5 c 128,-1,10
 535 481 535 481 573 416.5 c 128,-1,11
 611 352 611 352 611 276 c 256,12,13
 611 200 611 200 573 135.5 c 128,-1,14
 535 71 535 71 471 33 c 128,-1,15
 407 -5 407 -5 331 -5 c 0,0,1
331 28 m 0,16,17
 397 28 397 28 454 61.5 c 128,-1,18
 511 95 511 95 544.5 152 c 128,-1,19
 578 209 578 209 578 276 c 256,20,21
 578 343 578 343 544.5 399.5 c 128,-1,22
 511 456 511 456 454 489.5 c 128,-1,23
 397 523 397 523 331 523 c 0,24,25
 264 523 264 523 207 489.5 c 128,-1,26
 150 456 150 456 116.5 399.5 c 128,-1,27
 83 343 83 343 83 276 c 256,28,29
 83 209 83 209 116.5 152 c 128,-1,30
 150 95 150 95 207 61.5 c 128,-1,31
 264 28 264 28 331 28 c 0,16,17
321 646 m 1,32,-1
 251 794 l 1,33,-1
 286 794 l 1,34,-1
 351 646 l 1,35,-1
 321 646 l 1,32,-1
EndSplineSet
Validated: 1
EndChar

StartChar: oacute
Encoding: 179 243 179
Width: 661
GlyphClass: 2
Flags: W
LayerCount: 2
Fore
SplineSet
331 -5 m 0,0,1
 254 -5 254 -5 189.5 33 c 128,-1,2
 125 71 125 71 87.5 135.5 c 128,-1,3
 50 200 50 200 50 276 c 256,4,5
 50 352 50 352 87.5 416.5 c 128,-1,6
 125 481 125 481 189.5 518.5 c 128,-1,7
 254 556 254 556 331 556 c 0,8,9
 407 556 407 556 471 518.5 c 128,-1,10
 535 481 535 481 573 416.5 c 128,-1,11
 611 352 611 352 611 276 c 256,12,13
 611 200 611 200 573 135.5 c 128,-1,14
 535 71 535 71 471 33 c 128,-1,15
 407 -5 407 -5 331 -5 c 0,0,1
331 28 m 0,16,17
 397 28 397 28 454 61.5 c 128,-1,18
 511 95 511 95 544.5 152 c 128,-1,19
 578 209 578 209 578 276 c 256,20,21
 578 343 578 343 544.5 399.5 c 128,-1,22
 511 456 511 456 454 489.5 c 128,-1,23
 397 523 397 523 331 523 c 0,24,25
 264 523 264 523 207 489.5 c 128,-1,26
 150 456 150 456 116.5 399.5 c 128,-1,27
 83 343 83 343 83 276 c 256,28,29
 83 209 83 209 116.5 152 c 128,-1,30
 150 95 150 95 207 61.5 c 128,-1,31
 264 28 264 28 331 28 c 0,16,17
317 646 m 1,32,-1
 382 794 l 1,33,-1
 417 794 l 1,34,-1
 347 646 l 1,35,-1
 317 646 l 1,32,-1
EndSplineSet
Validated: 1
EndChar

StartChar: ocircumflex
Encoding: 180 244 180
Width: 661
GlyphClass: 2
Flags: W
LayerCount: 2
Fore
SplineSet
331 -5 m 0,0,1
 254 -5 254 -5 189.5 33 c 128,-1,2
 125 71 125 71 87.5 135.5 c 128,-1,3
 50 200 50 200 50 276 c 256,4,5
 50 352 50 352 87.5 416.5 c 128,-1,6
 125 481 125 481 189.5 518.5 c 128,-1,7
 254 556 254 556 331 556 c 0,8,9
 407 556 407 556 471 518.5 c 128,-1,10
 535 481 535 481 573 416.5 c 128,-1,11
 611 352 611 352 611 276 c 256,12,13
 611 200 611 200 573 135.5 c 128,-1,14
 535 71 535 71 471 33 c 128,-1,15
 407 -5 407 -5 331 -5 c 0,0,1
331 28 m 0,16,17
 397 28 397 28 454 61.5 c 128,-1,18
 511 95 511 95 544.5 152 c 128,-1,19
 578 209 578 209 578 276 c 256,20,21
 578 343 578 343 544.5 399.5 c 128,-1,22
 511 456 511 456 454 489.5 c 128,-1,23
 397 523 397 523 331 523 c 0,24,25
 264 523 264 523 207 489.5 c 128,-1,26
 150 456 150 456 116.5 399.5 c 128,-1,27
 83 343 83 343 83 276 c 256,28,29
 83 209 83 209 116.5 152 c 128,-1,30
 150 95 150 95 207 61.5 c 128,-1,31
 264 28 264 28 331 28 c 0,16,17
204 660 m 1,32,-1
 312 780 l 1,33,-1
 356 780 l 1,34,-1
 464 660 l 1,35,-1
 420 660 l 1,36,-1
 334 756 l 1,37,-1
 248 660 l 1,38,-1
 204 660 l 1,32,-1
EndSplineSet
Validated: 1
EndChar

StartChar: otilde
Encoding: 181 245 181
Width: 661
GlyphClass: 2
Flags: W
LayerCount: 2
Fore
SplineSet
331 -5 m 0,0,1
 254 -5 254 -5 189.5 33 c 128,-1,2
 125 71 125 71 87.5 135.5 c 128,-1,3
 50 200 50 200 50 276 c 256,4,5
 50 352 50 352 87.5 416.5 c 128,-1,6
 125 481 125 481 189.5 518.5 c 128,-1,7
 254 556 254 556 331 556 c 0,8,9
 407 556 407 556 471 518.5 c 128,-1,10
 535 481 535 481 573 416.5 c 128,-1,11
 611 352 611 352 611 276 c 256,12,13
 611 200 611 200 573 135.5 c 128,-1,14
 535 71 535 71 471 33 c 128,-1,15
 407 -5 407 -5 331 -5 c 0,0,1
331 28 m 0,16,17
 397 28 397 28 454 61.5 c 128,-1,18
 511 95 511 95 544.5 152 c 128,-1,19
 578 209 578 209 578 276 c 256,20,21
 578 343 578 343 544.5 399.5 c 128,-1,22
 511 456 511 456 454 489.5 c 128,-1,23
 397 523 397 523 331 523 c 0,24,25
 264 523 264 523 207 489.5 c 128,-1,26
 150 456 150 456 116.5 399.5 c 128,-1,27
 83 343 83 343 83 276 c 256,28,29
 83 209 83 209 116.5 152 c 128,-1,30
 150 95 150 95 207 61.5 c 128,-1,31
 264 28 264 28 331 28 c 0,16,17
405 666 m 0,32,33
 380 663 380 663 361 675 c 128,-1,34
 342 687 342 687 319 710 c 0,35,36
 301 728 301 728 289 736.5 c 128,-1,37
 277 745 277 745 264 744 c 0,38,39
 246 743 246 743 235 724.5 c 128,-1,40
 224 706 224 706 224 674 c 1,41,-1
 191 674 l 1,42,43
 191 720 191 720 211.5 747.5 c 128,-1,44
 232 775 232 775 262 777 c 0,45,46
 286 779 286 779 302.5 768 c 128,-1,47
 319 757 319 757 342 734 c 0,48,49
 359 716 359 716 372.5 706.5 c 128,-1,50
 386 697 386 697 402 698 c 256,51,52
 418 699 418 699 428 716.5 c 128,-1,53
 438 734 438 734 438 768 c 1,54,-1
 471 768 l 1,55,56
 471 721 471 721 452.5 694.5 c 128,-1,57
 434 668 434 668 405 666 c 0,32,33
EndSplineSet
Validated: 33
EndChar

StartChar: odieresis
Encoding: 182 246 182
Width: 661
GlyphClass: 2
Flags: W
LayerCount: 2
Fore
SplineSet
331 -5 m 0,0,1
 254 -5 254 -5 189.5 33 c 128,-1,2
 125 71 125 71 87.5 135.5 c 128,-1,3
 50 200 50 200 50 276 c 256,4,5
 50 352 50 352 87.5 416.5 c 128,-1,6
 125 481 125 481 189.5 518.5 c 128,-1,7
 254 556 254 556 331 556 c 0,8,9
 407 556 407 556 471 518.5 c 128,-1,10
 535 481 535 481 573 416.5 c 128,-1,11
 611 352 611 352 611 276 c 256,12,13
 611 200 611 200 573 135.5 c 128,-1,14
 535 71 535 71 471 33 c 128,-1,15
 407 -5 407 -5 331 -5 c 0,0,1
331 28 m 0,16,17
 397 28 397 28 454 61.5 c 128,-1,18
 511 95 511 95 544.5 152 c 128,-1,19
 578 209 578 209 578 276 c 256,20,21
 578 343 578 343 544.5 399.5 c 128,-1,22
 511 456 511 456 454 489.5 c 128,-1,23
 397 523 397 523 331 523 c 0,24,25
 264 523 264 523 207 489.5 c 128,-1,26
 150 456 150 456 116.5 399.5 c 128,-1,27
 83 343 83 343 83 276 c 256,28,29
 83 209 83 209 116.5 152 c 128,-1,30
 150 95 150 95 207 61.5 c 128,-1,31
 264 28 264 28 331 28 c 0,16,17
239 687 m 256,32,33
 226 687 226 687 216 697 c 128,-1,34
 206 707 206 707 206 720 c 0,35,36
 206 734 206 734 216 743.5 c 128,-1,37
 226 753 226 753 239 753 c 256,38,39
 252 753 252 753 261.5 743 c 128,-1,40
 271 733 271 733 271 720 c 256,41,42
 271 707 271 707 261.5 697 c 128,-1,43
 252 687 252 687 239 687 c 256,32,33
424 687 m 256,44,45
 411 687 411 687 401 697 c 128,-1,46
 391 707 391 707 391 720 c 0,47,48
 391 734 391 734 401 743.5 c 128,-1,49
 411 753 411 753 424 753 c 256,50,51
 437 753 437 753 446.5 743 c 128,-1,52
 456 733 456 733 456 720 c 256,53,54
 456 707 456 707 446.5 697 c 128,-1,55
 437 687 437 687 424 687 c 256,44,45
EndSplineSet
Validated: 1
EndChar

StartChar: divide
Encoding: 183 247 183
Width: 540
GlyphClass: 2
Flags: W
LayerCount: 2
Fore
SplineSet
60 349 m 1,0,-1
 60 382 l 1,1,-1
 480 382 l 1,2,-1
 480 349 l 1,3,-1
 60 349 l 1,0,-1
270 203 m 256,4,5
 257 203 257 203 247 213 c 128,-1,6
 237 223 237 223 237 236 c 0,7,8
 237 250 237 250 247 259.5 c 128,-1,9
 257 269 257 269 270 269 c 256,10,11
 283 269 283 269 292.5 259 c 128,-1,12
 302 249 302 249 302 236 c 256,13,14
 302 223 302 223 292.5 213 c 128,-1,15
 283 203 283 203 270 203 c 256,4,5
270 462 m 256,16,17
 257 462 257 462 247 472 c 128,-1,18
 237 482 237 482 237 495 c 0,19,20
 237 509 237 509 247 518.5 c 128,-1,21
 257 528 257 528 270 528 c 256,22,23
 283 528 283 528 292.5 518 c 128,-1,24
 302 508 302 508 302 495 c 256,25,26
 302 482 302 482 292.5 472 c 128,-1,27
 283 462 283 462 270 462 c 256,16,17
EndSplineSet
Validated: 1
EndChar

StartChar: oslash
Encoding: 184 248 184
Width: 669
GlyphClass: 2
Flags: W
LayerCount: 2
Fore
SplineSet
334 0 m 0,0,1
 280 0 280 0 231.5 18.5 c 128,-1,2
 183 37 183 37 145 71 c 1,3,-1
 84 10 l 1,4,-1
 61 33 l 1,5,-1
 122 94 l 1,6,7
 88 133 88 133 69 182 c 128,-1,8
 50 231 50 231 50 285 c 0,9,10
 50 362 50 362 87.5 427 c 128,-1,11
 125 492 125 492 190.5 530.5 c 128,-1,12
 256 569 256 569 334 569 c 0,13,14
 388 569 388 569 437 550 c 128,-1,15
 486 531 486 531 525 496 c 1,16,-1
 587 558 l 1,17,-1
 608 535 l 1,18,-1
 547 474 l 1,19,20
 581 435 581 435 600 386.5 c 128,-1,21
 619 338 619 338 619 285 c 0,22,23
 619 208 619 208 580.5 142.5 c 128,-1,24
 542 77 542 77 476.5 38.5 c 128,-1,25
 411 0 411 0 334 0 c 0,0,1
332 33 m 0,26,27
 401 33 401 33 459.5 67 c 128,-1,28
 518 101 518 101 552 159 c 128,-1,29
 586 217 586 217 586 286 c 0,30,31
 586 332 586 332 569.5 374 c 128,-1,32
 553 416 553 416 523 450 c 1,33,-1
 168 94 l 1,34,35
 201 65 201 65 243 49 c 128,-1,36
 285 33 285 33 332 33 c 0,26,27
332 536 m 0,37,38
 263 536 263 536 206 502.5 c 128,-1,39
 149 469 149 469 116 411.5 c 128,-1,40
 83 354 83 354 83 286 c 0,41,42
 83 238 83 238 99 194.5 c 128,-1,43
 115 151 115 151 145 117 c 1,44,-1
 501 472 l 1,45,46
 467 503 467 503 423.5 519.5 c 128,-1,47
 380 536 380 536 332 536 c 0,37,38
EndSplineSet
Validated: 1
EndChar

StartChar: ugrave
Encoding: 185 249 185
Width: 637
GlyphClass: 2
Flags: W
LayerCount: 2
Fore
SplineSet
311 -5 m 0,0,1
 244 -5 244 -5 190.5 26.5 c 128,-1,2
 137 58 137 58 106 120.5 c 128,-1,3
 75 183 75 183 75 272 c 2,4,-1
 75 550 l 1,5,-1
 108 550 l 1,6,-1
 108 272 l 2,7,8
 108 191 108 191 135 136.5 c 128,-1,9
 162 82 162 82 207.5 55 c 128,-1,10
 253 28 253 28 311 28 c 256,11,12
 369 28 369 28 414.5 55 c 128,-1,13
 460 82 460 82 487 136.5 c 128,-1,14
 514 191 514 191 514 272 c 2,15,-1
 514 550 l 1,16,-1
 547 550 l 1,17,-1
 547 0 l 1,18,-1
 514 0 l 1,19,-1
 514 123 l 1,20,21
 490 67 490 67 437.5 31 c 128,-1,22
 385 -5 385 -5 311 -5 c 0,0,1
301 646 m 1,23,-1
 231 794 l 1,24,-1
 266 794 l 1,25,-1
 331 646 l 1,26,-1
 301 646 l 1,23,-1
EndSplineSet
Validated: 1
Substitution2: "'ss01' Style Set 1 lookup 27 subtable" ugrave.ss01
Substitution2: "'salt' Stylistic Alternatives lookup 26 subtable" ugrave.ss01
Substitution2: "'aalt' Access All Alternates lookup 0 subtable" ugrave.ss01
EndChar

StartChar: uacute
Encoding: 186 250 186
Width: 637
GlyphClass: 2
Flags: W
LayerCount: 2
Fore
SplineSet
311 -5 m 0,0,1
 244 -5 244 -5 190.5 26.5 c 128,-1,2
 137 58 137 58 106 120.5 c 128,-1,3
 75 183 75 183 75 272 c 2,4,-1
 75 550 l 1,5,-1
 108 550 l 1,6,-1
 108 272 l 2,7,8
 108 191 108 191 135 136.5 c 128,-1,9
 162 82 162 82 207.5 55 c 128,-1,10
 253 28 253 28 311 28 c 256,11,12
 369 28 369 28 414.5 55 c 128,-1,13
 460 82 460 82 487 136.5 c 128,-1,14
 514 191 514 191 514 272 c 2,15,-1
 514 550 l 1,16,-1
 547 550 l 1,17,-1
 547 0 l 1,18,-1
 514 0 l 1,19,-1
 514 123 l 1,20,21
 490 67 490 67 437.5 31 c 128,-1,22
 385 -5 385 -5 311 -5 c 0,0,1
261 646 m 1,23,-1
 326 794 l 1,24,-1
 361 794 l 1,25,-1
 291 646 l 1,26,-1
 261 646 l 1,23,-1
EndSplineSet
Validated: 1
Substitution2: "'ss01' Style Set 1 lookup 27 subtable" uacute.ss01
Substitution2: "'salt' Stylistic Alternatives lookup 26 subtable" uacute.ss01
Substitution2: "'aalt' Access All Alternates lookup 0 subtable" uacute.ss01
EndChar

StartChar: ucircumflex
Encoding: 187 251 187
Width: 637
GlyphClass: 2
Flags: W
LayerCount: 2
Fore
SplineSet
311 -5 m 0,0,1
 244 -5 244 -5 190.5 26.5 c 128,-1,2
 137 58 137 58 106 120.5 c 128,-1,3
 75 183 75 183 75 272 c 2,4,-1
 75 550 l 1,5,-1
 108 550 l 1,6,-1
 108 272 l 2,7,8
 108 191 108 191 135 136.5 c 128,-1,9
 162 82 162 82 207.5 55 c 128,-1,10
 253 28 253 28 311 28 c 256,11,12
 369 28 369 28 414.5 55 c 128,-1,13
 460 82 460 82 487 136.5 c 128,-1,14
 514 191 514 191 514 272 c 2,15,-1
 514 550 l 1,16,-1
 547 550 l 1,17,-1
 547 0 l 1,18,-1
 514 0 l 1,19,-1
 514 123 l 1,20,21
 490 67 490 67 437.5 31 c 128,-1,22
 385 -5 385 -5 311 -5 c 0,0,1
181 660 m 1,23,-1
 289 780 l 1,24,-1
 333 780 l 1,25,-1
 441 660 l 1,26,-1
 397 660 l 1,27,-1
 311 756 l 1,28,-1
 225 660 l 1,29,-1
 181 660 l 1,23,-1
EndSplineSet
Validated: 1
Substitution2: "'ss01' Style Set 1 lookup 27 subtable" ucircumflex.ss01
Substitution2: "'salt' Stylistic Alternatives lookup 26 subtable" ucircumflex.ss01
Substitution2: "'aalt' Access All Alternates lookup 0 subtable" ucircumflex.ss01
EndChar

StartChar: udieresis
Encoding: 188 252 188
Width: 637
GlyphClass: 2
Flags: W
LayerCount: 2
Fore
SplineSet
311 -5 m 0,0,1
 244 -5 244 -5 190.5 26.5 c 128,-1,2
 137 58 137 58 106 120.5 c 128,-1,3
 75 183 75 183 75 272 c 2,4,-1
 75 550 l 1,5,-1
 108 550 l 1,6,-1
 108 272 l 2,7,8
 108 191 108 191 135 136.5 c 128,-1,9
 162 82 162 82 207.5 55 c 128,-1,10
 253 28 253 28 311 28 c 256,11,12
 369 28 369 28 414.5 55 c 128,-1,13
 460 82 460 82 487 136.5 c 128,-1,14
 514 191 514 191 514 272 c 2,15,-1
 514 550 l 1,16,-1
 547 550 l 1,17,-1
 547 0 l 1,18,-1
 514 0 l 1,19,-1
 514 123 l 1,20,21
 490 67 490 67 437.5 31 c 128,-1,22
 385 -5 385 -5 311 -5 c 0,0,1
219 687 m 256,23,24
 206 687 206 687 196 697 c 128,-1,25
 186 707 186 707 186 720 c 0,26,27
 186 734 186 734 196 743.5 c 128,-1,28
 206 753 206 753 219 753 c 256,29,30
 232 753 232 753 241.5 743 c 128,-1,31
 251 733 251 733 251 720 c 256,32,33
 251 707 251 707 241.5 697 c 128,-1,34
 232 687 232 687 219 687 c 256,23,24
404 687 m 256,35,36
 391 687 391 687 381 697 c 128,-1,37
 371 707 371 707 371 720 c 0,38,39
 371 734 371 734 381 743.5 c 128,-1,40
 391 753 391 753 404 753 c 256,41,42
 417 753 417 753 426.5 743 c 128,-1,43
 436 733 436 733 436 720 c 256,44,45
 436 707 436 707 426.5 697 c 128,-1,46
 417 687 417 687 404 687 c 256,35,36
EndSplineSet
Validated: 1
Substitution2: "'ss01' Style Set 1 lookup 27 subtable" udieresis.ss01
Substitution2: "'salt' Stylistic Alternatives lookup 26 subtable" udieresis.ss01
Substitution2: "'aalt' Access All Alternates lookup 0 subtable" udieresis.ss01
EndChar

StartChar: yacute
Encoding: 189 253 189
Width: 560
GlyphClass: 2
Flags: W
LayerCount: 2
Fore
SplineSet
111 -220 m 0,0,1
 85 -220 85 -220 64.5 -215 c 128,-1,2
 44 -210 44 -210 20 -199 c 1,3,-1
 33 -168 l 1,4,5
 51 -177 51 -177 70.5 -182 c 128,-1,6
 90 -187 90 -187 111 -187 c 0,7,8
 147 -187 147 -187 174 -164 c 128,-1,9
 201 -141 201 -141 220 -106 c 128,-1,10
 239 -71 239 -71 268 -6 c 0,11,12
 268 -4 268 -4 268.5 -2.5 c 128,-1,13
 269 -1 269 -1 270 0 c 2,14,-1
 36 550 l 1,15,-1
 72 550 l 1,16,-1
 288 42 l 1,17,-1
 504 550 l 1,18,-1
 540 550 l 1,19,-1
 306 0 l 2,20,21
 269 -84 269 -84 244 -128 c 128,-1,22
 219 -172 219 -172 187.5 -196 c 128,-1,23
 156 -220 156 -220 111 -220 c 0,0,1
240 646 m 1,24,-1
 305 794 l 1,25,-1
 340 794 l 1,26,-1
 270 646 l 1,27,-1
 240 646 l 1,24,-1
EndSplineSet
Validated: 1
Substitution2: "'ss01' Style Set 1 lookup 27 subtable" yacute.ss01
Substitution2: "'salt' Stylistic Alternatives lookup 26 subtable" yacute.ss01
Substitution2: "'aalt' Access All Alternates lookup 0 subtable" yacute.ss01
EndChar

StartChar: thorn
Encoding: 190 254 190
Width: 711
GlyphClass: 2
Flags: W
LayerCount: 2
Fore
SplineSet
90 -220 m 1,0,-1
 90 780 l 1,1,-1
 123 780 l 1,2,-1
 123 408 l 1,3,4
 160 477 160 477 227.5 518 c 128,-1,5
 295 559 295 559 376 559 c 0,6,7
 453 559 453 559 518.5 521 c 128,-1,8
 584 483 584 483 622.5 417.5 c 128,-1,9
 661 352 661 352 661 274 c 256,10,11
 661 196 661 196 622.5 130.5 c 128,-1,12
 584 65 584 65 518.5 26.5 c 128,-1,13
 453 -12 453 -12 376 -12 c 0,14,15
 295 -12 295 -12 227.5 29.5 c 128,-1,16
 160 71 160 71 123 140 c 1,17,-1
 123 -220 l 1,18,-1
 90 -220 l 1,0,-1
376 21 m 0,19,20
 444 21 444 21 502 55 c 128,-1,21
 560 89 560 89 594 147.5 c 128,-1,22
 628 206 628 206 628 274 c 256,23,24
 628 342 628 342 594 400 c 128,-1,25
 560 458 560 458 502 492 c 128,-1,26
 444 526 444 526 376 526 c 0,27,28
 307 526 307 526 249 492 c 128,-1,29
 191 458 191 458 157 400 c 128,-1,30
 123 342 123 342 123 274 c 256,31,32
 123 206 123 206 157 147.5 c 128,-1,33
 191 89 191 89 249 55 c 128,-1,34
 307 21 307 21 376 21 c 0,19,20
EndSplineSet
Validated: 1
EndChar

StartChar: ydieresis
Encoding: 191 255 191
Width: 560
GlyphClass: 2
Flags: W
LayerCount: 2
Fore
SplineSet
111 -220 m 0,0,1
 85 -220 85 -220 64.5 -215 c 128,-1,2
 44 -210 44 -210 20 -199 c 1,3,-1
 33 -168 l 1,4,5
 51 -177 51 -177 70.5 -182 c 128,-1,6
 90 -187 90 -187 111 -187 c 0,7,8
 147 -187 147 -187 174 -164 c 128,-1,9
 201 -141 201 -141 220 -106 c 128,-1,10
 239 -71 239 -71 268 -6 c 0,11,12
 268 -4 268 -4 268.5 -2.5 c 128,-1,13
 269 -1 269 -1 270 0 c 2,14,-1
 36 550 l 1,15,-1
 72 550 l 1,16,-1
 288 42 l 1,17,-1
 504 550 l 1,18,-1
 540 550 l 1,19,-1
 306 0 l 2,20,21
 269 -84 269 -84 244 -128 c 128,-1,22
 219 -172 219 -172 187.5 -196 c 128,-1,23
 156 -220 156 -220 111 -220 c 0,0,1
188 687 m 256,24,25
 175 687 175 687 165 697 c 128,-1,26
 155 707 155 707 155 720 c 0,27,28
 155 734 155 734 165 743.5 c 128,-1,29
 175 753 175 753 188 753 c 256,30,31
 201 753 201 753 210.5 743 c 128,-1,32
 220 733 220 733 220 720 c 256,33,34
 220 707 220 707 210.5 697 c 128,-1,35
 201 687 201 687 188 687 c 256,24,25
373 687 m 256,36,37
 360 687 360 687 350 697 c 128,-1,38
 340 707 340 707 340 720 c 0,39,40
 340 734 340 734 350 743.5 c 128,-1,41
 360 753 360 753 373 753 c 256,42,43
 386 753 386 753 395.5 743 c 128,-1,44
 405 733 405 733 405 720 c 256,45,46
 405 707 405 707 395.5 697 c 128,-1,47
 386 687 386 687 373 687 c 256,36,37
EndSplineSet
Validated: 1
Substitution2: "'ss01' Style Set 1 lookup 27 subtable" ydieresis.ss01
Substitution2: "'salt' Stylistic Alternatives lookup 26 subtable" ydieresis.ss01
Substitution2: "'aalt' Access All Alternates lookup 0 subtable" ydieresis.ss01
EndChar

StartChar: Amacron
Encoding: 192 256 192
Width: 680
GlyphClass: 2
Flags: W
LayerCount: 2
Fore
SplineSet
30 0 m 1,0,-1
 321 730 l 1,1,-1
 359 730 l 1,2,-1
 650 0 l 1,3,-1
 615 0 l 1,4,-1
 514 252 l 1,5,-1
 166 252 l 1,6,-1
 66 0 l 1,7,-1
 30 0 l 1,0,-1
180 285 m 1,8,-1
 501 285 l 1,9,-1
 340 687 l 1,10,-1
 180 285 l 1,8,-1
165 874 m 1,11,-1
 165 907 l 1,12,-1
 515 907 l 1,13,-1
 515 874 l 1,14,-1
 165 874 l 1,11,-1
EndSplineSet
Validated: 1
Substitution2: "'ss02' Style Set 2 lookup 28 subtable" Amacron.ss02
Substitution2: "'aalt' Access All Alternates lookup 0 subtable" Amacron.ss02
EndChar

StartChar: amacron
Encoding: 193 257 193
Width: 701
GlyphClass: 2
Flags: W
LayerCount: 2
Fore
SplineSet
330 -6 m 0,0,1
 254 -6 254 -6 190 31.5 c 128,-1,2
 126 69 126 69 88 133.5 c 128,-1,3
 50 198 50 198 50 274 c 256,4,5
 50 350 50 350 88 414.5 c 128,-1,6
 126 479 126 479 190 517 c 128,-1,7
 254 555 254 555 330 555 c 0,8,9
 412 555 412 555 481.5 510 c 128,-1,10
 551 465 551 465 578 397 c 1,11,-1
 578 550 l 1,12,-1
 611 550 l 1,13,-1
 611 0 l 1,14,-1
 578 0 l 1,15,-1
 578 149 l 1,16,17
 551 83 551 83 481.5 38.5 c 128,-1,18
 412 -6 412 -6 330 -6 c 0,0,1
330 27 m 0,19,20
 397 27 397 27 454 60.5 c 128,-1,21
 511 94 511 94 544.5 150.5 c 128,-1,22
 578 207 578 207 578 274 c 256,23,24
 578 341 578 341 544.5 398 c 128,-1,25
 511 455 511 455 454 488.5 c 128,-1,26
 397 522 397 522 330 522 c 0,27,28
 264 522 264 522 207 488.5 c 128,-1,29
 150 455 150 455 116.5 398 c 128,-1,30
 83 341 83 341 83 274 c 256,31,32
 83 207 83 207 116.5 150.5 c 128,-1,33
 150 94 150 94 207 60.5 c 128,-1,34
 264 27 264 27 330 27 c 0,19,20
166 704 m 1,35,-1
 166 737 l 1,36,-1
 516 737 l 1,37,-1
 516 704 l 1,38,-1
 166 704 l 1,35,-1
EndSplineSet
Validated: 1
Substitution2: "'ss02' Style Set 2 lookup 28 subtable" amacron.ss02
Substitution2: "'ss01' Style Set 1 lookup 27 subtable" amacron.ss01
Substitution2: "'salt' Stylistic Alternatives lookup 26 subtable" amacron.ss01
AlternateSubs2: "'aalt' Access All Alternates lookup 1 subtable" amacron.ss01 amacron.ss02
EndChar

StartChar: Abreve
Encoding: 194 258 194
Width: 680
GlyphClass: 2
Flags: W
LayerCount: 2
Fore
SplineSet
30 0 m 1,0,-1
 321 730 l 1,1,-1
 359 730 l 1,2,-1
 650 0 l 1,3,-1
 615 0 l 1,4,-1
 514 252 l 1,5,-1
 166 252 l 1,6,-1
 66 0 l 1,7,-1
 30 0 l 1,0,-1
180 285 m 1,8,-1
 501 285 l 1,9,-1
 340 687 l 1,10,-1
 180 285 l 1,8,-1
343 816 m 0,11,12
 302 816 302 816 267 836 c 128,-1,13
 232 856 232 856 210.5 889.5 c 128,-1,14
 189 923 189 923 186 964 c 1,15,-1
 219 964 l 1,16,17
 223 916 223 916 258.5 882.5 c 128,-1,18
 294 849 294 849 343 849 c 0,19,20
 391 849 391 849 426 882.5 c 128,-1,21
 461 916 461 916 465 964 c 1,22,-1
 498 964 l 1,23,24
 495 923 495 923 473.5 889.5 c 128,-1,25
 452 856 452 856 417.5 836 c 128,-1,26
 383 816 383 816 343 816 c 0,11,12
EndSplineSet
Validated: 1
Substitution2: "'ss02' Style Set 2 lookup 28 subtable" Abreve.ss02
Substitution2: "'aalt' Access All Alternates lookup 0 subtable" Abreve.ss02
EndChar

StartChar: abreve
Encoding: 195 259 195
Width: 701
GlyphClass: 2
Flags: W
LayerCount: 2
Fore
SplineSet
330 -6 m 0,0,1
 254 -6 254 -6 190 31.5 c 128,-1,2
 126 69 126 69 88 133.5 c 128,-1,3
 50 198 50 198 50 274 c 256,4,5
 50 350 50 350 88 414.5 c 128,-1,6
 126 479 126 479 190 517 c 128,-1,7
 254 555 254 555 330 555 c 0,8,9
 412 555 412 555 481.5 510 c 128,-1,10
 551 465 551 465 578 397 c 1,11,-1
 578 550 l 1,12,-1
 611 550 l 1,13,-1
 611 0 l 1,14,-1
 578 0 l 1,15,-1
 578 149 l 1,16,17
 551 83 551 83 481.5 38.5 c 128,-1,18
 412 -6 412 -6 330 -6 c 0,0,1
330 27 m 0,19,20
 397 27 397 27 454 60.5 c 128,-1,21
 511 94 511 94 544.5 150.5 c 128,-1,22
 578 207 578 207 578 274 c 256,23,24
 578 341 578 341 544.5 398 c 128,-1,25
 511 455 511 455 454 488.5 c 128,-1,26
 397 522 397 522 330 522 c 0,27,28
 264 522 264 522 207 488.5 c 128,-1,29
 150 455 150 455 116.5 398 c 128,-1,30
 83 341 83 341 83 274 c 256,31,32
 83 207 83 207 116.5 150.5 c 128,-1,33
 150 94 150 94 207 60.5 c 128,-1,34
 264 27 264 27 330 27 c 0,19,20
342 646 m 0,35,36
 301 646 301 646 266 666 c 128,-1,37
 231 686 231 686 209.5 719.5 c 128,-1,38
 188 753 188 753 185 794 c 1,39,-1
 218 794 l 1,40,41
 222 746 222 746 257.5 712.5 c 128,-1,42
 293 679 293 679 342 679 c 0,43,44
 390 679 390 679 425 712.5 c 128,-1,45
 460 746 460 746 464 794 c 1,46,-1
 497 794 l 1,47,48
 494 753 494 753 472.5 719.5 c 128,-1,49
 451 686 451 686 416.5 666 c 128,-1,50
 382 646 382 646 342 646 c 0,35,36
EndSplineSet
Validated: 1
Substitution2: "'ss02' Style Set 2 lookup 28 subtable" abreve.ss02
Substitution2: "'ss01' Style Set 1 lookup 27 subtable" abreve.ss01
Substitution2: "'salt' Stylistic Alternatives lookup 26 subtable" abreve.ss01
AlternateSubs2: "'aalt' Access All Alternates lookup 1 subtable" abreve.ss01 abreve.ss02
EndChar

StartChar: Aogonek
Encoding: 196 260 196
Width: 680
GlyphClass: 2
Flags: W
LayerCount: 2
Fore
SplineSet
625 -218 m 0,0,1
 593 -218 593 -218 570.5 -193.5 c 128,-1,2
 548 -169 548 -169 548 -133 c 0,3,4
 548 -93 548 -93 571.5 -60.5 c 128,-1,5
 595 -28 595 -28 623 -2 c 1,6,-1
 626 0 l 1,7,-1
 617 0 l 1,8,-1
 514 252 l 1,9,-1
 166 252 l 1,10,-1
 66 0 l 1,11,-1
 30 0 l 1,12,-1
 321 730 l 1,13,-1
 359 730 l 1,14,-1
 650 0 l 1,15,16
 646 -6 646 -6 642 -11.5 c 128,-1,17
 638 -17 638 -17 634 -22 c 0,18,19
 605 -63 605 -63 593 -85.5 c 128,-1,20
 581 -108 581 -108 581 -132 c 0,21,22
 581 -154 581 -154 593.5 -169.5 c 128,-1,23
 606 -185 606 -185 625 -185 c 0,24,25
 660 -185 660 -185 682 -153 c 1,26,-1
 701 -179 l 1,27,28
 687 -199 687 -199 668.5 -208.5 c 128,-1,29
 650 -218 650 -218 625 -218 c 0,0,1
180 285 m 1,30,-1
 501 285 l 1,31,-1
 340 687 l 1,32,-1
 180 285 l 1,30,-1
EndSplineSet
Validated: 1
Substitution2: "'ss02' Style Set 2 lookup 28 subtable" Aogonek.ss02
Substitution2: "'aalt' Access All Alternates lookup 0 subtable" Aogonek.ss02
EndChar

StartChar: aogonek
Encoding: 197 261 197
Width: 698
GlyphClass: 2
Flags: W
LayerCount: 2
Fore
SplineSet
586 -207 m 0,0,1
 554 -207 554 -207 531.5 -182.5 c 128,-1,2
 509 -158 509 -158 509 -122 c 0,3,4
 509 -96 509 -96 521 -75.5 c 128,-1,5
 533 -55 533 -55 556 -29 c 0,6,7
 562 -22 562 -22 568 -14.5 c 128,-1,8
 574 -7 574 -7 579 0 c 1,9,-1
 578 0 l 1,10,-1
 578 149 l 1,11,12
 551 83 551 83 481.5 38.5 c 128,-1,13
 412 -6 412 -6 330 -6 c 0,14,15
 254 -6 254 -6 190 31.5 c 128,-1,16
 126 69 126 69 88 133.5 c 128,-1,17
 50 198 50 198 50 274 c 256,18,19
 50 350 50 350 88 414.5 c 128,-1,20
 126 479 126 479 190 517 c 128,-1,21
 254 555 254 555 330 555 c 0,22,23
 412 555 412 555 481.5 510 c 128,-1,24
 551 465 551 465 578 397 c 1,25,-1
 578 550 l 1,26,-1
 611 550 l 1,27,-1
 611 0 l 1,28,-1
 608 0 l 1,29,30
 601 -10 601 -10 595 -18.5 c 128,-1,31
 589 -27 589 -27 583 -35 c 0,32,33
 560 -66 560 -66 551 -83 c 128,-1,34
 542 -100 542 -100 542 -121 c 0,35,36
 542 -143 542 -143 554.5 -158.5 c 128,-1,37
 567 -174 567 -174 586 -174 c 0,38,39
 621 -174 621 -174 643 -142 c 1,40,-1
 662 -168 l 1,41,42
 648 -188 648 -188 629.5 -197.5 c 128,-1,43
 611 -207 611 -207 586 -207 c 0,0,1
330 27 m 0,44,45
 397 27 397 27 454 60.5 c 128,-1,46
 511 94 511 94 544.5 150.5 c 128,-1,47
 578 207 578 207 578 274 c 256,48,49
 578 341 578 341 544.5 398 c 128,-1,50
 511 455 511 455 454 488.5 c 128,-1,51
 397 522 397 522 330 522 c 0,52,53
 264 522 264 522 207 488.5 c 128,-1,54
 150 455 150 455 116.5 398 c 128,-1,55
 83 341 83 341 83 274 c 256,56,57
 83 207 83 207 116.5 150.5 c 128,-1,58
 150 94 150 94 207 60.5 c 128,-1,59
 264 27 264 27 330 27 c 0,44,45
EndSplineSet
Validated: 1
Substitution2: "'ss02' Style Set 2 lookup 28 subtable" aogonek.ss02
Substitution2: "'ss01' Style Set 1 lookup 27 subtable" aogonek.ss01
Substitution2: "'salt' Stylistic Alternatives lookup 26 subtable" aogonek.ss01
AlternateSubs2: "'aalt' Access All Alternates lookup 1 subtable" aogonek.ss01 aogonek.ss02
EndChar

StartChar: Cacute
Encoding: 198 262 198
Width: 770
GlyphClass: 2
Flags: W
LayerCount: 2
Fore
SplineSet
432 -8 m 0,0,1
 331 -8 331 -8 245.5 42 c 128,-1,2
 160 92 160 92 110 178 c 128,-1,3
 60 264 60 264 60 365 c 0,4,5
 60 465 60 465 110 550.5 c 128,-1,6
 160 636 160 636 245.5 686 c 128,-1,7
 331 736 331 736 432 736 c 0,8,9
 519 736 519 736 595 698.5 c 128,-1,10
 671 661 671 661 723 595 c 1,11,-1
 697 575 l 1,12,13
 650 635 650 635 580.5 669 c 128,-1,14
 511 703 511 703 432 703 c 0,15,16
 340 703 340 703 262 658 c 128,-1,17
 184 613 184 613 138.5 535.5 c 128,-1,18
 93 458 93 458 93 366 c 0,19,20
 93 272 93 272 138.5 194 c 128,-1,21
 184 116 184 116 262 70.5 c 128,-1,22
 340 25 340 25 432 25 c 0,23,24
 514 25 514 25 585.5 61.5 c 128,-1,25
 657 98 657 98 703 162 c 1,26,-1
 730 143 l 1,27,28
 679 73 679 73 600.5 32.5 c 128,-1,29
 522 -8 522 -8 432 -8 c 0,0,1
343 816 m 1,30,-1
 408 964 l 1,31,-1
 443 964 l 1,32,-1
 373 816 l 1,33,-1
 343 816 l 1,30,-1
EndSplineSet
Validated: 1
EndChar

StartChar: cacute
Encoding: 199 263 199
Width: 612
GlyphClass: 2
Flags: W
LayerCount: 2
Fore
SplineSet
331 -5 m 0,0,1
 254 -5 254 -5 189.5 33 c 128,-1,2
 125 71 125 71 87.5 135.5 c 128,-1,3
 50 200 50 200 50 276 c 256,4,5
 50 352 50 352 87.5 416.5 c 128,-1,6
 125 481 125 481 189.5 518.5 c 128,-1,7
 254 556 254 556 331 556 c 0,8,9
 400 556 400 556 460.5 524 c 128,-1,10
 521 492 521 492 560 437 c 1,11,-1
 532 418 l 1,12,13
 498 467 498 467 445 495 c 128,-1,14
 392 523 392 523 331 523 c 0,15,16
 264 523 264 523 207 489.5 c 128,-1,17
 150 456 150 456 116.5 399.5 c 128,-1,18
 83 343 83 343 83 276 c 256,19,20
 83 209 83 209 116.5 152 c 128,-1,21
 150 95 150 95 207 61.5 c 128,-1,22
 264 28 264 28 331 28 c 0,23,24
 393 28 393 28 446.5 57 c 128,-1,25
 500 86 500 86 534 136 c 1,26,-1
 562 118 l 1,27,28
 524 61 524 61 463 28 c 128,-1,29
 402 -5 402 -5 331 -5 c 0,0,1
296 646 m 1,30,-1
 361 794 l 1,31,-1
 396 794 l 1,32,-1
 326 646 l 1,33,-1
 296 646 l 1,30,-1
EndSplineSet
Validated: 1
EndChar

StartChar: Ccircumflex
Encoding: 200 264 200
Width: 770
GlyphClass: 2
Flags: W
LayerCount: 2
Fore
SplineSet
432 -8 m 0,0,1
 331 -8 331 -8 245.5 42 c 128,-1,2
 160 92 160 92 110 178 c 128,-1,3
 60 264 60 264 60 365 c 0,4,5
 60 465 60 465 110 550.5 c 128,-1,6
 160 636 160 636 245.5 686 c 128,-1,7
 331 736 331 736 432 736 c 0,8,9
 519 736 519 736 595 698.5 c 128,-1,10
 671 661 671 661 723 595 c 1,11,-1
 697 575 l 1,12,13
 650 635 650 635 580.5 669 c 128,-1,14
 511 703 511 703 432 703 c 0,15,16
 340 703 340 703 262 658 c 128,-1,17
 184 613 184 613 138.5 535.5 c 128,-1,18
 93 458 93 458 93 366 c 0,19,20
 93 272 93 272 138.5 194 c 128,-1,21
 184 116 184 116 262 70.5 c 128,-1,22
 340 25 340 25 432 25 c 0,23,24
 514 25 514 25 585.5 61.5 c 128,-1,25
 657 98 657 98 703 162 c 1,26,-1
 730 143 l 1,27,28
 679 73 679 73 600.5 32.5 c 128,-1,29
 522 -8 522 -8 432 -8 c 0,0,1
296 830 m 1,30,-1
 404 950 l 1,31,-1
 448 950 l 1,32,-1
 556 830 l 1,33,-1
 512 830 l 1,34,-1
 426 926 l 1,35,-1
 340 830 l 1,36,-1
 296 830 l 1,30,-1
EndSplineSet
Validated: 1
EndChar

StartChar: ccircumflex
Encoding: 201 265 201
Width: 612
GlyphClass: 2
Flags: W
LayerCount: 2
Fore
SplineSet
331 -5 m 0,0,1
 254 -5 254 -5 189.5 33 c 128,-1,2
 125 71 125 71 87.5 135.5 c 128,-1,3
 50 200 50 200 50 276 c 256,4,5
 50 352 50 352 87.5 416.5 c 128,-1,6
 125 481 125 481 189.5 518.5 c 128,-1,7
 254 556 254 556 331 556 c 0,8,9
 400 556 400 556 460.5 524 c 128,-1,10
 521 492 521 492 560 437 c 1,11,-1
 532 418 l 1,12,13
 498 467 498 467 445 495 c 128,-1,14
 392 523 392 523 331 523 c 0,15,16
 264 523 264 523 207 489.5 c 128,-1,17
 150 456 150 456 116.5 399.5 c 128,-1,18
 83 343 83 343 83 276 c 256,19,20
 83 209 83 209 116.5 152 c 128,-1,21
 150 95 150 95 207 61.5 c 128,-1,22
 264 28 264 28 331 28 c 0,23,24
 393 28 393 28 446.5 57 c 128,-1,25
 500 86 500 86 534 136 c 1,26,-1
 562 118 l 1,27,28
 524 61 524 61 463 28 c 128,-1,29
 402 -5 402 -5 331 -5 c 0,0,1
197 660 m 1,30,-1
 305 780 l 1,31,-1
 349 780 l 1,32,-1
 457 660 l 1,33,-1
 413 660 l 1,34,-1
 327 756 l 1,35,-1
 241 660 l 1,36,-1
 197 660 l 1,30,-1
EndSplineSet
Validated: 1
EndChar

StartChar: Cdotaccent
Encoding: 202 266 202
Width: 770
GlyphClass: 2
Flags: W
LayerCount: 2
Fore
SplineSet
432 -8 m 0,0,1
 331 -8 331 -8 245.5 42 c 128,-1,2
 160 92 160 92 110 178 c 128,-1,3
 60 264 60 264 60 365 c 0,4,5
 60 465 60 465 110 550.5 c 128,-1,6
 160 636 160 636 245.5 686 c 128,-1,7
 331 736 331 736 432 736 c 0,8,9
 519 736 519 736 595 698.5 c 128,-1,10
 671 661 671 661 723 595 c 1,11,-1
 697 575 l 1,12,13
 650 635 650 635 580.5 669 c 128,-1,14
 511 703 511 703 432 703 c 0,15,16
 340 703 340 703 262 658 c 128,-1,17
 184 613 184 613 138.5 535.5 c 128,-1,18
 93 458 93 458 93 366 c 0,19,20
 93 272 93 272 138.5 194 c 128,-1,21
 184 116 184 116 262 70.5 c 128,-1,22
 340 25 340 25 432 25 c 0,23,24
 514 25 514 25 585.5 61.5 c 128,-1,25
 657 98 657 98 703 162 c 1,26,-1
 730 143 l 1,27,28
 679 73 679 73 600.5 32.5 c 128,-1,29
 522 -8 522 -8 432 -8 c 0,0,1
418 857 m 256,30,31
 405 857 405 857 395 867 c 128,-1,32
 385 877 385 877 385 890 c 0,33,34
 385 904 385 904 395 913.5 c 128,-1,35
 405 923 405 923 418 923 c 256,36,37
 431 923 431 923 440.5 913 c 128,-1,38
 450 903 450 903 450 890 c 256,39,40
 450 877 450 877 440.5 867 c 128,-1,41
 431 857 431 857 418 857 c 256,30,31
EndSplineSet
Validated: 1
EndChar

StartChar: cdotaccent
Encoding: 203 267 203
Width: 612
GlyphClass: 2
Flags: W
LayerCount: 2
Fore
SplineSet
331 -5 m 0,0,1
 254 -5 254 -5 189.5 33 c 128,-1,2
 125 71 125 71 87.5 135.5 c 128,-1,3
 50 200 50 200 50 276 c 256,4,5
 50 352 50 352 87.5 416.5 c 128,-1,6
 125 481 125 481 189.5 518.5 c 128,-1,7
 254 556 254 556 331 556 c 0,8,9
 400 556 400 556 460.5 524 c 128,-1,10
 521 492 521 492 560 437 c 1,11,-1
 532 418 l 1,12,13
 498 467 498 467 445 495 c 128,-1,14
 392 523 392 523 331 523 c 0,15,16
 264 523 264 523 207 489.5 c 128,-1,17
 150 456 150 456 116.5 399.5 c 128,-1,18
 83 343 83 343 83 276 c 256,19,20
 83 209 83 209 116.5 152 c 128,-1,21
 150 95 150 95 207 61.5 c 128,-1,22
 264 28 264 28 331 28 c 0,23,24
 393 28 393 28 446.5 57 c 128,-1,25
 500 86 500 86 534 136 c 1,26,-1
 562 118 l 1,27,28
 524 61 524 61 463 28 c 128,-1,29
 402 -5 402 -5 331 -5 c 0,0,1
317 687 m 256,30,31
 304 687 304 687 294 697 c 128,-1,32
 284 707 284 707 284 720 c 0,33,34
 284 734 284 734 294 743.5 c 128,-1,35
 304 753 304 753 317 753 c 256,36,37
 330 753 330 753 339.5 743 c 128,-1,38
 349 733 349 733 349 720 c 256,39,40
 349 707 349 707 339.5 697 c 128,-1,41
 330 687 330 687 317 687 c 256,30,31
EndSplineSet
Validated: 1
EndChar

StartChar: Ccaron
Encoding: 204 268 204
Width: 770
GlyphClass: 2
Flags: W
LayerCount: 2
Fore
SplineSet
432 -8 m 0,0,1
 331 -8 331 -8 245.5 42 c 128,-1,2
 160 92 160 92 110 178 c 128,-1,3
 60 264 60 264 60 365 c 0,4,5
 60 465 60 465 110 550.5 c 128,-1,6
 160 636 160 636 245.5 686 c 128,-1,7
 331 736 331 736 432 736 c 0,8,9
 519 736 519 736 595 698.5 c 128,-1,10
 671 661 671 661 723 595 c 1,11,-1
 697 575 l 1,12,13
 650 635 650 635 580.5 669 c 128,-1,14
 511 703 511 703 432 703 c 0,15,16
 340 703 340 703 262 658 c 128,-1,17
 184 613 184 613 138.5 535.5 c 128,-1,18
 93 458 93 458 93 366 c 0,19,20
 93 272 93 272 138.5 194 c 128,-1,21
 184 116 184 116 262 70.5 c 128,-1,22
 340 25 340 25 432 25 c 0,23,24
 514 25 514 25 585.5 61.5 c 128,-1,25
 657 98 657 98 703 162 c 1,26,-1
 730 143 l 1,27,28
 679 73 679 73 600.5 32.5 c 128,-1,29
 522 -8 522 -8 432 -8 c 0,0,1
391 830 m 1,30,-1
 283 950 l 1,31,-1
 327 950 l 1,32,-1
 413 854 l 1,33,-1
 499 950 l 1,34,-1
 543 950 l 1,35,-1
 435 830 l 1,36,-1
 391 830 l 1,30,-1
EndSplineSet
Validated: 1
EndChar

StartChar: ccaron
Encoding: 205 269 205
Width: 612
GlyphClass: 2
Flags: W
LayerCount: 2
Fore
SplineSet
331 -5 m 0,0,1
 254 -5 254 -5 189.5 33 c 128,-1,2
 125 71 125 71 87.5 135.5 c 128,-1,3
 50 200 50 200 50 276 c 256,4,5
 50 352 50 352 87.5 416.5 c 128,-1,6
 125 481 125 481 189.5 518.5 c 128,-1,7
 254 556 254 556 331 556 c 0,8,9
 400 556 400 556 460.5 524 c 128,-1,10
 521 492 521 492 560 437 c 1,11,-1
 532 418 l 1,12,13
 498 467 498 467 445 495 c 128,-1,14
 392 523 392 523 331 523 c 0,15,16
 264 523 264 523 207 489.5 c 128,-1,17
 150 456 150 456 116.5 399.5 c 128,-1,18
 83 343 83 343 83 276 c 256,19,20
 83 209 83 209 116.5 152 c 128,-1,21
 150 95 150 95 207 61.5 c 128,-1,22
 264 28 264 28 331 28 c 0,23,24
 393 28 393 28 446.5 57 c 128,-1,25
 500 86 500 86 534 136 c 1,26,-1
 562 118 l 1,27,28
 524 61 524 61 463 28 c 128,-1,29
 402 -5 402 -5 331 -5 c 0,0,1
274 660 m 1,30,-1
 166 780 l 1,31,-1
 210 780 l 1,32,-1
 296 684 l 1,33,-1
 382 780 l 1,34,-1
 426 780 l 1,35,-1
 318 660 l 1,36,-1
 274 660 l 1,30,-1
EndSplineSet
Validated: 1
EndChar

StartChar: Dcaron
Encoding: 206 270 206
Width: 750
GlyphClass: 2
Flags: W
LayerCount: 2
Fore
SplineSet
100 0 m 1,0,-1
 100 730 l 1,1,-1
 307 730 l 2,2,3
 417 730 417 730 504.5 681 c 128,-1,4
 592 632 592 632 641 549 c 128,-1,5
 690 466 690 466 690 366 c 0,6,7
 690 264 690 264 643 180.5 c 128,-1,8
 596 97 596 97 509 48.5 c 128,-1,9
 422 0 422 0 307 0 c 2,10,-1
 100 0 l 1,0,-1
307 33 m 2,11,12
 414 33 414 33 493.5 78 c 128,-1,13
 573 123 573 123 615 199.5 c 128,-1,14
 657 276 657 276 657 368 c 0,15,16
 657 456 657 456 613 531.5 c 128,-1,17
 569 607 569 607 489 652 c 128,-1,18
 409 697 409 697 307 697 c 2,19,-1
 133 697 l 1,20,-1
 133 33 l 1,21,-1
 307 33 l 2,11,12
281 830 m 1,22,-1
 173 950 l 1,23,-1
 217 950 l 1,24,-1
 303 854 l 1,25,-1
 389 950 l 1,26,-1
 433 950 l 1,27,-1
 325 830 l 1,28,-1
 281 830 l 1,22,-1
EndSplineSet
Validated: 1
EndChar

StartChar: dcaron
Encoding: 207 271 207
Width: 734
GlyphClass: 2
Flags: W
LayerCount: 2
Fore
SplineSet
330 -6 m 0,0,1
 254 -6 254 -6 190 31.5 c 128,-1,2
 126 69 126 69 88 133.5 c 128,-1,3
 50 198 50 198 50 274 c 256,4,5
 50 350 50 350 88 414.5 c 128,-1,6
 126 479 126 479 190 517 c 128,-1,7
 254 555 254 555 330 555 c 0,8,9
 412 555 412 555 481.5 510 c 128,-1,10
 551 465 551 465 578 397 c 1,11,-1
 578 780 l 1,12,-1
 611 780 l 1,13,-1
 611 0 l 1,14,-1
 578 0 l 1,15,-1
 578 149 l 1,16,17
 551 83 551 83 481.5 38.5 c 128,-1,18
 412 -6 412 -6 330 -6 c 0,0,1
330 27 m 0,19,20
 397 27 397 27 454 60.5 c 128,-1,21
 511 94 511 94 544.5 150.5 c 128,-1,22
 578 207 578 207 578 274 c 256,23,24
 578 341 578 341 544.5 398 c 128,-1,25
 511 455 511 455 454 488.5 c 128,-1,26
 397 522 397 522 330 522 c 0,27,28
 264 522 264 522 207 488.5 c 128,-1,29
 150 455 150 455 116.5 398 c 128,-1,30
 83 341 83 341 83 274 c 256,31,32
 83 207 83 207 116.5 150.5 c 128,-1,33
 150 94 150 94 207 60.5 c 128,-1,34
 264 27 264 27 330 27 c 0,19,20
681 600 m 1,35,-1
 679 780 l 1,36,-1
 714 780 l 1,37,-1
 712 600 l 1,38,-1
 681 600 l 1,35,-1
EndSplineSet
Validated: 1
Substitution2: "'ss01' Style Set 1 lookup 27 subtable" dcaron.ss01
Substitution2: "'salt' Stylistic Alternatives lookup 26 subtable" dcaron.ss01
Substitution2: "'aalt' Access All Alternates lookup 0 subtable" dcaron.ss01
EndChar

StartChar: Dcroat
Encoding: 208 272 208
Width: 750
GlyphClass: 2
Flags: W
LayerCount: 2
Fore
SplineSet
100 0 m 1,0,-1
 100 349 l 1,1,-1
 50 349 l 1,2,-1
 50 382 l 1,3,-1
 100 382 l 1,4,-1
 100 730 l 1,5,-1
 307 730 l 2,6,7
 417 730 417 730 504.5 681 c 128,-1,8
 592 632 592 632 641 549 c 128,-1,9
 690 466 690 466 690 366 c 0,10,11
 690 265 690 265 643 181 c 128,-1,12
 596 97 596 97 509 48.5 c 128,-1,13
 422 0 422 0 307 0 c 2,14,-1
 100 0 l 1,0,-1
307 34 m 2,15,16
 413 34 413 34 492.5 78.5 c 128,-1,17
 572 123 572 123 614 199.5 c 128,-1,18
 656 276 656 276 656 368 c 0,19,20
 656 456 656 456 612 531 c 128,-1,21
 568 606 568 606 488.5 651 c 128,-1,22
 409 696 409 696 307 696 c 2,23,-1
 134 696 l 1,24,-1
 134 382 l 1,25,-1
 434 382 l 1,26,-1
 434 349 l 1,27,-1
 134 349 l 1,28,-1
 134 34 l 1,29,-1
 307 34 l 2,15,16
EndSplineSet
Validated: 1
EndChar

StartChar: dcroat
Encoding: 209 273 209
Width: 702
GlyphClass: 2
Flags: W
LayerCount: 2
Fore
SplineSet
330 -6 m 0,0,1
 254 -6 254 -6 190 31.5 c 128,-1,2
 126 69 126 69 88 133.5 c 128,-1,3
 50 198 50 198 50 274 c 256,4,5
 50 350 50 350 88 414.5 c 128,-1,6
 126 479 126 479 190 517 c 128,-1,7
 254 555 254 555 330 555 c 0,8,9
 412 555 412 555 481.5 510 c 128,-1,10
 551 465 551 465 578 397 c 1,11,-1
 578 662 l 1,12,-1
 322 662 l 1,13,-1
 322 695 l 1,14,-1
 578 695 l 1,15,-1
 578 780 l 1,16,-1
 611 780 l 1,17,-1
 611 695 l 1,18,-1
 672 695 l 1,19,-1
 672 662 l 1,20,-1
 611 662 l 1,21,-1
 611 0 l 1,22,-1
 578 0 l 1,23,-1
 578 149 l 1,24,25
 551 83 551 83 481.5 38.5 c 128,-1,26
 412 -6 412 -6 330 -6 c 0,0,1
330 27 m 0,27,28
 397 27 397 27 454 60.5 c 128,-1,29
 511 94 511 94 544.5 150.5 c 128,-1,30
 578 207 578 207 578 274 c 256,31,32
 578 341 578 341 544.5 398 c 128,-1,33
 511 455 511 455 454 488.5 c 128,-1,34
 397 522 397 522 330 522 c 0,35,36
 264 522 264 522 207 488.5 c 128,-1,37
 150 455 150 455 116.5 398 c 128,-1,38
 83 341 83 341 83 274 c 256,39,40
 83 207 83 207 116.5 150.5 c 128,-1,41
 150 94 150 94 207 60.5 c 128,-1,42
 264 27 264 27 330 27 c 0,27,28
EndSplineSet
Validated: 1
Substitution2: "'ss01' Style Set 1 lookup 27 subtable" dcroat.ss01
Substitution2: "'salt' Stylistic Alternatives lookup 26 subtable" dcroat.ss01
Substitution2: "'aalt' Access All Alternates lookup 0 subtable" dcroat.ss01
EndChar

StartChar: Emacron
Encoding: 210 274 210
Width: 606
GlyphClass: 2
Flags: W
LayerCount: 2
Fore
SplineSet
100 0 m 1,0,-1
 100 730 l 1,1,-1
 536 730 l 1,2,-1
 536 697 l 1,3,-1
 133 697 l 1,4,-1
 133 392 l 1,5,-1
 516 392 l 1,6,-1
 516 359 l 1,7,-1
 133 359 l 1,8,-1
 133 33 l 1,9,-1
 546 33 l 1,10,-1
 546 0 l 1,11,-1
 100 0 l 1,0,-1
148 874 m 1,12,-1
 148 907 l 1,13,-1
 498 907 l 1,14,-1
 498 874 l 1,15,-1
 148 874 l 1,12,-1
EndSplineSet
Validated: 1
EndChar

StartChar: emacron
Encoding: 211 275 211
Width: 651
GlyphClass: 2
Flags: W
LayerCount: 2
Fore
SplineSet
337 -5 m 0,0,1
 259 -5 259 -5 193 33 c 128,-1,2
 127 71 127 71 88.5 135.5 c 128,-1,3
 50 200 50 200 50 276 c 256,4,5
 50 352 50 352 87 416.5 c 128,-1,6
 124 481 124 481 187.5 518.5 c 128,-1,7
 251 556 251 556 326 556 c 0,8,9
 405 556 405 556 467.5 518.5 c 128,-1,10
 530 481 530 481 565.5 417 c 128,-1,11
 601 353 601 353 601 276 c 0,12,13
 601 265 601 265 599 245 c 1,14,-1
 85 245 l 1,15,16
 93 185 93 185 128.5 135 c 128,-1,17
 164 85 164 85 219 56.5 c 128,-1,18
 274 28 274 28 337 28 c 0,19,20
 398 28 398 28 452 55.5 c 128,-1,21
 506 83 506 83 540 130 c 1,22,-1
 569 113 l 1,23,24
 530 59 530 59 469 27 c 128,-1,25
 408 -5 408 -5 337 -5 c 0,0,1
568 278 m 1,26,27
 568 345 568 345 536.5 401 c 128,-1,28
 505 457 505 457 450 490 c 128,-1,29
 395 523 395 523 326 523 c 0,30,31
 261 523 261 523 205 490 c 128,-1,32
 149 457 149 457 116 400.5 c 128,-1,33
 83 344 83 344 83 278 c 1,34,-1
 568 278 l 1,26,27
151 704 m 1,35,-1
 151 737 l 1,36,-1
 501 737 l 1,37,-1
 501 704 l 1,38,-1
 151 704 l 1,35,-1
EndSplineSet
Validated: 1
EndChar

StartChar: Ebreve
Encoding: 212 276 212
Width: 606
GlyphClass: 2
Flags: W
LayerCount: 2
Fore
SplineSet
100 0 m 1,0,-1
 100 730 l 1,1,-1
 536 730 l 1,2,-1
 536 697 l 1,3,-1
 133 697 l 1,4,-1
 133 392 l 1,5,-1
 516 392 l 1,6,-1
 516 359 l 1,7,-1
 133 359 l 1,8,-1
 133 33 l 1,9,-1
 546 33 l 1,10,-1
 546 0 l 1,11,-1
 100 0 l 1,0,-1
330 816 m 0,12,13
 289 816 289 816 254 836 c 128,-1,14
 219 856 219 856 197.5 889.5 c 128,-1,15
 176 923 176 923 173 964 c 1,16,-1
 206 964 l 1,17,18
 210 916 210 916 245.5 882.5 c 128,-1,19
 281 849 281 849 330 849 c 0,20,21
 378 849 378 849 413 882.5 c 128,-1,22
 448 916 448 916 452 964 c 1,23,-1
 485 964 l 1,24,25
 482 923 482 923 460.5 889.5 c 128,-1,26
 439 856 439 856 404.5 836 c 128,-1,27
 370 816 370 816 330 816 c 0,12,13
EndSplineSet
Validated: 1
EndChar

StartChar: ebreve
Encoding: 213 277 213
Width: 651
GlyphClass: 2
Flags: W
LayerCount: 2
Fore
SplineSet
337 -5 m 0,0,1
 259 -5 259 -5 193 33 c 128,-1,2
 127 71 127 71 88.5 135.5 c 128,-1,3
 50 200 50 200 50 276 c 256,4,5
 50 352 50 352 87 416.5 c 128,-1,6
 124 481 124 481 187.5 518.5 c 128,-1,7
 251 556 251 556 326 556 c 0,8,9
 405 556 405 556 467.5 518.5 c 128,-1,10
 530 481 530 481 565.5 417 c 128,-1,11
 601 353 601 353 601 276 c 0,12,13
 601 265 601 265 599 245 c 1,14,-1
 85 245 l 1,15,16
 93 185 93 185 128.5 135 c 128,-1,17
 164 85 164 85 219 56.5 c 128,-1,18
 274 28 274 28 337 28 c 0,19,20
 398 28 398 28 452 55.5 c 128,-1,21
 506 83 506 83 540 130 c 1,22,-1
 569 113 l 1,23,24
 530 59 530 59 469 27 c 128,-1,25
 408 -5 408 -5 337 -5 c 0,0,1
568 278 m 1,26,27
 568 345 568 345 536.5 401 c 128,-1,28
 505 457 505 457 450 490 c 128,-1,29
 395 523 395 523 326 523 c 0,30,31
 261 523 261 523 205 490 c 128,-1,32
 149 457 149 457 116 400.5 c 128,-1,33
 83 344 83 344 83 278 c 1,34,-1
 568 278 l 1,26,27
327 646 m 0,35,36
 286 646 286 646 251 666 c 128,-1,37
 216 686 216 686 194.5 719.5 c 128,-1,38
 173 753 173 753 170 794 c 1,39,-1
 203 794 l 1,40,41
 207 746 207 746 242.5 712.5 c 128,-1,42
 278 679 278 679 327 679 c 0,43,44
 375 679 375 679 410 712.5 c 128,-1,45
 445 746 445 746 449 794 c 1,46,-1
 482 794 l 1,47,48
 479 753 479 753 457.5 719.5 c 128,-1,49
 436 686 436 686 401.5 666 c 128,-1,50
 367 646 367 646 327 646 c 0,35,36
EndSplineSet
Validated: 1
EndChar

StartChar: Edotaccent
Encoding: 214 278 214
Width: 606
GlyphClass: 2
Flags: W
LayerCount: 2
Fore
SplineSet
100 0 m 1,0,-1
 100 730 l 1,1,-1
 536 730 l 1,2,-1
 536 697 l 1,3,-1
 133 697 l 1,4,-1
 133 392 l 1,5,-1
 516 392 l 1,6,-1
 516 359 l 1,7,-1
 133 359 l 1,8,-1
 133 33 l 1,9,-1
 546 33 l 1,10,-1
 546 0 l 1,11,-1
 100 0 l 1,0,-1
324 857 m 256,12,13
 311 857 311 857 301 867 c 128,-1,14
 291 877 291 877 291 890 c 0,15,16
 291 904 291 904 301 913.5 c 128,-1,17
 311 923 311 923 324 923 c 256,18,19
 337 923 337 923 346.5 913 c 128,-1,20
 356 903 356 903 356 890 c 256,21,22
 356 877 356 877 346.5 867 c 128,-1,23
 337 857 337 857 324 857 c 256,12,13
EndSplineSet
Validated: 1
EndChar

StartChar: edotaccent
Encoding: 215 279 215
Width: 651
GlyphClass: 2
Flags: W
LayerCount: 2
Fore
SplineSet
337 -5 m 0,0,1
 259 -5 259 -5 193 33 c 128,-1,2
 127 71 127 71 88.5 135.5 c 128,-1,3
 50 200 50 200 50 276 c 256,4,5
 50 352 50 352 87 416.5 c 128,-1,6
 124 481 124 481 187.5 518.5 c 128,-1,7
 251 556 251 556 326 556 c 0,8,9
 405 556 405 556 467.5 518.5 c 128,-1,10
 530 481 530 481 565.5 417 c 128,-1,11
 601 353 601 353 601 276 c 0,12,13
 601 265 601 265 599 245 c 1,14,-1
 85 245 l 1,15,16
 93 185 93 185 128.5 135 c 128,-1,17
 164 85 164 85 219 56.5 c 128,-1,18
 274 28 274 28 337 28 c 0,19,20
 398 28 398 28 452 55.5 c 128,-1,21
 506 83 506 83 540 130 c 1,22,-1
 569 113 l 1,23,24
 530 59 530 59 469 27 c 128,-1,25
 408 -5 408 -5 337 -5 c 0,0,1
568 278 m 1,26,27
 568 345 568 345 536.5 401 c 128,-1,28
 505 457 505 457 450 490 c 128,-1,29
 395 523 395 523 326 523 c 0,30,31
 261 523 261 523 205 490 c 128,-1,32
 149 457 149 457 116 400.5 c 128,-1,33
 83 344 83 344 83 278 c 1,34,-1
 568 278 l 1,26,27
314 687 m 256,35,36
 301 687 301 687 291 697 c 128,-1,37
 281 707 281 707 281 720 c 0,38,39
 281 734 281 734 291 743.5 c 128,-1,40
 301 753 301 753 314 753 c 256,41,42
 327 753 327 753 336.5 743 c 128,-1,43
 346 733 346 733 346 720 c 256,44,45
 346 707 346 707 336.5 697 c 128,-1,46
 327 687 327 687 314 687 c 256,35,36
EndSplineSet
Validated: 1
EndChar

StartChar: Eogonek
Encoding: 216 280 216
Width: 625
GlyphClass: 2
Flags: W
LayerCount: 2
Fore
SplineSet
521 -218 m 0,0,1
 489 -218 489 -218 466.5 -193.5 c 128,-1,2
 444 -169 444 -169 444 -133 c 0,3,4
 444 -102 444 -102 457 -76.5 c 128,-1,5
 470 -51 470 -51 495 -15 c 0,6,7
 498 -11 498 -11 501 -7.5 c 128,-1,8
 504 -4 504 -4 506 0 c 1,9,-1
 100 0 l 1,10,-1
 100 730 l 1,11,-1
 536 730 l 1,12,-1
 536 697 l 1,13,-1
 133 697 l 1,14,-1
 133 392 l 1,15,-1
 516 392 l 1,16,-1
 516 359 l 1,17,-1
 133 359 l 1,18,-1
 133 33 l 1,19,-1
 546 33 l 1,20,-1
 546 0 l 1,21,22
 542 -6 542 -6 538 -11.5 c 128,-1,23
 534 -17 534 -17 530 -22 c 0,24,25
 501 -63 501 -63 489 -85.5 c 128,-1,26
 477 -108 477 -108 477 -132 c 0,27,28
 477 -154 477 -154 489.5 -169.5 c 128,-1,29
 502 -185 502 -185 521 -185 c 0,30,31
 556 -185 556 -185 578 -153 c 1,32,-1
 597 -179 l 1,33,34
 583 -199 583 -199 564.5 -208.5 c 128,-1,35
 546 -218 546 -218 521 -218 c 0,0,1
EndSplineSet
Validated: 1
EndChar

StartChar: eogonek
Encoding: 217 281 217
Width: 670
GlyphClass: 2
Flags: W
LayerCount: 2
Fore
SplineSet
544 -105 m 0,0,1
 512 -105 512 -105 489.5 -80.5 c 128,-1,2
 467 -56 467 -56 467 -20 c 0,3,4
 467 7 467 7 478 32 c 1,5,6
 415 -5 415 -5 337 -5 c 256,7,8
 259 -5 259 -5 193 33 c 128,-1,9
 127 71 127 71 88.5 135.5 c 128,-1,10
 50 200 50 200 50 276 c 256,11,12
 50 352 50 352 87 416.5 c 128,-1,13
 124 481 124 481 187.5 518.5 c 128,-1,14
 251 556 251 556 326 556 c 0,15,16
 405 556 405 556 467.5 518.5 c 128,-1,17
 530 481 530 481 565.5 417 c 128,-1,18
 601 353 601 353 601 276 c 0,19,20
 601 265 601 265 599 245 c 1,21,-1
 85 245 l 1,22,23
 93 185 93 185 128.5 135 c 128,-1,24
 164 85 164 85 219 56.5 c 128,-1,25
 274 28 274 28 337 28 c 0,26,27
 398 28 398 28 452 55.5 c 128,-1,28
 506 83 506 83 540 130 c 1,29,-1
 569 113 l 1,30,-1
 556 95 l 2,31,32
 521 47 521 47 510.5 25.5 c 128,-1,33
 500 4 500 4 500 -19 c 0,34,35
 500 -41 500 -41 512.5 -56.5 c 128,-1,36
 525 -72 525 -72 544 -72 c 0,37,38
 579 -72 579 -72 601 -40 c 1,39,-1
 620 -66 l 1,40,41
 606 -86 606 -86 587.5 -95.5 c 128,-1,42
 569 -105 569 -105 544 -105 c 0,0,1
568 278 m 1,43,44
 568 345 568 345 536.5 401 c 128,-1,45
 505 457 505 457 450 490 c 128,-1,46
 395 523 395 523 326 523 c 0,47,48
 261 523 261 523 205 490 c 128,-1,49
 149 457 149 457 116 400.5 c 128,-1,50
 83 344 83 344 83 278 c 1,51,-1
 568 278 l 1,43,44
EndSplineSet
Validated: 1
EndChar

StartChar: Ecaron
Encoding: 218 282 218
Width: 606
GlyphClass: 2
Flags: W
LayerCount: 2
Fore
SplineSet
100 0 m 1,0,-1
 100 730 l 1,1,-1
 536 730 l 1,2,-1
 536 697 l 1,3,-1
 133 697 l 1,4,-1
 133 392 l 1,5,-1
 516 392 l 1,6,-1
 516 359 l 1,7,-1
 133 359 l 1,8,-1
 133 33 l 1,9,-1
 546 33 l 1,10,-1
 546 0 l 1,11,-1
 100 0 l 1,0,-1
279 830 m 1,12,-1
 171 950 l 1,13,-1
 215 950 l 1,14,-1
 301 854 l 1,15,-1
 387 950 l 1,16,-1
 431 950 l 1,17,-1
 323 830 l 1,18,-1
 279 830 l 1,12,-1
EndSplineSet
Validated: 1
EndChar

StartChar: ecaron
Encoding: 219 283 219
Width: 651
GlyphClass: 2
Flags: W
LayerCount: 2
Fore
SplineSet
337 -5 m 0,0,1
 259 -5 259 -5 193 33 c 128,-1,2
 127 71 127 71 88.5 135.5 c 128,-1,3
 50 200 50 200 50 276 c 256,4,5
 50 352 50 352 87 416.5 c 128,-1,6
 124 481 124 481 187.5 518.5 c 128,-1,7
 251 556 251 556 326 556 c 0,8,9
 405 556 405 556 467.5 518.5 c 128,-1,10
 530 481 530 481 565.5 417 c 128,-1,11
 601 353 601 353 601 276 c 0,12,13
 601 265 601 265 599 245 c 1,14,-1
 85 245 l 1,15,16
 93 185 93 185 128.5 135 c 128,-1,17
 164 85 164 85 219 56.5 c 128,-1,18
 274 28 274 28 337 28 c 0,19,20
 398 28 398 28 452 55.5 c 128,-1,21
 506 83 506 83 540 130 c 1,22,-1
 569 113 l 1,23,24
 530 59 530 59 469 27 c 128,-1,25
 408 -5 408 -5 337 -5 c 0,0,1
568 278 m 1,26,27
 568 345 568 345 536.5 401 c 128,-1,28
 505 457 505 457 450 490 c 128,-1,29
 395 523 395 523 326 523 c 0,30,31
 261 523 261 523 205 490 c 128,-1,32
 149 457 149 457 116 400.5 c 128,-1,33
 83 344 83 344 83 278 c 1,34,-1
 568 278 l 1,26,27
291 660 m 1,35,-1
 183 780 l 1,36,-1
 227 780 l 1,37,-1
 313 684 l 1,38,-1
 399 780 l 1,39,-1
 443 780 l 1,40,-1
 335 660 l 1,41,-1
 291 660 l 1,35,-1
EndSplineSet
Validated: 1
EndChar

StartChar: Gcircumflex
Encoding: 220 284 220
Width: 853
GlyphClass: 2
Flags: W
LayerCount: 2
Fore
SplineSet
432 -8 m 0,0,1
 331 -8 331 -8 245.5 42 c 128,-1,2
 160 92 160 92 110 178 c 128,-1,3
 60 264 60 264 60 365 c 0,4,5
 60 465 60 465 110 550.5 c 128,-1,6
 160 636 160 636 245.5 686 c 128,-1,7
 331 736 331 736 432 736 c 0,8,9
 520 736 520 736 597 697 c 128,-1,10
 674 658 674 658 726 591 c 1,11,-1
 699 573 l 1,12,13
 652 633 652 633 582 668 c 128,-1,14
 512 703 512 703 432 703 c 0,15,16
 340 703 340 703 262 658 c 128,-1,17
 184 613 184 613 138.5 535.5 c 128,-1,18
 93 458 93 458 93 366 c 0,19,20
 93 272 93 272 138.5 194 c 128,-1,21
 184 116 184 116 262 70.5 c 128,-1,22
 340 25 340 25 432 25 c 0,23,24
 528 25 528 25 602 67.5 c 128,-1,25
 676 110 676 110 717.5 186.5 c 128,-1,26
 759 263 759 263 760 361 c 1,27,-1
 415 361 l 1,28,-1
 415 394 l 1,29,-1
 792 394 l 1,30,31
 793 385 793 385 793 365 c 0,32,33
 793 258 793 258 747.5 173 c 128,-1,34
 702 88 702 88 620 40 c 128,-1,35
 538 -8 538 -8 432 -8 c 0,0,1
297 830 m 1,36,-1
 405 950 l 1,37,-1
 449 950 l 1,38,-1
 557 830 l 1,39,-1
 513 830 l 1,40,-1
 427 926 l 1,41,-1
 341 830 l 1,42,-1
 297 830 l 1,36,-1
EndSplineSet
Validated: 1
Substitution2: "'ss01' Style Set 1 lookup 27 subtable" Gcircumflex.ss01
Substitution2: "'salt' Stylistic Alternatives lookup 26 subtable" Gcircumflex.ss01
Substitution2: "'aalt' Access All Alternates lookup 0 subtable" Gcircumflex.ss01
EndChar

